<svg width="42" height="42" viewBox="0 0 42 42" fill="none" xmlns="http://www.w3.org/2000/svg">
<g clip-path="url(#clip0_1_50454)">
<path d="M20.7382 5.47022C11.6925 -2.44158 0.190939 4.50995 0.00233875 13.9339C-0.045723 16.3356 0.647566 18.675 2.02758 20.8318H10.9724L12.5634 18.1801C13.0254 17.4102 14.1434 17.3854 14.6315 18.1529L17.9883 23.4278L22.8814 13.0981C23.3082 12.1968 24.5799 12.1681 25.0505 13.0422L29.245 20.8318H39.4488C47.0076 9.01819 32.0689 -4.43999 20.7382 5.47022Z" fill="url(#paint0_linear_1_50454)"/>
<path d="M27.4469 22.6237L24.048 16.3115L19.2418 26.458C18.8329 27.3212 17.6302 27.3962 17.1174 26.5903L13.6348 21.1176L12.7016 22.6728C12.4819 23.039 12.0862 23.263 11.6592 23.263H3.94922C4.19091 23.5159 2.9028 22.2304 19.8791 39.1188C20.3533 39.5906 21.1197 39.5907 21.594 39.1188C38.3091 22.4903 37.2827 23.5154 37.5239 23.263H28.5173C28.07 23.2631 27.6589 23.0175 27.4469 22.6237Z" fill="#47BFA3"/>
</g>
<defs>
<linearGradient id="paint0_linear_1_50454" x1="20.75" y1="2.02637" x2="20.4493" y2="33.0797" gradientUnits="userSpaceOnUse">
<stop stop-color="#4A1FB8"/>
<stop offset="1" stop-color="#0C0227" stop-opacity="0.55"/>
</linearGradient>
<clipPath id="clip0_1_50454">
<rect width="41.5" height="41.5" fill="white"/>
</clipPath>
</defs>
</svg>
