<svg width="305" height="124" viewBox="0 0 305 124" fill="none" xmlns="http://www.w3.org/2000/svg">
<path d="M143.503 28.4366C143.707 29.2012 144.493 29.6549 145.258 29.45C146.022 29.2452 146.476 28.4593 146.271 27.6948C146.066 26.9302 145.281 26.4765 144.516 26.6814C143.752 26.8862 143.298 27.6721 143.503 28.4366Z" fill="#043825" fill-opacity="0.4"/>
<path d="M148.176 31.1749C148.381 31.9395 149.167 32.3932 149.932 32.1883C150.696 31.9835 151.15 31.1976 150.945 30.433C150.74 29.6685 149.954 29.2148 149.19 29.4196C148.425 29.6245 147.972 30.4104 148.176 31.1749Z" fill="#043825" fill-opacity="0.4"/>
<path d="M152.897 33.9005C153.102 34.665 153.888 35.1188 154.652 34.9139C155.417 34.709 155.871 33.9232 155.666 33.1586C155.461 32.3941 154.675 31.9404 153.911 32.1452C153.146 32.3501 152.692 33.1359 152.897 33.9005Z" fill="#043825" fill-opacity="0.4"/>
<path d="M157.618 36.6261C157.823 37.3906 158.609 37.8443 159.373 37.6395C160.138 37.4346 160.591 36.6488 160.387 35.8842C160.182 35.1197 159.396 34.6659 158.631 34.8708C157.867 35.0757 157.413 35.8615 157.618 36.6261Z" fill="#043825" fill-opacity="0.4"/>
<path d="M162.339 39.3527C162.543 40.1172 163.329 40.5709 164.094 40.3661C164.858 40.1612 165.312 39.3753 165.107 38.6108C164.902 37.8462 164.117 37.3925 163.352 37.5974C162.587 37.8022 162.134 38.5881 162.339 39.3527Z" fill="#043825" fill-opacity="0.4"/>
<path d="M167.048 42.0304C167.252 42.7949 168.038 43.2486 168.803 43.0438C169.567 42.8389 170.021 42.0531 169.816 41.2885C169.611 40.524 168.826 40.0702 168.061 40.2751C167.296 40.48 166.843 41.2658 167.048 42.0304Z" fill="#043825" fill-opacity="0.4"/>
<path d="M171.768 44.756C171.973 45.5205 172.759 45.9742 173.524 45.7694C174.288 45.5645 174.742 44.7787 174.537 44.0141C174.332 43.2496 173.546 42.7958 172.782 43.0007C172.017 43.2056 171.563 43.9914 171.768 44.756Z" fill="#043825" fill-opacity="0.4"/>
<path d="M176.442 47.4942C176.647 48.2588 177.433 48.7125 178.197 48.5076C178.962 48.3028 179.416 47.5169 179.211 46.7524C179.006 45.9878 178.22 45.5341 177.456 45.739C176.691 45.9438 176.237 46.7297 176.442 47.4942Z" fill="#043825" fill-opacity="0.4"/>
<path d="M181.163 50.2198C181.368 50.9844 182.154 51.4381 182.918 51.2332C183.683 51.0284 184.136 50.2425 183.931 49.478C183.727 48.7134 182.941 48.2597 182.176 48.4646C181.412 48.6694 180.958 49.4553 181.163 50.2198Z" fill="#043825" fill-opacity="0.4"/>
<path d="M185.883 52.9454C186.088 53.71 186.874 54.1637 187.639 53.9588C188.403 53.754 188.857 52.9681 188.652 52.2035C188.447 51.439 187.661 50.9853 186.897 51.1901C186.132 51.395 185.679 52.1809 185.883 52.9454Z" fill="#043825" fill-opacity="0.4"/>
<path d="M190.604 55.672C190.809 56.4365 191.595 56.8902 192.359 56.6854C193.124 56.4805 193.578 55.6947 193.373 54.9301C193.168 54.1656 192.382 53.7118 191.618 53.9167C190.853 54.1216 190.399 54.9074 190.604 55.672Z" fill="#043825" fill-opacity="0.4"/>
<path d="M195.313 58.3497C195.518 59.1143 196.304 59.568 197.068 59.3631C197.833 59.1583 198.287 58.3724 198.082 57.6078C197.877 56.8433 197.091 56.3896 196.327 56.5944C195.562 56.7993 195.108 57.5852 195.313 58.3497Z" fill="#043825" fill-opacity="0.4"/>
<path d="M140.776 33.1573C140.981 33.9219 141.767 34.3756 142.531 34.1707C143.296 33.9659 143.75 33.18 143.545 32.4155C143.34 31.6509 142.554 31.1972 141.789 31.4021C141.025 31.6069 140.571 32.3928 140.776 33.1573Z" fill="#043825" fill-opacity="0.4"/>
<path d="M145.497 35.8829C145.702 36.6475 146.488 37.1012 147.252 36.8963C148.017 36.6915 148.47 35.9056 148.265 35.141C148.061 34.3765 147.275 33.9228 146.51 34.1276C145.746 34.3325 145.292 35.1184 145.497 35.8829Z" fill="#043825" fill-opacity="0.4"/>
<path d="M150.171 38.6222C150.375 39.3867 151.161 39.8404 151.926 39.6356C152.69 39.4307 153.144 38.6449 152.939 37.8803C152.734 37.1158 151.949 36.662 151.184 36.8669C150.419 37.0718 149.966 37.8576 150.171 38.6222Z" fill="#043825" fill-opacity="0.4"/>
<path d="M154.891 41.3478C155.096 42.1123 155.882 42.566 156.647 42.3612C157.411 42.1563 157.865 41.3705 157.66 40.6059C157.455 39.8414 156.669 39.3876 155.905 39.5925C155.14 39.7973 154.686 40.5832 154.891 41.3478Z" fill="#043825" fill-opacity="0.4"/>
<path d="M159.6 44.0255C159.805 44.79 160.591 45.2438 161.356 45.0389C162.12 44.834 162.574 44.0482 162.369 43.2836C162.164 42.5191 161.378 42.0654 160.614 42.2702C159.849 42.4751 159.395 43.2609 159.6 44.0255Z" fill="#043825" fill-opacity="0.4"/>
<path d="M164.321 46.7511C164.526 47.5156 165.312 47.9694 166.076 47.7645C166.841 47.5596 167.295 46.7738 167.09 46.0092C166.885 45.2447 166.099 44.791 165.334 44.9958C164.57 45.2007 164.116 45.9865 164.321 46.7511Z" fill="#043825" fill-opacity="0.4"/>
<path d="M169.042 49.4767C169.247 50.2412 170.032 50.6949 170.797 50.4901C171.562 50.2852 172.015 49.4993 171.81 48.7348C171.606 47.9702 170.82 47.5165 170.055 47.7214C169.291 47.9263 168.837 48.7121 169.042 49.4767Z" fill="#043825" fill-opacity="0.4"/>
<path d="M173.764 52.2022C173.969 52.9668 174.755 53.4205 175.52 53.2157C176.284 53.0108 176.738 52.2249 176.533 51.4604C176.328 50.6958 175.542 50.2421 174.778 50.447C174.013 50.6518 173.56 51.4377 173.764 52.2022Z" fill="#043825" fill-opacity="0.4"/>
<path d="M178.436 54.9415C178.641 55.7061 179.427 56.1598 180.192 55.9549C180.956 55.75 181.41 54.9642 181.205 54.1996C181 53.4351 180.214 52.9814 179.45 53.1862C178.685 53.3911 178.231 54.177 178.436 54.9415Z" fill="#043825" fill-opacity="0.4"/>
<path d="M183.157 57.6671C183.362 58.4316 184.148 58.8854 184.912 58.6805C185.677 58.4756 186.13 57.6898 185.926 56.9252C185.721 56.1607 184.935 55.707 184.17 55.9118C183.406 56.1167 182.952 56.9025 183.157 57.6671Z" fill="#043825" fill-opacity="0.4"/>
<path d="M187.866 60.3448C188.071 61.1094 188.857 61.5631 189.621 61.3582C190.386 61.1534 190.839 60.3675 190.635 59.603C190.43 58.8384 189.644 58.3847 188.879 58.5896C188.115 58.7944 187.661 59.5803 187.866 60.3448Z" fill="#043825" fill-opacity="0.4"/>
<path d="M192.587 63.0704C192.791 63.835 193.577 64.2887 194.342 64.0838C195.106 63.879 195.56 63.0931 195.355 62.3285C195.15 61.564 194.365 61.1103 193.6 61.3151C192.835 61.52 192.382 62.3059 192.587 63.0704Z" fill="#043825" fill-opacity="0.4"/>
<path d="M150.901 26.4542C151.106 27.2188 151.892 27.6725 152.656 27.4676C153.421 27.2627 153.875 26.4769 153.67 25.7123C153.465 24.9478 152.679 24.4941 151.914 24.6989C151.15 24.9038 150.696 25.6897 150.901 26.4542Z" fill="#043825" fill-opacity="0.4"/>
<path d="M155.622 29.1798C155.827 29.9443 156.613 30.3981 157.377 30.1932C158.142 29.9883 158.595 29.2025 158.39 28.4379C158.186 27.6734 157.4 27.2197 156.635 27.4245C155.871 27.6294 155.417 28.4152 155.622 29.1798Z" fill="#043825" fill-opacity="0.4"/>
<path d="M160.342 31.9054C160.547 32.6699 161.333 33.1236 162.098 32.9188C162.862 32.7139 163.316 31.9281 163.111 31.1635C162.906 30.399 162.12 29.9452 161.356 30.1501C160.591 30.355 160.138 31.1408 160.342 31.9054Z" fill="#043825" fill-opacity="0.4"/>
<path d="M165.065 34.631C165.27 35.3955 166.056 35.8492 166.82 35.6444C167.585 35.4395 168.039 34.6536 167.834 33.8891C167.629 33.1245 166.843 32.6708 166.079 32.8757C165.314 33.0806 164.86 33.8664 165.065 34.631Z" fill="#043825" fill-opacity="0.4"/>
<path d="M169.786 37.3566C169.991 38.1211 170.777 38.5748 171.541 38.37C172.306 38.1651 172.759 37.3792 172.555 36.6147C172.35 35.8501 171.564 35.3964 170.799 35.6013C170.035 35.8061 169.581 36.592 169.786 37.3566Z" fill="#043825" fill-opacity="0.4"/>
<path d="M174.446 40.0479C174.651 40.8125 175.437 41.2662 176.201 41.0614C176.966 40.8565 177.42 40.0706 177.215 39.3061C177.01 38.5415 176.224 38.0878 175.459 38.2927C174.695 38.4975 174.241 39.2834 174.446 40.0479Z" fill="#043825" fill-opacity="0.4"/>
<path d="M179.167 42.7735C179.372 43.5381 180.157 43.9918 180.922 43.787C181.687 43.5821 182.14 42.7962 181.935 42.0317C181.731 41.2671 180.945 40.8134 180.18 41.0183C179.416 41.2231 178.962 42.009 179.167 42.7735Z" fill="#043825" fill-opacity="0.4"/>
<path d="M183.887 45.4991C184.092 46.2637 184.878 46.7174 185.643 46.5125C186.407 46.3077 186.861 45.5218 186.656 44.7573C186.451 43.9927 185.665 43.539 184.901 43.7439C184.136 43.9487 183.683 44.7346 183.887 45.4991Z" fill="#043825" fill-opacity="0.4"/>
<path d="M188.61 48.2247C188.815 48.9893 189.601 49.443 190.365 49.2381C191.13 49.0333 191.584 48.2474 191.379 47.4828C191.174 46.7183 190.388 46.2646 189.623 46.4694C188.859 46.6743 188.405 47.4602 188.61 48.2247Z" fill="#043825" fill-opacity="0.4"/>
<path d="M193.331 50.9503C193.536 51.7148 194.321 52.1686 195.086 51.9637C195.851 51.7588 196.304 50.973 196.099 50.2084C195.895 49.4439 195.109 48.9902 194.344 49.195C193.58 49.3999 193.126 50.1857 193.331 50.9503Z" fill="#043825" fill-opacity="0.4"/>
<path d="M165.796 22.463C166 23.2275 166.786 23.6813 167.551 23.4764C168.315 23.2715 168.769 22.4857 168.564 21.7211C168.359 20.9566 167.574 20.5029 166.809 20.7077C166.044 20.9126 165.591 21.6984 165.796 22.463Z" fill="#043825" fill-opacity="0.4"/>
<path d="M170.467 25.2022C170.672 25.9668 171.458 26.4205 172.223 26.2157C172.987 26.0108 173.441 25.2249 173.236 24.4604C173.031 23.6958 172.245 23.2421 171.481 23.447C170.716 23.6518 170.263 24.4377 170.467 25.2022Z" fill="#043825" fill-opacity="0.4"/>
<path d="M175.19 27.9278C175.395 28.6924 176.181 29.1461 176.945 28.9412C177.71 28.7364 178.164 27.9505 177.959 27.186C177.754 26.4214 176.968 25.9677 176.204 26.1726C175.439 26.3774 174.985 27.1633 175.19 27.9278Z" fill="#043825" fill-opacity="0.4"/>
<path d="M179.911 30.6534C180.116 31.418 180.902 31.8717 181.666 31.6668C182.431 31.462 182.884 30.6761 182.68 29.9116C182.475 29.147 181.689 28.6933 180.924 28.8982C180.16 29.103 179.706 29.8889 179.911 30.6534Z" fill="#043825" fill-opacity="0.4"/>
<path d="M184.632 33.379C184.836 34.1436 185.622 34.5973 186.387 34.3924C187.151 34.1876 187.605 33.4017 187.4 32.6372C187.195 31.8726 186.41 31.4189 185.645 31.6237C184.88 31.8286 184.427 32.6145 184.632 33.379Z" fill="#043825" fill-opacity="0.4"/>
<path d="M189.341 36.0567C189.545 36.8213 190.331 37.275 191.096 37.0701C191.86 36.8653 192.314 36.0794 192.109 35.3149C191.904 34.5503 191.118 34.0966 190.354 34.3015C189.589 34.5063 189.136 35.2922 189.341 36.0567Z" fill="#043825" fill-opacity="0.4"/>
<path d="M158.348 24.4591C158.553 25.2236 159.339 25.6773 160.104 25.4725C160.868 25.2676 161.322 24.4818 161.117 23.7172C160.912 22.9527 160.126 22.499 159.362 22.7038C158.597 22.9087 158.143 23.6945 158.348 24.4591Z" fill="#043825" fill-opacity="0.4"/>
<path d="M163.069 27.1847C163.274 27.9492 164.06 28.4029 164.824 28.1981C165.589 27.9932 166.043 27.2074 165.838 26.4428C165.633 25.6783 164.847 25.2245 164.082 25.4294C163.318 25.6343 162.864 26.4201 163.069 27.1847Z" fill="#043825" fill-opacity="0.4"/>
<path d="M167.79 29.9103C167.995 30.6748 168.78 31.1285 169.545 30.9237C170.31 30.7188 170.763 29.9329 170.558 29.1684C170.354 28.4038 169.568 27.9501 168.803 28.155C168.039 28.3598 167.585 29.1457 167.79 29.9103Z" fill="#043825" fill-opacity="0.4"/>
<path d="M172.464 32.6485C172.668 33.4131 173.454 33.8668 174.219 33.6619C174.983 33.4571 175.437 32.6712 175.232 31.9067C175.027 31.1421 174.242 30.6884 173.477 30.8933C172.712 31.0981 172.259 31.884 172.464 32.6485Z" fill="#043825" fill-opacity="0.4"/>
<path d="M177.184 35.3741C177.389 36.1387 178.175 36.5924 178.94 36.3875C179.704 36.1827 180.158 35.3968 179.953 34.6323C179.748 33.8677 178.962 33.414 178.198 33.6189C177.433 33.8237 176.979 34.6096 177.184 35.3741Z" fill="#043825" fill-opacity="0.4"/>
<path d="M181.893 38.0519C182.098 38.8164 182.884 39.2701 183.649 39.0653C184.413 38.8604 184.867 38.0745 184.662 37.31C184.457 36.5454 183.671 36.0917 182.907 36.2966C182.142 36.5015 181.688 37.2873 181.893 38.0519Z" fill="#043825" fill-opacity="0.4"/>
<path d="M186.614 40.7775C186.819 41.542 187.605 41.9957 188.369 41.7909C189.134 41.586 189.588 40.8001 189.383 40.0356C189.178 39.271 188.392 38.8173 187.627 39.0222C186.863 39.227 186.409 40.0129 186.614 40.7775Z" fill="#043825" fill-opacity="0.4"/>
<path d="M191.335 43.504C191.54 44.2686 192.325 44.7223 193.09 44.5174C193.854 44.3126 194.308 43.5267 194.103 42.7621C193.898 41.9976 193.113 41.5439 192.348 41.7487C191.584 41.9536 191.13 42.7395 191.335 43.504Z" fill="#043825" fill-opacity="0.4"/>
<path d="M173.194 20.4806C173.399 21.2451 174.185 21.6988 174.949 21.494C175.714 21.2891 176.168 20.5033 175.963 19.7387C175.758 18.9742 174.972 18.5204 174.207 18.7253C173.443 18.9302 172.989 19.716 173.194 20.4806Z" fill="#043825" fill-opacity="0.4"/>
<path d="M177.915 23.2062C178.12 23.9707 178.905 24.4244 179.67 24.2196C180.435 24.0147 180.888 23.2288 180.683 22.4643C180.479 21.6997 179.693 21.246 178.928 21.4509C178.164 21.6557 177.71 22.4416 177.915 23.2062Z" fill="#043825" fill-opacity="0.4"/>
<path d="M182.635 25.9317C182.84 26.6963 183.626 27.15 184.391 26.9451C185.155 26.7403 185.609 25.9544 185.404 25.1899C185.199 24.4253 184.413 23.9716 183.649 24.1765C182.884 24.3813 182.431 25.1672 182.635 25.9317Z" fill="#043825" fill-opacity="0.4"/>
<path d="M187.358 28.6583C187.563 29.4229 188.349 29.8766 189.113 29.6717C189.878 29.4668 190.332 28.681 190.127 27.9164C189.922 27.1519 189.136 26.6982 188.372 26.903C187.607 27.1079 187.153 27.8938 187.358 28.6583Z" fill="#043825" fill-opacity="0.4"/>
<path d="M180.641 18.4854C180.846 19.25 181.632 19.7037 182.397 19.4989C183.161 19.294 183.615 18.5081 183.41 17.7436C183.205 16.979 182.419 16.5253 181.655 16.7302C180.89 16.935 180.436 17.7209 180.641 18.4854Z" fill="#043825" fill-opacity="0.4"/>
<path d="M185.362 21.211C185.567 21.9756 186.353 22.4293 187.117 22.2245C187.882 22.0196 188.336 21.2337 188.131 20.4692C187.926 19.7046 187.14 19.2509 186.375 19.4558C185.611 19.6606 185.157 20.4465 185.362 21.211Z" fill="#043825" fill-opacity="0.4"/>
<path d="M135.325 42.5997C135.53 43.3643 136.316 43.818 137.08 43.6131C137.845 43.4083 138.298 42.6224 138.094 41.8578C137.889 41.0933 137.103 40.6396 136.338 40.8444C135.574 41.0493 135.12 41.8352 135.325 42.5997Z" fill="#043825" fill-opacity="0.4"/>
<path d="M140.046 45.3253C140.25 46.0899 141.036 46.5436 141.801 46.3387C142.565 46.1339 143.019 45.348 142.814 44.5834C142.609 43.8189 141.824 43.3652 141.059 43.57C140.294 43.7749 139.841 44.5608 140.046 45.3253Z" fill="#043825" fill-opacity="0.4"/>
<path d="M144.755 48.003C144.959 48.7676 145.745 49.2213 146.51 49.0164C147.274 48.8116 147.728 48.0257 147.523 47.2612C147.318 46.4966 146.533 46.0429 145.768 46.2478C145.003 46.4526 144.55 47.2385 144.755 48.003Z" fill="#043825" fill-opacity="0.4"/>
<path d="M149.475 50.7296C149.68 51.4942 150.466 51.9479 151.231 51.743C151.995 51.5381 152.449 50.7523 152.244 49.9877C152.039 49.2232 151.253 48.7695 150.489 48.9743C149.724 49.1792 149.27 49.9651 149.475 50.7296Z" fill="#043825" fill-opacity="0.4"/>
<path d="M154.149 53.4679C154.354 54.2324 155.14 54.6861 155.904 54.4813C156.669 54.2764 157.123 53.4906 156.918 52.726C156.713 51.9615 155.927 51.5077 155.163 51.7126C154.398 51.9175 153.944 52.7033 154.149 53.4679Z" fill="#043825" fill-opacity="0.4"/>
<path d="M158.87 56.1935C159.075 56.958 159.861 57.4117 160.625 57.2069C161.39 57.002 161.843 56.2161 161.639 55.4516C161.434 54.687 160.648 54.2333 159.883 54.4382C159.119 54.6431 158.665 55.4289 158.87 56.1935Z" fill="#043825" fill-opacity="0.4"/>
<path d="M163.591 58.919C163.795 59.6836 164.581 60.1373 165.346 59.9324C166.11 59.7276 166.564 58.9417 166.359 58.1772C166.154 57.4126 165.368 56.9589 164.604 57.1638C163.839 57.3686 163.386 58.1545 163.591 58.919Z" fill="#043825" fill-opacity="0.4"/>
<path d="M168.311 61.6446C168.516 62.4092 169.302 62.8629 170.066 62.658C170.831 62.4532 171.285 61.6673 171.08 60.9028C170.875 60.1382 170.089 59.6845 169.325 59.8894C168.56 60.0942 168.106 60.8801 168.311 61.6446Z" fill="#043825" fill-opacity="0.4"/>
<path d="M173.02 64.3224C173.225 65.0869 174.011 65.5406 174.775 65.3358C175.54 65.1309 175.994 64.345 175.789 63.5805C175.584 62.816 174.798 62.3622 174.034 62.5671C173.269 62.772 172.815 63.5578 173.02 64.3224Z" fill="#043825" fill-opacity="0.4"/>
<path d="M177.741 67.0489C177.946 67.8135 178.732 68.2672 179.496 68.0623C180.261 67.8575 180.714 67.0716 180.51 66.3071C180.305 65.5425 179.519 65.0888 178.754 65.2937C177.99 65.4985 177.536 66.2844 177.741 67.0489Z" fill="#043825" fill-opacity="0.4"/>
<path d="M182.415 69.7872C182.62 70.5518 183.405 71.0055 184.17 70.8006C184.935 70.5958 185.388 69.8099 185.183 69.0454C184.979 68.2808 184.193 67.8271 183.428 68.0319C182.664 68.2368 182.21 69.0227 182.415 69.7872Z" fill="#043825" fill-opacity="0.4"/>
<path d="M187.135 72.5128C187.34 73.2773 188.126 73.7311 188.891 73.5262C189.655 73.3213 190.109 72.5355 189.904 71.7709C189.699 71.0064 188.913 70.5527 188.149 70.7575C187.384 70.9624 186.931 71.7482 187.135 72.5128Z" fill="#043825" fill-opacity="0.4"/>
<path d="M132.6 47.3204C132.805 48.085 133.591 48.5387 134.356 48.3338C135.12 48.129 135.574 47.3431 135.369 46.5786C135.164 45.814 134.378 45.3603 133.614 45.5651C132.849 45.77 132.395 46.5559 132.6 47.3204Z" fill="#043825" fill-opacity="0.4"/>
<path d="M137.307 49.9991C137.512 50.7637 138.298 51.2174 139.063 51.0125C139.827 50.8077 140.281 50.0218 140.076 49.2573C139.871 48.4927 139.085 48.039 138.321 48.2439C137.556 48.4487 137.102 49.2346 137.307 49.9991Z" fill="#043825" fill-opacity="0.4"/>
<path d="M142.028 52.7247C142.233 53.4893 143.019 53.943 143.783 53.7381C144.548 53.5333 145.002 52.7474 144.797 51.9829C144.592 51.2183 143.806 50.7646 143.041 50.9694C142.277 51.1743 141.823 51.9602 142.028 52.7247Z" fill="#043825" fill-opacity="0.4"/>
<path d="M146.751 55.4503C146.956 56.2148 147.741 56.6686 148.506 56.4637C149.271 56.2588 149.724 55.473 149.519 54.7084C149.315 53.9439 148.529 53.4902 147.764 53.695C147 53.8999 146.546 54.6857 146.751 55.4503Z" fill="#043825" fill-opacity="0.4"/>
<path d="M151.471 58.1759C151.676 58.9404 152.462 59.3942 153.227 59.1893C153.991 58.9844 154.445 58.1986 154.24 57.434C154.035 56.6695 153.249 56.2158 152.485 56.4206C151.72 56.6255 151.267 57.4113 151.471 58.1759Z" fill="#043825" fill-opacity="0.4"/>
<path d="M156.145 60.9142C156.35 61.6787 157.136 62.1324 157.9 61.9276C158.665 61.7227 159.119 60.9368 158.914 60.1723C158.709 59.4077 157.923 58.954 157.159 59.1589C156.394 59.3638 155.94 60.1496 156.145 60.9142Z" fill="#043825" fill-opacity="0.4"/>
<path d="M160.866 63.6398C161.071 64.4043 161.857 64.858 162.621 64.6531C163.386 64.4483 163.839 63.6624 163.635 62.8979C163.43 62.1333 162.644 61.6796 161.879 61.8845C161.115 62.0893 160.661 62.8752 160.866 63.6398Z" fill="#043825" fill-opacity="0.4"/>
<path d="M165.573 66.3185C165.778 67.083 166.564 67.5367 167.328 67.3319C168.093 67.127 168.546 66.3411 168.342 65.5766C168.137 64.812 167.351 64.3583 166.586 64.5632C165.822 64.7681 165.368 65.5539 165.573 66.3185Z" fill="#043825" fill-opacity="0.4"/>
<path d="M170.294 69.044C170.499 69.8086 171.284 70.2623 172.049 70.0574C172.813 69.8526 173.267 69.0667 173.062 68.3022C172.857 67.5376 172.072 67.0839 171.307 67.2888C170.543 67.4936 170.089 68.2795 170.294 69.044Z" fill="#043825" fill-opacity="0.4"/>
<path d="M175.016 71.7696C175.221 72.5342 176.007 72.9879 176.772 72.783C177.536 72.5782 177.99 71.7923 177.785 71.0278C177.58 70.2632 176.794 69.8095 176.03 70.0144C175.265 70.2192 174.811 71.0051 175.016 71.7696Z" fill="#043825" fill-opacity="0.4"/>
<path d="M179.737 74.4952C179.942 75.2598 180.728 75.7135 181.492 75.5086C182.257 75.3038 182.711 74.5179 182.506 73.7534C182.301 72.9888 181.515 72.5351 180.75 72.7399C179.986 72.9448 179.532 73.7307 179.737 74.4952Z" fill="#043825" fill-opacity="0.4"/>
<path d="M184.411 77.2335C184.616 77.998 185.402 78.4518 186.166 78.2469C186.931 78.0421 187.384 77.2562 187.18 76.4916C186.975 75.7271 186.189 75.2734 185.424 75.4782C184.66 75.6831 184.206 76.4689 184.411 77.2335Z" fill="#043825" fill-opacity="0.4"/>
<path d="M138.051 37.879C138.256 38.6436 139.042 39.0973 139.807 38.8924C140.571 38.6875 141.025 37.9017 140.82 37.1371C140.615 36.3726 139.829 35.9189 139.065 36.1237C138.3 36.3286 137.847 37.1145 138.051 37.879Z" fill="#043825" fill-opacity="0.4"/>
<path d="M142.772 40.6046C142.977 41.3691 143.763 41.8229 144.527 41.618C145.292 41.4131 145.746 40.6273 145.541 39.8627C145.336 39.0982 144.55 38.6445 143.786 38.8493C143.021 39.0542 142.567 39.84 142.772 40.6046Z" fill="#043825" fill-opacity="0.4"/>
<path d="M147.493 43.3302C147.698 44.0947 148.484 44.5485 149.248 44.3436C150.013 44.1387 150.466 43.3529 150.262 42.5883C150.057 41.8238 149.271 41.3701 148.506 41.5749C147.742 41.7798 147.288 42.5656 147.493 43.3302Z" fill="#043825" fill-opacity="0.4"/>
<path d="M152.153 46.0206C152.358 46.7852 153.144 47.2389 153.908 47.034C154.673 46.8291 155.127 46.0433 154.922 45.2787C154.717 44.5142 153.931 44.0605 153.166 44.2653C152.402 44.4702 151.948 45.2561 152.153 46.0206Z" fill="#043825" fill-opacity="0.4"/>
<path d="M156.874 48.7462C157.079 49.5108 157.864 49.9645 158.629 49.7596C159.394 49.5547 159.847 48.7689 159.642 48.0043C159.438 47.2398 158.652 46.7861 157.887 46.9909C157.123 47.1958 156.669 47.9817 156.874 48.7462Z" fill="#043825" fill-opacity="0.4"/>
<path d="M161.596 51.4728C161.801 52.2373 162.587 52.691 163.352 52.4862C164.116 52.2813 164.57 51.4954 164.365 50.7309C164.16 49.9663 163.374 49.5126 162.61 49.7175C161.845 49.9223 161.392 50.7082 161.596 51.4728Z" fill="#043825" fill-opacity="0.4"/>
<path d="M166.317 54.1983C166.522 54.9629 167.308 55.4166 168.072 55.2118C168.837 55.0069 169.291 54.221 169.086 53.4565C168.881 52.6919 168.095 52.2382 167.33 52.4431C166.566 52.6479 166.112 53.4338 166.317 54.1983Z" fill="#043825" fill-opacity="0.4"/>
<path d="M171.038 56.9239C171.243 57.6885 172.029 58.1422 172.793 57.9373C173.558 57.7325 174.011 56.9466 173.806 56.1821C173.602 55.4175 172.816 54.9638 172.051 55.1687C171.287 55.3735 170.833 56.1594 171.038 56.9239Z" fill="#043825" fill-opacity="0.4"/>
<path d="M175.759 59.6495C175.963 60.4141 176.749 60.8678 177.514 60.6629C178.278 60.4581 178.732 59.6722 178.527 58.9076C178.322 58.1431 177.536 57.6894 176.772 57.8942C176.007 58.0991 175.554 58.885 175.759 59.6495Z" fill="#043825" fill-opacity="0.4"/>
<path d="M180.419 62.3399C180.624 63.1045 181.409 63.5582 182.174 63.3533C182.938 63.1485 183.392 62.3626 183.187 61.5981C182.982 60.8335 182.197 60.3798 181.432 60.5847C180.668 60.7895 180.214 61.5754 180.419 62.3399Z" fill="#043825" fill-opacity="0.4"/>
<path d="M185.141 65.0655C185.346 65.8301 186.132 66.2838 186.897 66.0789C187.661 65.8741 188.115 65.0882 187.91 64.3237C187.705 63.5591 186.919 63.1054 186.155 63.3103C185.39 63.5151 184.936 64.301 185.141 65.0655Z" fill="#043825" fill-opacity="0.4"/>
<path d="M189.862 67.7911C190.067 68.5557 190.853 69.0094 191.617 68.8045C192.382 68.5997 192.836 67.8138 192.631 67.0493C192.426 66.2847 191.64 65.831 190.875 66.0358C190.111 66.2407 189.657 67.0266 189.862 67.7911Z" fill="#043825" fill-opacity="0.4"/>
<path d="M124.458 61.4239C124.663 62.1885 125.448 62.6422 126.213 62.4373C126.978 62.2325 127.431 61.4466 127.226 60.6821C127.022 59.9175 126.236 59.4638 125.471 59.6687C124.707 59.8735 124.253 60.6594 124.458 61.4239Z" fill="#043825" fill-opacity="0.4"/>
<path d="M129.132 64.1622C129.336 64.9268 130.122 65.3805 130.887 65.1756C131.651 64.9708 132.105 64.1849 131.9 63.4203C131.695 62.6558 130.91 62.2021 130.145 62.4069C129.38 62.6118 128.927 63.3977 129.132 64.1622Z" fill="#043825" fill-opacity="0.4"/>
<path d="M133.852 66.8878C134.057 67.6523 134.843 68.1061 135.608 67.9012C136.372 67.6963 136.826 66.9105 136.621 66.1459C136.416 65.3814 135.63 64.9277 134.866 65.1325C134.101 65.3374 133.647 66.1232 133.852 66.8878Z" fill="#043825" fill-opacity="0.4"/>
<path d="M138.573 69.6134C138.778 70.3779 139.564 70.8316 140.328 70.6268C141.093 70.4219 141.546 69.6361 141.342 68.8715C141.137 68.107 140.351 67.6533 139.586 67.8581C138.822 68.063 138.368 68.8488 138.573 69.6134Z" fill="#043825" fill-opacity="0.4"/>
<path d="M143.282 72.2911C143.487 73.0557 144.273 73.5094 145.037 73.3045C145.802 73.0997 146.255 72.3138 146.051 71.5493C145.846 70.7847 145.06 70.331 144.295 70.5359C143.531 70.7407 143.077 71.5266 143.282 72.2911Z" fill="#043825" fill-opacity="0.4"/>
<path d="M157.444 80.4689C157.649 81.2334 158.435 81.6871 159.199 81.4823C159.964 81.2774 160.418 80.4915 160.213 79.727C160.008 78.9624 159.222 78.5087 158.457 78.7136C157.693 78.9184 157.239 79.7043 157.444 80.4689Z" fill="#043825" fill-opacity="0.4"/>
<path d="M162.118 83.2071C162.323 83.9717 163.109 84.4254 163.873 84.2205C164.638 84.0157 165.091 83.2298 164.887 82.4653C164.682 81.7007 163.896 81.247 163.131 81.4519C162.367 81.6567 161.913 82.4426 162.118 83.2071Z" fill="#043825" fill-opacity="0.4"/>
<path d="M166.839 85.9327C167.043 86.6973 167.829 87.151 168.594 86.9461C169.358 86.7413 169.812 85.9554 169.607 85.1909C169.402 84.4263 168.617 83.9726 167.852 84.1774C167.087 84.3823 166.634 85.1682 166.839 85.9327Z" fill="#043825" fill-opacity="0.4"/>
<path d="M171.548 88.6104C171.752 89.375 172.538 89.8287 173.303 89.6239C174.067 89.419 174.521 88.6331 174.316 87.8686C174.111 87.104 173.326 86.6503 172.561 86.8552C171.796 87.06 171.343 87.8459 171.548 88.6104Z" fill="#043825" fill-opacity="0.4"/>
<path d="M176.268 91.336C176.473 92.1006 177.259 92.5543 178.024 92.3494C178.788 92.1446 179.242 91.3587 179.037 90.5942C178.832 89.8296 178.046 89.3759 177.282 89.5808C176.517 89.7856 176.063 90.5715 176.268 91.336Z" fill="#043825" fill-opacity="0.4"/>
<path d="M121.731 66.1446C121.936 66.9092 122.722 67.3629 123.486 67.158C124.251 66.9532 124.705 66.1673 124.5 65.4028C124.295 64.6382 123.509 64.1845 122.745 64.3894C121.98 64.5942 121.526 65.3801 121.731 66.1446Z" fill="#043825" fill-opacity="0.4"/>
<path d="M126.452 68.8702C126.657 69.6348 127.443 70.0885 128.207 69.8836C128.972 69.6788 129.425 68.8929 129.221 68.1284C129.016 67.3638 128.23 66.9101 127.465 67.1149C126.701 67.3198 126.247 68.1057 126.452 68.8702Z" fill="#043825" fill-opacity="0.4"/>
<path d="M131.126 71.6085C131.331 72.373 132.116 72.8268 132.881 72.6219C133.646 72.417 134.099 71.6312 133.894 70.8666C133.69 70.1021 132.904 69.6484 132.139 69.8532C131.375 70.0581 130.921 70.8439 131.126 71.6085Z" fill="#043825" fill-opacity="0.4"/>
<path d="M135.835 74.2872C136.04 75.0518 136.825 75.5055 137.59 75.3006C138.354 75.0957 138.808 74.3099 138.603 73.5453C138.398 72.7808 137.613 72.3271 136.848 72.5319C136.084 72.7368 135.63 73.5227 135.835 74.2872Z" fill="#043825" fill-opacity="0.4"/>
<path d="M159.44 87.9151C159.645 88.6797 160.431 89.1334 161.195 88.9285C161.96 88.7237 162.414 87.9378 162.209 87.1733C162.004 86.4087 161.218 85.955 160.454 86.1599C159.689 86.3647 159.235 87.1506 159.44 87.9151Z" fill="#043825" fill-opacity="0.4"/>
<path d="M164.1 90.6065C164.305 91.3711 165.091 91.8248 165.856 91.62C166.62 91.4151 167.074 90.6292 166.869 89.8647C166.664 89.1001 165.878 88.6464 165.114 88.8513C164.349 89.0561 163.895 89.842 164.1 90.6065Z" fill="#043825" fill-opacity="0.4"/>
<path d="M168.821 93.3321C169.026 94.0967 169.812 94.5504 170.576 94.3455C171.341 94.1407 171.795 93.3548 171.59 92.5903C171.385 91.8257 170.599 91.372 169.834 91.5769C169.07 91.7817 168.616 92.5676 168.821 93.3321Z" fill="#043825" fill-opacity="0.4"/>
<path d="M173.542 96.0577C173.747 96.8223 174.532 97.276 175.297 97.0711C176.062 96.8663 176.515 96.0804 176.31 95.3159C176.106 94.5513 175.32 94.0976 174.555 94.3024C173.791 94.5073 173.337 95.2932 173.542 96.0577Z" fill="#043825" fill-opacity="0.4"/>
<path d="M127.135 56.715C127.34 57.4795 128.126 57.9332 128.891 57.7284C129.655 57.5235 130.109 56.7376 129.904 55.9731C129.699 55.2085 128.913 54.7548 128.149 54.9597C127.384 55.1645 126.931 55.9504 127.135 56.715Z" fill="#043825" fill-opacity="0.4"/>
<path d="M131.856 59.4405C132.061 60.2051 132.847 60.6588 133.611 60.4539C134.376 60.2491 134.83 59.4632 134.625 58.6987C134.42 57.9341 133.634 57.4804 132.87 57.6853C132.105 57.8901 131.651 58.676 131.856 59.4405Z" fill="#043825" fill-opacity="0.4"/>
<path d="M136.577 62.1671C136.782 62.9316 137.568 63.3854 138.332 63.1805C139.097 62.9756 139.55 62.1898 139.346 61.4252C139.141 60.6607 138.355 60.207 137.59 60.4118C136.826 60.6167 136.372 61.4025 136.577 62.1671Z" fill="#043825" fill-opacity="0.4"/>
<path d="M141.298 64.8927C141.502 65.6572 142.288 66.1109 143.053 65.9061C143.817 65.7012 144.271 64.9154 144.066 64.1508C143.861 63.3863 143.076 62.9326 142.311 63.1374C141.546 63.3423 141.093 64.1281 141.298 64.8927Z" fill="#043825" fill-opacity="0.4"/>
<path d="M146.02 67.6183C146.225 68.3828 147.011 68.8365 147.775 68.6317C148.54 68.4268 148.994 67.6409 148.789 66.8764C148.584 66.1119 147.798 65.6581 147.034 65.863C146.269 66.0679 145.815 66.8537 146.02 67.6183Z" fill="#043825" fill-opacity="0.4"/>
<path d="M150.727 70.296C150.932 71.0605 151.718 71.5143 152.483 71.3094C153.247 71.1045 153.701 70.3187 153.496 69.5541C153.291 68.7896 152.505 68.3359 151.741 68.5407C150.976 68.7456 150.522 69.5314 150.727 70.296Z" fill="#043825" fill-opacity="0.4"/>
<path d="M155.448 73.0216C155.653 73.7861 156.439 74.2398 157.203 74.035C157.968 73.8301 158.421 73.0443 158.217 72.2797C158.012 71.5152 157.226 71.0615 156.461 71.2663C155.697 71.4712 155.243 72.257 155.448 73.0216Z" fill="#043825" fill-opacity="0.4"/>
<path d="M160.122 75.7599C160.327 76.5244 161.113 76.9781 161.877 76.7733C162.642 76.5684 163.095 75.7826 162.89 75.018C162.686 74.2535 161.9 73.7997 161.135 74.0046C160.371 74.2095 159.917 74.9953 160.122 75.7599Z" fill="#043825" fill-opacity="0.4"/>
<path d="M164.842 78.4864C165.047 79.251 165.833 79.7047 166.598 79.4998C167.362 79.295 167.816 78.5091 167.611 77.7446C167.406 76.98 166.62 76.5263 165.856 76.7312C165.091 76.936 164.638 77.7219 164.842 78.4864Z" fill="#043825" fill-opacity="0.4"/>
<path d="M169.565 81.212C169.77 81.9766 170.556 82.4303 171.32 82.2254C172.085 82.0206 172.539 81.2347 172.334 80.4701C172.129 79.7056 171.343 79.2519 170.579 79.4567C169.814 79.6616 169.36 80.4475 169.565 81.212Z" fill="#043825" fill-opacity="0.4"/>
<path d="M174.286 83.9376C174.491 84.7021 175.277 85.1559 176.041 84.951C176.806 84.7461 177.259 83.9603 177.055 83.1957C176.85 82.4312 176.064 81.9775 175.299 82.1823C174.535 82.3872 174.081 83.1731 174.286 83.9376Z" fill="#043825" fill-opacity="0.4"/>
<path d="M178.993 86.6153C179.198 87.3799 179.984 87.8336 180.748 87.6287C181.513 87.4239 181.966 86.638 181.762 85.8735C181.557 85.1089 180.771 84.6552 180.006 84.8601C179.242 85.0649 178.788 85.8508 178.993 86.6153Z" fill="#043825" fill-opacity="0.4"/>
<path d="M129.86 51.9942C130.065 52.7588 130.851 53.2125 131.615 53.0076C132.38 52.8028 132.834 52.0169 132.629 51.2524C132.424 50.4878 131.638 50.0341 130.873 50.239C130.109 50.4438 129.655 51.2297 129.86 51.9942Z" fill="#043825" fill-opacity="0.4"/>
<path d="M134.583 54.7198C134.788 55.4844 135.573 55.9381 136.338 55.7332C137.103 55.5284 137.556 54.7425 137.351 53.978C137.147 53.2134 136.361 52.7597 135.596 52.9646C134.832 53.1694 134.378 53.9553 134.583 54.7198Z" fill="#043825" fill-opacity="0.4"/>
<path d="M139.303 57.4454C139.508 58.21 140.294 58.6637 141.059 58.4588C141.823 58.254 142.277 57.4681 142.072 56.7035C141.867 55.939 141.081 55.4853 140.317 55.6901C139.552 55.895 139.099 56.6809 139.303 57.4454Z" fill="#043825" fill-opacity="0.4"/>
<path d="M144.024 60.171C144.229 60.9355 145.015 61.3893 145.779 61.1844C146.544 60.9796 146.998 60.1937 146.793 59.4291C146.588 58.6646 145.802 58.2109 145.038 58.4157C144.273 58.6206 143.819 59.4064 144.024 60.171Z" fill="#043825" fill-opacity="0.4"/>
<path d="M148.745 62.8966C148.95 63.6611 149.736 64.1148 150.5 63.91C151.265 63.7051 151.718 62.9193 151.514 62.1547C151.309 61.3902 150.523 60.9365 149.758 61.1413C148.994 61.3462 148.54 62.132 148.745 62.8966Z" fill="#043825" fill-opacity="0.4"/>
<path d="M153.466 65.6231C153.67 66.3877 154.456 66.8414 155.221 66.6365C155.985 66.4317 156.439 65.6458 156.234 64.8813C156.029 64.1167 155.243 63.663 154.479 63.8679C153.714 64.0727 153.261 64.8586 153.466 65.6231Z" fill="#043825" fill-opacity="0.4"/>
<path d="M158.128 68.3136C158.333 69.0781 159.118 69.5318 159.883 69.327C160.647 69.1221 161.101 68.3363 160.896 67.5717C160.691 66.8072 159.906 66.3534 159.141 66.5583C158.377 66.7632 157.923 67.549 158.128 68.3136Z" fill="#043825" fill-opacity="0.4"/>
<path d="M162.848 71.0392C163.053 71.8037 163.839 72.2574 164.604 72.0526C165.368 71.8477 165.822 71.0618 165.617 70.2973C165.412 69.5327 164.626 69.079 163.862 69.2839C163.097 69.4888 162.643 70.2746 162.848 71.0392Z" fill="#043825" fill-opacity="0.4"/>
<path d="M167.569 73.7648C167.774 74.5293 168.56 74.983 169.324 74.7782C170.089 74.5733 170.543 73.7874 170.338 73.0229C170.133 72.2584 169.347 71.8046 168.582 72.0095C167.818 72.2143 167.364 73.0002 167.569 73.7648Z" fill="#043825" fill-opacity="0.4"/>
<path d="M172.29 76.4903C172.495 77.2549 173.28 77.7086 174.045 77.5037C174.81 77.2989 175.263 76.513 175.058 75.7485C174.854 74.9839 174.068 74.5302 173.303 74.7351C172.539 74.9399 172.085 75.7258 172.29 76.4903Z" fill="#043825" fill-opacity="0.4"/>
<path d="M177.01 79.2159C177.215 79.9805 178.001 80.4342 178.766 80.2293C179.53 80.0245 179.984 79.2386 179.779 78.4741C179.574 77.7095 178.788 77.2558 178.024 77.4607C177.259 77.6655 176.806 78.4514 177.01 79.2159Z" fill="#043825" fill-opacity="0.4"/>
<path d="M181.733 81.9425C181.938 82.707 182.724 83.1607 183.488 82.9559C184.253 82.751 184.707 81.9652 184.502 81.2006C184.297 80.4361 183.511 79.9824 182.747 80.1872C181.982 80.3921 181.528 81.1779 181.733 81.9425Z" fill="#043825" fill-opacity="0.4"/>
<path d="M116.28 75.587C116.485 76.3516 117.271 76.8053 118.035 76.6004C118.8 76.3956 119.254 75.6097 119.049 74.8451C118.844 74.0806 118.058 73.6269 117.293 73.8318C116.529 74.0366 116.075 74.8225 116.28 75.587Z" fill="#043825" fill-opacity="0.4"/>
<path d="M120.989 78.2647C121.194 79.0293 121.98 79.483 122.744 79.2782C123.509 79.0733 123.963 78.2874 123.758 77.5229C123.553 76.7583 122.767 76.3046 122.002 76.5095C121.238 76.7143 120.784 77.5002 120.989 78.2647Z" fill="#043825" fill-opacity="0.4"/>
<path d="M163.417 102.761C163.622 103.525 164.407 103.979 165.172 103.774C165.937 103.569 166.39 102.784 166.185 102.019C165.981 101.254 165.195 100.801 164.43 101.006C163.666 101.21 163.212 101.996 163.417 102.761Z" fill="#043825" fill-opacity="0.4"/>
<path d="M168.091 105.5C168.295 106.265 169.081 106.718 169.846 106.514C170.61 106.309 171.064 105.523 170.859 104.758C170.654 103.994 169.868 103.54 169.104 103.745C168.339 103.95 167.886 104.736 168.091 105.5Z" fill="#043825" fill-opacity="0.4"/>
<path d="M113.542 80.2599C113.747 81.0244 114.532 81.4781 115.297 81.2733C116.062 81.0684 116.515 80.2825 116.31 79.518C116.106 78.7535 115.32 78.2997 114.555 78.5046C113.791 78.7095 113.337 79.4953 113.542 80.2599Z" fill="#043825" fill-opacity="0.4"/>
<path d="M165.413 110.208C165.618 110.973 166.404 111.426 167.168 111.222C167.933 111.017 168.386 110.231 168.181 109.466C167.977 108.702 167.191 108.248 166.426 108.453C165.662 108.658 165.208 109.444 165.413 110.208Z" fill="#043825" fill-opacity="0.4"/>
<path d="M119.007 70.8653C119.211 71.6299 119.997 72.0836 120.762 71.8787C121.526 71.6739 121.98 70.888 121.775 70.1235C121.57 69.3589 120.784 68.9052 120.02 69.1101C119.255 69.3149 118.802 70.1008 119.007 70.8653Z" fill="#043825" fill-opacity="0.4"/>
<path d="M123.727 73.5909C123.932 74.3555 124.718 74.8092 125.483 74.6043C126.247 74.3995 126.701 73.6136 126.496 72.8491C126.291 72.0845 125.505 71.6308 124.741 71.8356C123.976 72.0405 123.522 72.8264 123.727 73.5909Z" fill="#043825" fill-opacity="0.4"/>
<path d="M128.434 76.2696C128.639 77.0342 129.425 77.4879 130.19 77.283C130.954 77.0782 131.408 76.2923 131.203 75.5278C130.998 74.7632 130.212 74.3095 129.448 74.5144C128.683 74.7192 128.229 75.5051 128.434 76.2696Z" fill="#043825" fill-opacity="0.4"/>
<path d="M161.423 95.3146C161.627 96.0791 162.413 96.5328 163.178 96.328C163.942 96.1231 164.396 95.3372 164.191 94.5727C163.986 93.8081 163.201 93.3544 162.436 93.5593C161.671 93.7641 161.218 94.55 161.423 95.3146Z" fill="#043825" fill-opacity="0.4"/>
<path d="M166.094 98.0528C166.299 98.8174 167.085 99.2711 167.85 99.0662C168.614 98.8614 169.068 98.0755 168.863 97.311C168.658 96.5464 167.872 96.0927 167.108 96.2976C166.343 96.5024 165.89 97.2883 166.094 98.0528Z" fill="#043825" fill-opacity="0.4"/>
<path d="M170.817 100.778C171.022 101.543 171.808 101.997 172.572 101.792C173.337 101.587 173.791 100.801 173.586 100.037C173.381 99.272 172.595 98.8183 171.831 99.0232C171.066 99.228 170.612 100.014 170.817 100.778Z" fill="#043825" fill-opacity="0.4"/>
<path d="M5.25168 73.5109C5.45654 74.2754 6.24241 74.7291 7.00696 74.5243C7.77151 74.3194 8.22521 73.5335 8.02035 72.769C7.81549 72.0044 7.02964 71.5507 6.26509 71.7556C5.50055 71.9604 5.04682 72.7463 5.25168 73.5109Z" fill="#043825" fill-opacity="0.4"/>
<path d="M9.97238 76.2364C10.1772 77.001 10.9631 77.4547 11.7277 77.2498C12.4922 77.045 12.9459 76.2591 12.741 75.4946C12.5362 74.73 11.7503 74.2763 10.9858 74.4812C10.2212 74.686 9.76752 75.4719 9.97238 76.2364Z" fill="#043825" fill-opacity="0.4"/>
<path d="M14.6813 78.9142C14.8862 79.6787 15.6721 80.1324 16.4366 79.9276C17.2012 79.7227 17.6549 78.9369 17.45 78.1723C17.2452 77.4078 16.4593 76.954 15.6948 77.1589C14.9302 77.3638 14.4765 78.1496 14.6813 78.9142Z" fill="#043825" fill-opacity="0.4"/>
<path d="M19.4021 81.6397C19.6069 82.4043 20.3928 82.858 21.1573 82.6532C21.9219 82.4483 22.3756 81.6624 22.1707 80.8979C21.9659 80.1333 21.18 79.6796 20.4155 79.8845C19.6509 80.0893 19.1972 80.8752 19.4021 81.6397Z" fill="#043825" fill-opacity="0.4"/>
<path d="M24.1228 84.3653C24.3276 85.1299 25.1135 85.5836 25.878 85.3788C26.6426 85.1739 27.0963 84.388 26.8914 83.6235C26.6866 82.8589 25.9007 82.4052 25.1362 82.6101C24.3716 82.8149 23.9179 83.6008 24.1228 84.3653Z" fill="#043825" fill-opacity="0.4"/>
<path d="M28.7966 87.1036C29.0015 87.8682 29.7873 88.3219 30.5518 88.117C31.3164 87.9122 31.7701 87.1263 31.5653 86.3618C31.3604 85.5972 30.5745 85.1435 29.81 85.3484C29.0454 85.5532 28.5917 86.3391 28.7966 87.1036Z" fill="#043825" fill-opacity="0.4"/>
<path d="M33.5173 89.8292C33.7222 90.5937 34.508 91.0475 35.2726 90.8426C36.0371 90.6377 36.4908 89.8519 36.286 89.0873C36.0811 88.3228 35.2952 87.8691 34.5307 88.0739C33.7661 88.2788 33.3124 89.0647 33.5173 89.8292Z" fill="#043825" fill-opacity="0.4"/>
<path d="M38.238 92.5558C38.4429 93.3203 39.2287 93.774 39.9933 93.5692C40.7578 93.3643 41.2115 92.5785 41.0067 91.8139C40.8018 91.0494 40.016 90.5956 39.2514 90.8005C38.4869 91.0054 38.0331 91.7912 38.238 92.5558Z" fill="#043825" fill-opacity="0.4"/>
<path d="M-2.14871 75.4933C-1.94385 76.2578 -1.15798 76.7115 -0.39343 76.5067C0.371118 76.3018 0.824819 75.516 0.619959 74.7514C0.415098 73.9869 -0.370748 73.5331 -1.1353 73.738C-1.89984 73.9429 -2.35357 74.7287 -2.14871 75.4933Z" fill="#043825" fill-opacity="0.4"/>
<path d="M2.52511 78.2315C2.72997 78.9961 3.51582 79.4498 4.28037 79.2449C5.04491 79.0401 5.49864 78.2542 5.29378 77.4897C5.08892 76.7251 4.30305 76.2714 3.5385 76.4763C2.77395 76.6811 2.32025 77.467 2.52511 78.2315Z" fill="#043825" fill-opacity="0.4"/>
<path d="M7.2341 80.9093C7.43896 81.6738 8.22483 82.1276 8.98938 81.9227C9.75393 81.7178 10.2076 80.932 10.0028 80.1674C9.79791 79.4029 9.01206 78.9491 8.24752 79.154C7.48297 79.3589 7.02924 80.1447 7.2341 80.9093Z" fill="#043825" fill-opacity="0.4"/>
<path d="M11.9548 83.6349C12.1597 84.3994 12.9455 84.8531 13.7101 84.6483C14.4746 84.4434 14.9283 83.6575 14.7235 82.893C14.5186 82.1285 13.7328 81.6747 12.9682 81.8796C12.2037 82.0845 11.7499 82.8703 11.9548 83.6349Z" fill="#043825" fill-opacity="0.4"/>
<path d="M16.6755 86.3605C16.8803 87.125 17.6662 87.5787 18.4308 87.3739C19.1953 87.169 19.649 86.3831 19.4442 85.6186C19.2393 84.854 18.4534 84.4003 17.6889 84.6052C16.9243 84.81 16.4706 85.5959 16.6755 86.3605Z" fill="#043825" fill-opacity="0.4"/>
<path d="M21.3962 89.087C21.6011 89.8516 22.3869 90.3053 23.1515 90.1004C23.916 89.8956 24.3697 89.1097 24.1649 88.3451C23.96 87.5806 23.1741 87.1269 22.4096 87.3318C21.645 87.5366 21.1913 88.3225 21.3962 89.087Z" fill="#043825" fill-opacity="0.4"/>
<path d="M26.1189 91.8126C26.3237 92.5771 27.1096 93.0309 27.8741 92.826C28.6387 92.6211 29.0924 91.8353 28.8875 91.0707C28.6827 90.3062 27.8968 89.8525 27.1323 90.0573C26.3677 90.2622 25.914 91.048 26.1189 91.8126Z" fill="#043825" fill-opacity="0.4"/>
<path d="M30.7907 94.5509C30.9956 95.3154 31.7814 95.7692 32.546 95.5643C33.3105 95.3594 33.7643 94.5736 33.5594 93.809C33.3546 93.0445 32.5687 92.5908 31.8041 92.7956C31.0396 93.0005 30.5859 93.7863 30.7907 94.5509Z" fill="#043825" fill-opacity="0.4"/>
<path d="M35.4997 97.2286C35.7046 97.9932 36.4904 98.4469 37.255 98.242C38.0195 98.0372 38.4733 97.2513 38.2684 96.4868C38.0635 95.7222 37.2777 95.2685 36.5131 95.4734C35.7486 95.6782 35.2949 96.4641 35.4997 97.2286Z" fill="#043825" fill-opacity="0.4"/>
<path d="M40.2204 99.9542C40.4253 100.719 41.2112 101.172 41.9757 100.968C42.7403 100.763 43.194 99.9769 42.9891 99.2124C42.7842 98.4478 41.9984 97.9941 41.2338 98.1989C40.4693 98.4038 40.0156 99.1897 40.2204 99.9542Z" fill="#043825" fill-opacity="0.4"/>
<path d="M12.6989 71.5148C12.9038 72.2793 13.6896 72.733 14.4542 72.5282C15.2187 72.3233 15.6725 71.5374 15.4676 70.7729C15.2628 70.0084 14.4769 69.5546 13.7123 69.7595C12.9478 69.9643 12.4941 70.7502 12.6989 71.5148Z" fill="#043825" fill-opacity="0.4"/>
<path d="M17.4196 74.2403C17.6245 75.0049 18.4103 75.4586 19.1749 75.2537C19.9394 75.0489 20.3932 74.263 20.1883 73.4985C19.9835 72.7339 19.1976 72.2802 18.433 72.4851C17.6685 72.6899 17.2148 73.4758 17.4196 74.2403Z" fill="#043825" fill-opacity="0.4"/>
<path d="M22.1267 76.9191C22.3315 77.6836 23.1174 78.1373 23.8819 77.9325C24.6465 77.7276 25.1002 76.9417 24.8953 76.1772C24.6905 75.4126 23.9046 74.9589 23.1401 75.1638C22.3755 75.3686 21.9218 76.1545 22.1267 76.9191Z" fill="#043825" fill-opacity="0.4"/>
<path d="M26.8005 79.6573C27.0054 80.4219 27.7912 80.8756 28.5558 80.6707C29.3203 80.4659 29.774 79.68 29.5692 78.9155C29.3643 78.1509 28.5784 77.6972 27.8139 77.9021C27.0493 78.1069 26.5956 78.8928 26.8005 79.6573Z" fill="#043825" fill-opacity="0.4"/>
<path d="M31.5212 82.3829C31.7261 83.1475 32.5119 83.6012 33.2765 83.3963C34.041 83.1915 34.4947 82.4056 34.2899 81.641C34.085 80.8765 33.2991 80.4228 32.5346 80.6276C31.77 80.8325 31.3163 81.6184 31.5212 82.3829Z" fill="#043825" fill-opacity="0.4"/>
<path d="M36.2419 85.1085C36.4468 85.873 37.2326 86.3268 37.9972 86.1219C38.7617 85.917 39.2154 85.1312 39.0106 84.3666C38.8057 83.6021 38.0199 83.1484 37.2553 83.3532C36.4908 83.5581 36.0371 84.3439 36.2419 85.1085Z" fill="#043825" fill-opacity="0.4"/>
<path d="M27.5446 67.5372C27.7495 68.3018 28.5354 68.7555 29.2999 68.5506C30.0644 68.3458 30.5182 67.5599 30.3133 66.7954C30.1085 66.0308 29.3226 65.5771 28.558 65.7819C27.7935 65.9868 27.3398 66.7727 27.5446 67.5372Z" fill="#043825" fill-opacity="0.4"/>
<path d="M32.2653 70.2628C32.4702 71.0273 33.2561 71.4811 34.0206 71.2762C34.7852 71.0713 35.2389 70.2855 35.034 69.5209C34.8292 68.7564 34.0433 68.3027 33.2788 68.5075C32.5142 68.7124 32.0605 69.4982 32.2653 70.2628Z" fill="#043825" fill-opacity="0.4"/>
<path d="M20.1443 69.5196C20.3491 70.2842 21.135 70.7379 21.8995 70.5331C22.6641 70.3282 23.1178 69.5423 22.9129 68.7778C22.7081 68.0132 21.9222 67.5595 21.1576 67.7644C20.3931 67.9692 19.9394 68.7551 20.1443 69.5196Z" fill="#043825" fill-opacity="0.4"/>
<path d="M24.8181 72.2579C25.0229 73.0225 25.8088 73.4762 26.5733 73.2713C27.3379 73.0665 27.7916 72.2806 27.5868 71.516C27.3819 70.7515 26.596 70.2978 25.8315 70.5026C25.0669 70.7075 24.6132 71.4934 24.8181 72.2579Z" fill="#043825" fill-opacity="0.4"/>
<path d="M29.5271 74.9357C29.7319 75.7002 30.5178 76.1539 31.2823 75.9491C32.0469 75.7442 32.5006 74.9583 32.2957 74.1938C32.0909 73.4292 31.305 72.9755 30.5405 73.1804C29.7759 73.3852 29.3222 74.1711 29.5271 74.9357Z" fill="#043825" fill-opacity="0.4"/>
<path d="M34.2478 77.6622C34.4526 78.4268 35.2385 78.8805 36.0031 78.6756C36.7676 78.4707 37.2213 77.6849 37.0164 76.9203C36.8116 76.1558 36.0257 75.7021 35.2612 75.9069C34.4966 76.1118 34.0429 76.8977 34.2478 77.6622Z" fill="#043825" fill-opacity="0.4"/>
<path d="M-2.8909 87.6134C-2.68604 88.3779 -1.9002 88.8316 -1.13565 88.6268C-0.371102 88.4219 0.0826273 87.6361 -0.122233 86.8715C-0.327093 86.107 -1.11296 85.6533 -1.87751 85.8581C-2.64206 86.063 -3.09576 86.8488 -2.8909 87.6134Z" fill="#043825" fill-opacity="0.4"/>
<path d="M1.8298 90.339C2.03466 91.1035 2.82054 91.5572 3.58509 91.3524C4.34963 91.1475 4.80333 90.3617 4.59847 89.5971C4.39361 88.8326 3.60777 88.3788 2.84322 88.5837C2.07867 88.7886 1.62494 89.5744 1.8298 90.339Z" fill="#043825" fill-opacity="0.4"/>
<path d="M6.50363 93.0772C6.70849 93.8418 7.49433 94.2955 8.25888 94.0907C9.02343 93.8858 9.47716 93.0999 9.2723 92.3354C9.06744 91.5708 8.28157 91.1171 7.51702 91.322C6.75247 91.5268 6.29877 92.3127 6.50363 93.0772Z" fill="#043825" fill-opacity="0.4"/>
<path d="M11.2243 95.8028C11.4292 96.5674 12.2151 97.0211 12.9796 96.8162C13.7442 96.6114 14.1979 95.8255 13.993 95.061C13.7881 94.2964 13.0023 93.8427 12.2378 94.0476C11.4732 94.2524 11.0195 95.0383 11.2243 95.8028Z" fill="#043825" fill-opacity="0.4"/>
<path d="M15.945 98.5284C16.1499 99.293 16.9358 99.7467 17.7003 99.5418C18.4649 99.337 18.9186 98.5511 18.7137 97.7866C18.5088 97.022 17.723 96.5683 16.9585 96.7731C16.1939 96.978 15.7402 97.7639 15.945 98.5284Z" fill="#043825" fill-opacity="0.4"/>
<path d="M20.654 101.206C20.8589 101.971 21.6447 102.424 22.4093 102.22C23.1738 102.015 23.6275 101.229 23.4227 100.464C23.2178 99.6997 22.432 99.246 21.6674 99.4509C20.9029 99.6558 20.4491 100.442 20.654 101.206Z" fill="#043825" fill-opacity="0.4"/>
<path d="M25.3747 103.933C25.5796 104.697 26.3654 105.151 27.13 104.946C27.8945 104.741 28.3483 103.955 28.1434 103.191C27.9385 102.426 27.1527 101.973 26.3881 102.177C25.6236 102.382 25.1699 103.168 25.3747 103.933Z" fill="#043825" fill-opacity="0.4"/>
<path d="M30.0954 106.657C30.3003 107.422 31.0861 107.876 31.8507 107.671C32.6152 107.466 33.069 106.68 32.8641 105.915C32.6592 105.151 31.8734 104.697 31.1088 104.902C30.3443 105.107 29.8906 105.893 30.0954 106.657Z" fill="#043825" fill-opacity="0.4"/>
<path d="M34.7693 109.396C34.9741 110.16 35.76 110.614 36.5245 110.409C37.2891 110.204 37.7428 109.418 37.5379 108.654C37.3331 107.889 36.5472 107.435 35.7826 107.64C35.0181 107.845 34.5644 108.631 34.7693 109.396Z" fill="#043825" fill-opacity="0.4"/>
<path d="M-0.894807 95.0597C-0.689947 95.8242 0.0958954 96.2779 0.860444 96.0731C1.62499 95.8682 2.07872 95.0824 1.87386 94.3178C1.669 93.5533 0.883129 93.0995 0.118581 93.3044C-0.645967 93.5093 -1.09967 94.2951 -0.894807 95.0597Z" fill="#043825" fill-opacity="0.4"/>
<path d="M3.8259 97.7853C4.03076 98.5498 4.81663 99.0035 5.58118 98.7987C6.34572 98.5938 6.79942 97.8079 6.59456 97.0434C6.3897 96.2788 5.60386 95.8251 4.83931 96.03C4.07477 96.2348 3.62104 97.0207 3.8259 97.7853Z" fill="#043825" fill-opacity="0.4"/>
<path d="M8.49777 100.524C8.70263 101.288 9.48848 101.742 10.253 101.537C11.0176 101.332 11.4713 100.546 11.2664 99.7817C11.0616 99.0171 10.2757 98.5634 9.51116 98.7683C8.74661 98.9731 8.29291 99.759 8.49777 100.524Z" fill="#043825" fill-opacity="0.4"/>
<path d="M13.2068 103.202C13.4116 103.967 14.1975 104.421 14.962 104.216C15.7266 104.011 16.1803 103.225 15.9754 102.46C15.7706 101.696 14.9847 101.242 14.2202 101.447C13.4556 101.652 13.0019 102.438 13.2068 103.202Z" fill="#043825" fill-opacity="0.4"/>
<path d="M17.9275 105.927C18.1323 106.691 18.9182 107.145 19.6827 106.94C20.4473 106.735 20.901 105.95 20.6961 105.185C20.4913 104.42 19.7054 103.967 18.9409 104.172C18.1763 104.376 17.7226 105.162 17.9275 105.927Z" fill="#043825" fill-opacity="0.4"/>
<path d="M22.6501 108.653C22.8549 109.418 23.6408 109.872 24.4054 109.667C25.1699 109.462 25.6236 108.676 25.4188 107.912C25.2139 107.147 24.4281 106.693 23.6635 106.898C22.899 107.103 22.4452 107.889 22.6501 108.653Z" fill="#043825" fill-opacity="0.4"/>
<path d="M27.3708 111.379C27.5757 112.144 28.3615 112.597 29.1261 112.392C29.8906 112.188 30.3443 111.402 30.1395 110.637C29.9346 109.873 29.1488 109.419 28.3842 109.624C27.6197 109.829 27.166 110.614 27.3708 111.379Z" fill="#043825" fill-opacity="0.4"/>
<path d="M32.0915 114.105C32.2964 114.869 33.0822 115.323 33.8468 115.118C34.6113 114.913 35.065 114.127 34.8602 113.363C34.6553 112.598 33.8695 112.144 33.1049 112.349C32.3404 112.554 31.8867 113.34 32.0915 114.105Z" fill="#043825" fill-opacity="0.4"/>
<path d="M-0.164334 82.8917C0.0405256 83.6563 0.826397 84.11 1.59095 83.9051C2.35549 83.7003 2.80919 82.9144 2.60433 82.1499C2.39947 81.3853 1.61363 80.9316 0.849079 81.1364C0.0845307 81.3413 -0.369195 82.1272 -0.164334 82.8917Z" fill="#043825" fill-opacity="0.4"/>
<path d="M4.50754 85.631C4.7124 86.3955 5.49824 86.8492 6.26279 86.6444C7.02734 86.4395 7.48106 85.6536 7.2762 84.8891C7.07134 84.1245 6.28547 83.6708 5.52092 83.8757C4.75638 84.0806 4.30268 84.8664 4.50754 85.631Z" fill="#043825" fill-opacity="0.4"/>
<path d="M9.22824 88.3565C9.4331 89.1211 10.219 89.5748 10.9835 89.37C11.7481 89.1651 12.2018 88.3792 11.9969 87.6147C11.792 86.8501 11.0062 86.3964 10.2417 86.6013C9.47711 86.8061 9.02338 87.592 9.22824 88.3565Z" fill="#043825" fill-opacity="0.4"/>
<path d="M13.9509 91.0821C14.1558 91.8467 14.9416 92.3004 15.7062 92.0955C16.4707 91.8907 16.9244 91.1048 16.7196 90.3403C16.5147 89.5757 15.7289 89.122 14.9643 89.3269C14.1998 89.5317 13.746 90.3176 13.9509 91.0821Z" fill="#043825" fill-opacity="0.4"/>
<path d="M18.6716 93.8067C18.8764 94.5713 19.6623 95.025 20.4268 94.8201C21.1914 94.6153 21.6451 93.8294 21.4403 93.0649C21.2354 92.3003 20.4495 91.8466 19.685 92.0515C18.9204 92.2563 18.4667 93.0422 18.6716 93.8067Z" fill="#043825" fill-opacity="0.4"/>
<path d="M23.3923 96.5333C23.5972 97.2979 24.383 97.7516 25.1476 97.5467C25.9121 97.3419 26.3658 96.556 26.161 95.7915C25.9561 95.0269 25.1702 94.5732 24.4057 94.778C23.6411 94.9829 23.1874 95.7688 23.3923 96.5333Z" fill="#043825" fill-opacity="0.4"/>
<path d="M28.1013 99.211C28.3061 99.9756 29.092 100.429 29.8565 100.224C30.6211 100.02 31.0748 99.2337 30.87 98.4692C30.6651 97.7046 29.8792 97.2509 29.1147 97.4558C28.3501 97.6606 27.8964 98.4465 28.1013 99.211Z" fill="#043825" fill-opacity="0.4"/>
<path d="M32.7732 101.949C32.978 102.714 33.7639 103.168 34.5284 102.963C35.293 102.758 35.7467 101.972 35.5418 101.207C35.337 100.443 34.5511 99.9892 33.7865 100.194C33.022 100.399 32.5683 101.185 32.7732 101.949Z" fill="#043825" fill-opacity="0.4"/>
<path d="M37.4958 104.676C37.7007 105.44 38.4865 105.894 39.2511 105.689C40.0156 105.484 40.4693 104.699 40.2645 103.934C40.0596 103.169 39.2738 102.716 38.5092 102.921C37.7447 103.125 37.291 103.911 37.4958 104.676Z" fill="#043825" fill-opacity="0.4"/>
<path d="M9.79855 120.078C10.0034 120.843 10.7893 121.296 11.5538 121.092C12.3184 120.887 12.7721 120.101 12.5672 119.336C12.3624 118.572 11.5765 118.118 10.812 118.323C10.0474 118.528 9.59369 119.314 9.79855 120.078Z" fill="#043825" fill-opacity="0.4"/>
<path d="M14.4724 122.817C14.6772 123.581 15.4631 124.035 16.2276 123.83C16.9922 123.625 17.4459 122.839 17.241 122.075C17.0362 121.31 16.2503 120.856 15.4858 121.061C14.7212 121.266 14.2675 122.052 14.4724 122.817Z" fill="#043825" fill-opacity="0.4"/>
<path d="M19.1794 125.494C19.3843 126.259 20.1701 126.712 20.9347 126.508C21.6992 126.303 22.1529 125.517 21.9481 124.752C21.7432 123.988 20.9574 123.534 20.1928 123.739C19.4283 123.944 18.9746 124.73 19.1794 125.494Z" fill="#043825" fill-opacity="0.4"/>
<path d="M-1.63895 107.18C-1.43409 107.944 -0.648245 108.398 0.116303 108.193C0.880851 107.988 1.33458 107.202 1.12972 106.438C0.92486 105.673 0.138989 105.22 -0.62556 105.425C-1.39011 105.629 -1.84381 106.415 -1.63895 107.18Z" fill="#043825" fill-opacity="0.4"/>
<path d="M3.08176 109.905C3.28662 110.67 4.07246 111.124 4.83701 110.919C5.60156 110.714 6.05529 109.928 5.85043 109.164C5.64557 108.399 4.85969 107.945 4.09514 108.15C3.3306 108.355 2.8769 109.141 3.08176 109.905Z" fill="#043825" fill-opacity="0.4"/>
<path d="M7.80246 112.631C8.00732 113.396 8.79319 113.849 9.55774 113.644C10.3223 113.439 10.776 112.654 10.5711 111.889C10.3663 111.125 9.58042 110.671 8.81588 110.876C8.05133 111.081 7.5976 111.866 7.80246 112.631Z" fill="#043825" fill-opacity="0.4"/>
<path d="M12.4763 115.369C12.6811 116.134 13.467 116.588 14.2315 116.383C14.9961 116.178 15.4498 115.392 15.245 114.627C15.0401 113.863 14.2542 113.409 13.4897 113.614C12.7251 113.819 12.2714 114.605 12.4763 115.369Z" fill="#043825" fill-opacity="0.4"/>
<path d="M17.197 118.096C17.4018 118.86 18.1877 119.314 18.9523 119.109C19.7168 118.904 20.1705 118.118 19.9657 117.354C19.7608 116.589 18.975 116.136 18.2104 116.341C17.4459 116.545 16.9921 117.331 17.197 118.096Z" fill="#043825" fill-opacity="0.4"/>
<path d="M21.9196 120.82C22.1245 121.585 22.9104 122.039 23.6749 121.834C24.4395 121.629 24.8932 120.843 24.6883 120.079C24.4835 119.314 23.6976 118.86 22.9331 119.065C22.1685 119.27 21.7148 120.056 21.9196 120.82Z" fill="#043825" fill-opacity="0.4"/>
<path d="M26.6266 123.499C26.8315 124.264 27.6174 124.717 28.3819 124.513C29.1465 124.308 29.6002 123.522 29.3953 122.757C29.1905 121.993 28.4046 121.539 27.6401 121.744C26.8755 121.949 26.4218 122.735 26.6266 123.499Z" fill="#043825" fill-opacity="0.4"/>
<path d="M1.09934 102.507C1.3042 103.271 2.09004 103.725 2.85459 103.52C3.61914 103.315 4.07287 102.53 3.86801 101.765C3.66315 101.001 2.87727 100.547 2.11272 100.752C1.34817 100.957 0.894477 101.742 1.09934 102.507Z" fill="#043825" fill-opacity="0.4"/>
<path d="M5.80832 105.185C6.01318 105.949 6.79905 106.403 7.5636 106.198C8.32815 105.993 8.78185 105.207 8.57699 104.443C8.37213 103.678 7.58628 103.225 6.82174 103.429C6.05719 103.634 5.60346 104.42 5.80832 105.185Z" fill="#043825" fill-opacity="0.4"/>
<path d="M10.4821 107.923C10.687 108.688 11.4729 109.141 12.2374 108.936C13.0019 108.732 13.4557 107.946 13.2508 107.181C13.046 106.417 12.2601 105.963 11.4955 106.168C10.731 106.373 10.2773 107.158 10.4821 107.923Z" fill="#043825" fill-opacity="0.4"/>
<path d="M15.2028 110.649C15.4077 111.413 16.1936 111.867 16.9581 111.662C17.7227 111.457 18.1764 110.671 17.9715 109.907C17.7667 109.142 16.9808 108.688 16.2163 108.893C15.4517 109.098 14.998 109.884 15.2028 110.649Z" fill="#043825" fill-opacity="0.4"/>
<path d="M19.9236 113.374C20.1284 114.139 20.9143 114.592 21.6788 114.388C22.4434 114.183 22.8971 113.397 22.6922 112.632C22.4874 111.868 21.7015 111.414 20.937 111.619C20.1724 111.824 19.7187 112.61 19.9236 113.374Z" fill="#043825" fill-opacity="0.4"/>
<path d="M24.6442 116.1C24.8491 116.864 25.635 117.318 26.3995 117.113C27.1641 116.908 27.6178 116.122 27.4129 115.358C27.2081 114.593 26.4222 114.14 25.6576 114.344C24.8931 114.549 24.4394 115.335 24.6442 116.1Z" fill="#043825" fill-opacity="0.4"/>
<path d="M29.365 118.826C29.5698 119.591 30.3557 120.045 31.1202 119.84C31.8848 119.635 32.3385 118.849 32.1336 118.084C31.9288 117.32 31.1429 116.866 30.3783 117.071C29.6138 117.276 29.1601 118.062 29.365 118.826Z" fill="#043825" fill-opacity="0.4"/>
<path d="M93.1394 119.444C93.3442 120.208 94.1301 120.662 94.8946 120.457C95.6592 120.252 96.1129 119.466 95.908 118.702C95.7032 117.937 94.9173 117.483 94.1528 117.688C93.3882 117.893 92.9345 118.679 93.1394 119.444Z" fill="#043825" fill-opacity="0.4"/>
<path d="M97.8601 122.169C98.0649 122.934 98.8508 123.387 99.6154 123.183C100.38 122.978 100.834 122.192 100.629 121.427C100.424 120.663 99.638 120.209 98.8735 120.414C98.1089 120.619 97.6552 121.405 97.8601 122.169Z" fill="#043825" fill-opacity="0.4"/>
<path d="M85.739 121.426C85.9438 122.191 86.7297 122.644 87.4942 122.439C88.2588 122.235 88.7125 121.449 88.5076 120.684C88.3028 119.92 87.5169 119.466 86.7524 119.671C85.9878 119.876 85.5341 120.661 85.739 121.426Z" fill="#043825" fill-opacity="0.4"/>
<path d="M90.4128 124.165C90.6177 124.93 91.4035 125.384 92.1681 125.179C92.9326 124.974 93.3863 124.188 93.1815 123.423C92.9766 122.659 92.1907 122.205 91.4262 122.41C90.6617 122.615 90.2079 123.401 90.4128 124.165Z" fill="#043825" fill-opacity="0.4"/>
<path d="M70.8464 125.417C71.0513 126.182 71.8371 126.635 72.6017 126.431C73.3662 126.226 73.8199 125.44 73.6151 124.675C73.4102 123.911 72.6244 123.457 71.8598 123.662C71.0953 123.867 70.6415 124.653 70.8464 125.417Z" fill="#043825" fill-opacity="0.4"/>
<path d="M78.2936 123.422C78.4985 124.187 79.2844 124.64 80.0489 124.436C80.8135 124.231 81.2672 123.445 81.0623 122.68C80.8575 121.916 80.0716 121.462 79.3071 121.667C78.5425 121.872 78.0888 122.658 78.2936 123.422Z" fill="#043825" fill-opacity="0.4"/>
<path d="M49.9343 61.6939C50.1392 62.4585 50.925 62.9122 51.6896 62.7073C52.4541 62.5025 52.9078 61.7166 52.703 60.9521C52.4981 60.1875 51.7123 59.7338 50.9477 59.9387C50.1832 60.1435 49.7294 60.9294 49.9343 61.6939Z" fill="#4FBFA3" fill-opacity="0.3"/>
<path d="M42.5359 63.6764C42.7407 64.4409 43.5266 64.8946 44.2911 64.6898C45.0557 64.4849 45.5094 63.6991 45.3045 62.9345C45.0997 62.17 44.3138 61.7162 43.5493 61.9211C42.7847 62.126 42.331 62.9118 42.5359 63.6764Z" fill="#4FBFA3" fill-opacity="0.3"/>
<path d="M47.2566 66.4029C47.4614 67.1675 48.2473 67.6212 49.0118 67.4163C49.7764 67.2115 50.2301 66.4256 50.0252 65.6611C49.8204 64.8965 49.0345 64.4428 48.27 64.6477C47.5054 64.8525 47.0517 65.6384 47.2566 66.4029Z" fill="#4FBFA3" fill-opacity="0.3"/>
<path d="M51.9304 69.1412C52.1352 69.9058 52.9211 70.3595 53.6857 70.1546C54.4502 69.9497 54.9039 69.1639 54.6991 68.3993C54.4942 67.6348 53.7084 67.1811 52.9438 67.3859C52.1793 67.5908 51.7255 68.3767 51.9304 69.1412Z" fill="#4FBFA3" fill-opacity="0.3"/>
<path d="M29.6374 75.1139C29.8423 75.8784 30.6282 76.3321 31.3927 76.1273C32.1572 75.9224 32.6109 75.1366 32.4061 74.372C32.2012 73.6075 31.4154 73.1537 30.6508 73.3586C29.8863 73.5635 29.4326 74.3493 29.6374 75.1139Z" fill="#4FBFA3" fill-opacity="0.3"/>
<path d="M34.3581 77.8404C34.563 78.605 35.3488 79.0587 36.1134 78.8538C36.8779 78.649 37.3317 77.8631 37.1268 77.0986C36.9219 76.334 36.1361 75.8803 35.3715 76.0852C34.607 76.29 34.1532 77.0759 34.3581 77.8404Z" fill="#4FBFA3" fill-opacity="0.3"/>
<path d="M39.0788 80.566C39.2837 81.3306 40.0695 81.7843 40.8341 81.5794C41.5986 81.3746 42.0524 80.5887 41.8475 79.8242C41.6426 79.0596 40.8568 78.6059 40.0922 78.8108C39.3277 79.0156 38.874 79.8015 39.0788 80.566Z" fill="#4FBFA3" fill-opacity="0.3"/>
<path d="M43.7878 83.2438C43.9927 84.0083 44.7785 84.462 45.5431 84.2572C46.3076 84.0523 46.7613 83.2664 46.5565 82.5019C46.3516 81.7373 45.5657 81.2836 44.8012 81.4885C44.0367 81.6933 43.5829 82.4792 43.7878 83.2438Z" fill="#4FBFA3" fill-opacity="0.3"/>
<path d="M48.5085 85.9694C48.7134 86.7339 49.4992 87.1876 50.2638 86.9827C51.0283 86.7779 51.482 85.992 51.2772 85.2275C51.0723 84.4629 50.2865 84.0092 49.5219 84.2141C48.7574 84.4189 48.3037 85.2048 48.5085 85.9694Z" fill="#4FBFA3" fill-opacity="0.3"/>
<path d="M26.9597 79.8229C27.1645 80.5874 27.9504 81.0411 28.7149 80.8363C29.4795 80.6314 29.9332 79.8455 29.7284 79.081C29.5235 78.3164 28.7376 77.8627 27.9731 78.0676C27.2085 78.2725 26.7548 79.0583 26.9597 79.8229Z" fill="#4FBFA3" fill-opacity="0.3"/>
<path d="M31.6316 82.5611C31.8364 83.3257 32.6223 83.7794 33.3868 83.5745C34.1514 83.3697 34.6051 82.5838 34.4002 81.8193C34.1954 81.0547 33.4095 80.601 32.645 80.8059C31.8804 81.0107 31.4267 81.7966 31.6316 82.5611Z" fill="#4FBFA3" fill-opacity="0.3"/>
<path d="M41.0613 87.9645C41.2661 88.729 42.052 89.1827 42.8165 88.9779C43.5811 88.773 44.0348 87.9872 43.8299 87.2226C43.6251 86.4581 42.8392 86.0043 42.0746 86.2092C41.3101 86.4141 40.8564 87.1999 41.0613 87.9645Z" fill="#4FBFA3" fill-opacity="0.3"/>
<path d="M45.782 90.69C45.9868 91.4546 46.7727 91.9083 47.5372 91.7034C48.3017 91.4986 48.7555 90.7127 48.5506 89.9482C48.3458 89.1836 47.5599 88.7299 46.7953 88.9348C46.0308 89.1396 45.5771 89.9255 45.782 90.69Z" fill="#4FBFA3" fill-opacity="0.3"/>
<path d="M32.362 70.3932C32.5669 71.1577 33.3527 71.6114 34.1173 71.4066C34.8818 71.2017 35.3356 70.4159 35.1307 69.6513C34.9258 68.8868 34.14 68.433 33.3754 68.6379C32.6109 68.8428 32.1571 69.6286 32.362 70.3932Z" fill="#4FBFA3" fill-opacity="0.3"/>
<path d="M37.0847 73.1188C37.2895 73.8833 38.0754 74.337 38.8399 74.1322C39.6045 73.9273 40.0582 73.1414 39.8534 72.3769C39.6485 71.6123 38.8626 71.1586 38.0981 71.3635C37.3335 71.5683 36.8798 72.3542 37.0847 73.1188Z" fill="#4FBFA3" fill-opacity="0.3"/>
<path d="M41.8054 75.8443C42.0102 76.6089 42.7961 77.0626 43.5606 76.8577C44.3252 76.6529 44.7789 75.867 44.5741 75.1025C44.3692 74.3379 43.5833 73.8842 42.8188 74.0891C42.0542 74.2939 41.6005 75.0798 41.8054 75.8443Z" fill="#4FBFA3" fill-opacity="0.3"/>
<path d="M46.5261 78.5699C46.731 79.3345 47.5168 79.7882 48.2814 79.5833C49.0459 79.3785 49.4996 78.5926 49.2948 77.8281C49.0899 77.0635 48.3041 76.6098 47.5395 76.8147C46.775 77.0195 46.3212 77.8054 46.5261 78.5699Z" fill="#4FBFA3" fill-opacity="0.3"/>
<path d="M51.2351 81.2486C51.4399 82.0132 52.2258 82.4669 52.9904 82.262C53.7549 82.0572 54.2086 81.2713 54.0037 80.5068C53.7989 79.7422 53.013 79.2885 52.2485 79.4934C51.4839 79.6982 51.0302 80.4841 51.2351 81.2486Z" fill="#4FBFA3" fill-opacity="0.3"/>
<path d="M35.0886 65.6725C35.2935 66.437 36.0793 66.8907 36.8438 66.6859C37.6084 66.481 38.0621 65.6951 37.8573 64.9306C37.6524 64.1661 36.8665 63.7123 36.102 63.9172C35.3374 64.1221 34.8837 64.9079 35.0886 65.6725Z" fill="#4FBFA3" fill-opacity="0.3"/>
<path d="M39.8093 68.398C40.0142 69.1626 40.8 69.6163 41.5645 69.4115C42.3291 69.2066 42.7828 68.4207 42.578 67.6562C42.3731 66.8916 41.5872 66.4379 40.8227 66.6428C40.0581 66.8476 39.6044 67.6335 39.8093 68.398Z" fill="#4FBFA3" fill-opacity="0.3"/>
<path d="M44.53 71.1236C44.7349 71.8882 45.5207 72.3419 46.2853 72.137C47.0498 71.9322 47.5035 71.1463 47.2987 70.3818C47.0938 69.6172 46.308 69.1635 45.5434 69.3684C44.7789 69.5732 44.3251 70.3591 44.53 71.1236Z" fill="#4FBFA3" fill-opacity="0.3"/>
<path d="M49.2527 73.8492C49.4575 74.6138 50.2434 75.0675 51.0079 74.8626C51.7725 74.6578 52.2262 73.8719 52.0213 73.1074C51.8165 72.3428 51.0306 71.8891 50.2661 72.0939C49.5015 72.2988 49.0478 73.0847 49.2527 73.8492Z" fill="#4FBFA3" fill-opacity="0.3"/>
<path d="M53.9245 76.5875C54.1294 77.3521 54.9153 77.8058 55.6798 77.6009C56.4444 77.3961 56.8981 76.6102 56.6932 75.8457C56.4883 75.0811 55.7025 74.6274 54.9379 74.8322C54.1734 75.0371 53.7197 75.823 53.9245 76.5875Z" fill="#4FBFA3" fill-opacity="0.3"/>
<path d="M24.2331 84.5436C24.438 85.3081 25.2239 85.7618 25.9884 85.557C26.753 85.3521 27.2067 84.5663 27.0018 83.8017C26.7969 83.0372 26.0111 82.5834 25.2465 82.7883C24.482 82.9931 24.0283 83.779 24.2331 84.5436Z" fill="#4FBFA3" fill-opacity="0.3"/>
<path d="M43.0573 95.4117C43.2622 96.1763 44.048 96.63 44.8126 96.4251C45.5771 96.2203 46.0309 95.4344 45.826 94.6699C45.6211 93.9053 44.8353 93.4516 44.0707 93.6565C43.3062 93.8613 42.8525 94.6472 43.0573 95.4117Z" fill="#4FBFA3" fill-opacity="0.3"/>
<path d="M126.999 52.9699C127.204 53.7345 127.989 54.1882 128.754 53.9834C129.519 53.7785 129.972 52.9926 129.767 52.2281C129.563 51.4635 128.777 51.0098 128.012 51.2147C127.248 51.4195 126.794 52.2054 126.999 52.9699Z" fill="#4FBFA3" fill-opacity="0.3"/>
<path d="M119.551 54.9651C119.756 55.7296 120.542 56.1833 121.307 55.9785C122.071 55.7736 122.525 54.9877 122.32 54.2232C122.115 53.4587 121.329 53.0049 120.565 53.2098C119.8 53.4147 119.347 54.2005 119.551 54.9651Z" fill="#4FBFA3" fill-opacity="0.3"/>
<path d="M124.272 57.6906C124.477 58.4552 125.263 58.9089 126.027 58.7041C126.792 58.4992 127.246 57.7133 127.041 56.9488C126.836 56.1842 126.05 55.7305 125.286 55.9354C124.521 56.1402 124.067 56.9261 124.272 57.6906Z" fill="#4FBFA3" fill-opacity="0.3"/>
<path d="M128.995 60.4162C129.2 61.1808 129.986 61.6345 130.75 61.4296C131.515 61.2248 131.968 60.4389 131.764 59.6744C131.559 58.9098 130.773 58.4561 130.008 58.661C129.244 58.8658 128.79 59.6517 128.995 60.4162Z" fill="#4FBFA3" fill-opacity="0.3"/>
<path d="M106.702 66.3899C106.907 67.1544 107.693 67.6081 108.457 67.4033C109.222 67.1984 109.675 66.4126 109.471 65.648C109.266 64.8835 108.48 64.4297 107.715 64.6346C106.951 64.8395 106.497 65.6253 106.702 66.3899Z" fill="#4FBFA3" fill-opacity="0.3"/>
<path d="M111.409 69.0676C111.614 69.8322 112.4 70.2859 113.164 70.081C113.929 69.8761 114.382 69.0903 114.178 68.3257C113.973 67.5612 113.187 67.1075 112.422 67.3123C111.658 67.5172 111.204 68.3031 111.409 69.0676Z" fill="#4FBFA3" fill-opacity="0.3"/>
<path d="M116.083 71.8059C116.288 72.5704 117.073 73.0241 117.838 72.8193C118.603 72.6144 119.056 71.8286 118.851 71.064C118.647 70.2995 117.861 69.8458 117.096 70.0506C116.332 70.2555 115.878 71.0413 116.083 71.8059Z" fill="#4FBFA3" fill-opacity="0.3"/>
<path d="M120.803 74.5315C121.008 75.296 121.794 75.7497 122.559 75.5449C123.323 75.34 123.777 74.5542 123.572 73.7896C123.367 73.0251 122.581 72.5713 121.817 72.7762C121.052 72.9811 120.599 73.7669 120.803 74.5315Z" fill="#4FBFA3" fill-opacity="0.3"/>
<path d="M125.526 77.258C125.731 78.0226 126.517 78.4763 127.281 78.2714C128.046 78.0666 128.5 77.2807 128.295 76.5162C128.09 75.7516 127.304 75.2979 126.539 75.5028C125.775 75.7076 125.321 76.4935 125.526 77.258Z" fill="#4FBFA3" fill-opacity="0.3"/>
<path d="M103.964 71.0627C104.168 71.8273 104.954 72.281 105.719 72.0761C106.483 71.8713 106.937 71.0854 106.732 70.3209C106.527 69.5563 105.742 69.1026 104.977 69.3075C104.212 69.5123 103.759 70.2982 103.964 71.0627Z" fill="#4FBFA3" fill-opacity="0.3"/>
<path d="M108.684 73.7883C108.889 74.5529 109.675 75.0066 110.44 74.8017C111.204 74.5968 111.658 73.811 111.453 73.0464C111.248 72.2819 110.462 71.8282 109.698 72.033C108.933 72.2379 108.479 73.0238 108.684 73.7883Z" fill="#4FBFA3" fill-opacity="0.3"/>
<path d="M118.079 79.2531C118.284 80.0177 119.07 80.4714 119.834 80.2665C120.599 80.0617 121.052 79.2758 120.847 78.5113C120.643 77.7467 119.857 77.293 119.092 77.4979C118.328 77.7027 117.874 78.4886 118.079 79.2531Z" fill="#4FBFA3" fill-opacity="0.3"/>
<path d="M122.8 81.9787C123.004 82.7433 123.79 83.197 124.555 82.9921C125.319 82.7873 125.773 82.0014 125.568 81.2369C125.363 80.4723 124.577 80.0186 123.813 80.2235C123.048 80.4283 122.595 81.2142 122.8 81.9787Z" fill="#4FBFA3" fill-opacity="0.3"/>
<path d="M109.426 61.6692C109.631 62.4337 110.417 62.8874 111.182 62.6826C111.946 62.4777 112.4 61.6919 112.195 60.9273C111.99 60.1628 111.204 59.709 110.44 59.9139C109.675 60.1188 109.222 60.9046 109.426 61.6692Z" fill="#4FBFA3" fill-opacity="0.3"/>
<path d="M114.1 64.4074C114.305 65.172 115.091 65.6257 115.856 65.4208C116.62 65.216 117.074 64.4301 116.869 63.6656C116.664 62.901 115.878 62.4473 115.114 62.6522C114.349 62.857 113.895 63.6429 114.1 64.4074Z" fill="#4FBFA3" fill-opacity="0.3"/>
<path d="M118.809 67.0852C119.014 67.8497 119.8 68.3034 120.565 68.0986C121.329 67.8937 121.783 67.1079 121.578 66.3433C121.373 65.5788 120.587 65.1251 119.823 65.3299C119.058 65.5348 118.604 66.3206 118.809 67.0852Z" fill="#4FBFA3" fill-opacity="0.3"/>
<path d="M123.53 69.8108C123.735 70.5753 124.521 71.029 125.285 70.8242C126.05 70.6193 126.504 69.8335 126.299 69.0689C126.094 68.3044 125.308 67.8506 124.543 68.0555C123.779 68.2604 123.325 69.0462 123.53 69.8108Z" fill="#4FBFA3" fill-opacity="0.3"/>
<path d="M128.251 72.5364C128.456 73.3009 129.241 73.7546 130.006 73.5498C130.771 73.3449 131.224 72.5591 131.019 71.7945C130.815 71.03 130.029 70.5762 129.264 70.7811C128.5 70.986 128.046 71.7718 128.251 72.5364Z" fill="#4FBFA3" fill-opacity="0.3"/>
<path d="M112.106 56.9602C112.311 57.7247 113.097 58.1785 113.861 57.9736C114.626 57.7687 115.08 56.9829 114.875 56.2183C114.67 55.4538 113.884 55.0001 113.12 55.2049C112.355 55.4098 111.901 56.1956 112.106 56.9602Z" fill="#4FBFA3" fill-opacity="0.3"/>
<path d="M116.827 59.6858C117.032 60.4503 117.818 60.904 118.582 60.6992C119.347 60.4943 119.8 59.7085 119.596 58.9439C119.391 58.1794 118.605 57.7256 117.84 57.9305C117.076 58.1354 116.622 58.9212 116.827 59.6858Z" fill="#4FBFA3" fill-opacity="0.3"/>
<path d="M121.548 62.4114C121.752 63.1759 122.538 63.6296 123.303 63.4248C124.067 63.2199 124.521 62.434 124.316 61.6695C124.111 60.9049 123.326 60.4512 122.561 60.6561C121.796 60.861 121.343 61.6468 121.548 62.4114Z" fill="#4FBFA3" fill-opacity="0.3"/>
<path d="M126.257 65.0901C126.461 65.8546 127.247 66.3083 128.012 66.1035C128.776 65.8986 129.23 65.1127 129.025 64.3482C128.82 63.5837 128.034 63.1299 127.27 63.3348C126.505 63.5397 126.052 64.3255 126.257 65.0901Z" fill="#4FBFA3" fill-opacity="0.3"/>
<path d="M130.977 67.8156C131.182 68.5802 131.968 69.0339 132.733 68.8291C133.497 68.6242 133.951 67.8383 133.746 67.0738C133.541 66.3092 132.755 65.8555 131.991 66.0604C131.226 66.2652 130.772 67.0511 130.977 67.8156Z" fill="#4FBFA3" fill-opacity="0.3"/>
<path d="M101.237 75.7844C101.442 76.5489 102.228 77.0027 102.992 76.7978C103.757 76.5929 104.211 75.8071 104.006 75.0425C103.801 74.278 103.015 73.8243 102.25 74.0291C101.486 74.234 101.032 75.0199 101.237 75.7844Z" fill="#4FBFA3" fill-opacity="0.3"/>
<path d="M120.075 86.6994C120.28 87.464 121.066 87.9177 121.83 87.7128C122.595 87.508 123.048 86.7221 122.844 85.9576C122.639 85.193 121.853 84.7393 121.088 84.9442C120.324 85.149 119.87 85.9349 120.075 86.6994Z" fill="#4FBFA3" fill-opacity="0.3"/>
<path d="M211.46 19.1295C211.665 19.894 212.45 20.3478 213.215 20.1429C213.979 19.938 214.433 19.1522 214.228 18.3876C214.023 17.6231 213.238 17.1694 212.473 17.3742C211.709 17.5791 211.255 18.3649 211.46 19.1295Z" fill="#4FBFA3" fill-opacity="0.3"/>
<path d="M204.061 21.1119C204.266 21.8765 205.052 22.3302 205.817 22.1253C206.581 21.9205 207.035 21.1346 206.83 20.3701C206.625 19.6055 205.839 19.1518 205.075 19.3566C204.31 19.5615 203.856 20.3474 204.061 21.1119Z" fill="#4FBFA3" fill-opacity="0.3"/>
<path d="M208.782 23.8385C208.987 24.603 209.773 25.0568 210.537 24.8519C211.302 24.647 211.755 23.8612 211.551 23.0966C211.346 22.3321 210.56 21.8784 209.795 22.0832C209.031 22.2881 208.577 23.0739 208.782 23.8385Z" fill="#4FBFA3" fill-opacity="0.3"/>
<path d="M213.456 26.5768C213.661 27.3413 214.446 27.795 215.211 27.5902C215.976 27.3853 216.429 26.5994 216.224 25.8349C216.02 25.0703 215.234 24.6166 214.469 24.8215C213.705 25.0264 213.251 25.8122 213.456 26.5768Z" fill="#4FBFA3" fill-opacity="0.3"/>
<path d="M191.163 32.5494C191.368 33.314 192.154 33.7677 192.918 33.5628C193.683 33.358 194.136 32.5721 193.931 31.8076C193.727 31.043 192.941 30.5893 192.176 30.7941C191.412 30.999 190.958 31.7849 191.163 32.5494Z" fill="#4FBFA3" fill-opacity="0.3"/>
<path d="M195.884 35.276C196.088 36.0405 196.874 36.4943 197.639 36.2894C198.403 36.0845 198.857 35.2987 198.652 34.5341C198.447 33.7696 197.661 33.3159 196.897 33.5207C196.132 33.7256 195.679 34.5114 195.884 35.276Z" fill="#4FBFA3" fill-opacity="0.3"/>
<path d="M200.592 37.9537C200.797 38.7183 201.583 39.172 202.348 38.9671C203.112 38.7623 203.566 37.9764 203.361 37.2118C203.156 36.4473 202.37 35.9936 201.606 36.1984C200.841 36.4033 200.388 37.1892 200.592 37.9537Z" fill="#4FBFA3" fill-opacity="0.3"/>
<path d="M205.313 40.6793C205.518 41.4438 206.304 41.8976 207.068 41.6927C207.833 41.4879 208.287 40.702 208.082 39.9374C207.877 39.1729 207.091 38.7192 206.327 38.924C205.562 39.1289 205.108 39.9147 205.313 40.6793Z" fill="#4FBFA3" fill-opacity="0.3"/>
<path d="M210.034 43.4049C210.239 44.1694 211.025 44.6231 211.789 44.4183C212.554 44.2134 213.007 43.4276 212.803 42.663C212.598 41.8985 211.812 41.4448 211.047 41.6496C210.283 41.8545 209.829 42.6403 210.034 43.4049Z" fill="#4FBFA3" fill-opacity="0.3"/>
<path d="M188.485 37.2584C188.69 38.0229 189.476 38.4767 190.24 38.2718C191.005 38.067 191.459 37.2811 191.254 36.5165C191.049 35.752 190.263 35.2983 189.498 35.5031C188.734 35.708 188.28 36.4939 188.485 37.2584Z" fill="#4FBFA3" fill-opacity="0.3"/>
<path d="M193.145 39.9488C193.35 40.7134 194.136 41.1671 194.9 40.9622C195.665 40.7574 196.119 39.9715 195.914 39.207C195.709 38.4424 194.923 37.9887 194.159 38.1936C193.394 38.3984 192.94 39.1843 193.145 39.9488Z" fill="#4FBFA3" fill-opacity="0.3"/>
<path d="M202.587 45.4C202.791 46.1646 203.577 46.6183 204.342 46.4134C205.106 46.2085 205.56 45.4227 205.355 44.6581C205.15 43.8936 204.365 43.4399 203.6 43.6447C202.835 43.8496 202.382 44.6355 202.587 45.4Z" fill="#4FBFA3" fill-opacity="0.3"/>
<path d="M207.307 48.1256C207.512 48.8901 208.298 49.3438 209.063 49.139C209.827 48.9341 210.281 48.1483 210.076 47.3837C209.871 46.6192 209.085 46.1655 208.321 46.3703C207.556 46.5752 207.102 47.361 207.307 48.1256Z" fill="#4FBFA3" fill-opacity="0.3"/>
<path d="M193.887 27.8287C194.092 28.5933 194.878 29.047 195.643 28.8421C196.407 28.6373 196.861 27.8514 196.656 27.0869C196.451 26.3223 195.665 25.8686 194.901 26.0734C194.136 26.2783 193.683 27.0642 193.887 27.8287Z" fill="#4FBFA3" fill-opacity="0.3"/>
<path d="M198.61 30.5543C198.815 31.3188 199.601 31.7726 200.365 31.5677C201.13 31.3628 201.584 30.577 201.379 29.8124C201.174 29.0479 200.388 28.5942 199.623 28.799C198.859 29.0039 198.405 29.7898 198.61 30.5543Z" fill="#4FBFA3" fill-opacity="0.3"/>
<path d="M203.331 33.2799C203.536 34.0444 204.321 34.4982 205.086 34.2933C205.851 34.0884 206.304 33.3026 206.099 32.538C205.895 31.7735 205.109 31.3198 204.344 31.5246C203.58 31.7295 203.126 32.5153 203.331 33.2799Z" fill="#4FBFA3" fill-opacity="0.3"/>
<path d="M208.038 35.9576C208.243 36.7222 209.029 37.1759 209.793 36.971C210.558 36.7662 211.011 35.9803 210.806 35.2158C210.602 34.4512 209.816 33.9975 209.051 34.2024C208.287 34.4072 207.833 35.1931 208.038 35.9576Z" fill="#4FBFA3" fill-opacity="0.3"/>
<path d="M212.76 38.6842C212.965 39.4487 213.751 39.9025 214.516 39.6976C215.28 39.4927 215.734 38.7069 215.529 37.9423C215.324 37.1778 214.538 36.7241 213.774 36.9289C213.009 37.1338 212.556 37.9196 212.76 38.6842Z" fill="#4FBFA3" fill-opacity="0.3"/>
<path d="M196.614 23.108C196.819 23.8726 197.605 24.3263 198.369 24.1214C199.134 23.9166 199.588 23.1307 199.383 22.3661C199.178 21.6016 198.392 21.1479 197.627 21.3527C196.863 21.5576 196.409 22.3435 196.614 23.108Z" fill="#4FBFA3" fill-opacity="0.3"/>
<path d="M201.335 25.8336C201.54 26.5982 202.325 27.0519 203.09 26.847C203.855 26.6422 204.308 25.8563 204.103 25.0917C203.898 24.3272 203.113 23.8735 202.348 24.0783C201.584 24.2832 201.13 25.0691 201.335 25.8336Z" fill="#4FBFA3" fill-opacity="0.3"/>
<path d="M206.055 28.5592C206.26 29.3237 207.046 29.7774 207.811 29.5726C208.575 29.3677 209.029 28.5819 208.824 27.8173C208.619 27.0528 207.833 26.5991 207.069 26.8039C206.304 27.0088 205.851 27.7946 206.055 28.5592Z" fill="#4FBFA3" fill-opacity="0.3"/>
<path d="M210.778 31.2848C210.983 32.0493 211.769 32.503 212.533 32.2982C213.298 32.0933 213.752 31.3075 213.547 30.5429C213.342 29.7784 212.556 29.3246 211.791 29.5295C211.027 29.7344 210.573 30.5202 210.778 31.2848Z" fill="#4FBFA3" fill-opacity="0.3"/>
<path d="M215.438 33.9752C215.643 34.7397 216.429 35.1935 217.193 34.9886C217.958 34.7837 218.412 33.9979 218.207 33.2333C218.002 32.4688 217.216 32.0151 216.452 32.2199C215.687 32.4248 215.233 33.2106 215.438 33.9752Z" fill="#4FBFA3" fill-opacity="0.3"/>
<path d="M185.747 41.9313C185.952 42.6958 186.738 43.1495 187.502 42.9447C188.267 42.7398 188.72 41.9539 188.515 41.1894C188.311 40.4248 187.525 39.9711 186.76 40.176C185.996 40.3808 185.542 41.1667 185.747 41.9313Z" fill="#4FBFA3" fill-opacity="0.3"/>
<path d="M204.583 52.8473C204.788 53.6118 205.573 54.0655 206.338 53.8607C207.103 53.6558 207.556 52.87 207.351 52.1054C207.147 51.3409 206.361 50.8871 205.596 51.092C204.832 51.2969 204.378 52.0827 204.583 52.8473Z" fill="#4FBFA3" fill-opacity="0.3"/>
<path d="M258.335 79.1183C258.54 79.8828 259.325 80.3365 260.09 80.1317C260.855 79.9268 261.308 79.141 261.103 78.3764C260.898 77.6119 260.113 77.1581 259.348 77.363C258.584 77.5679 258.13 78.3537 258.335 79.1183Z" fill="#043825" fill-opacity="0.4"/>
<path d="M263.055 81.8438C263.26 82.6084 264.046 83.0621 264.811 82.8573C265.575 82.6524 266.029 81.8665 265.824 81.102C265.619 80.3374 264.833 79.8837 264.069 80.0886C263.304 80.2934 262.851 81.0793 263.055 81.8438Z" fill="#043825" fill-opacity="0.4"/>
<path d="M250.934 81.1007C251.139 81.8652 251.925 82.319 252.69 82.1141C253.454 81.9092 253.908 81.1234 253.703 80.3588C253.498 79.5943 252.712 79.1406 251.948 79.3454C251.183 79.5503 250.729 80.3362 250.934 81.1007Z" fill="#043825" fill-opacity="0.4"/>
<path d="M255.657 83.8263C255.862 84.5908 256.648 85.0445 257.412 84.8397C258.177 84.6348 258.63 83.849 258.426 83.0844C258.221 82.3199 257.435 81.8661 256.67 82.071C255.906 82.2759 255.452 83.0617 255.657 83.8263Z" fill="#043825" fill-opacity="0.4"/>
<path d="M260.329 86.5646C260.534 87.3291 261.32 87.7828 262.084 87.578C262.849 87.3731 263.302 86.5872 263.097 85.8227C262.893 85.0581 262.107 84.6044 261.342 84.8093C260.578 85.0141 260.124 85.8 260.329 86.5646Z" fill="#043825" fill-opacity="0.4"/>
<path d="M265.05 89.2911C265.254 90.0557 266.04 90.5094 266.805 90.3045C267.569 90.0997 268.023 89.3138 267.818 88.5493C267.613 87.7847 266.827 87.331 266.063 87.5358C265.298 87.7407 264.845 88.5266 265.05 89.2911Z" fill="#043825" fill-opacity="0.4"/>
<path d="M236.042 85.0919C236.247 85.8565 237.032 86.3102 237.797 86.1053C238.562 85.9005 239.015 85.1146 238.81 84.35C238.606 83.5855 237.82 83.1318 237.055 83.3366C236.291 83.5415 235.837 84.3274 236.042 85.0919Z" fill="#043825" fill-opacity="0.4"/>
<path d="M240.762 87.8175C240.967 88.582 241.753 89.0357 242.518 88.8309C243.282 88.626 243.736 87.8402 243.531 87.0756C243.326 86.3111 242.54 85.8574 241.776 86.0622C241.011 86.2671 240.558 87.0529 240.762 87.8175Z" fill="#043825" fill-opacity="0.4"/>
<path d="M245.483 90.5431C245.688 91.3076 246.474 91.7613 247.238 91.5565C248.003 91.3516 248.457 90.5658 248.252 89.8012C248.047 89.0367 247.261 88.5829 246.497 88.7878C245.732 88.9927 245.278 89.7785 245.483 90.5431Z" fill="#043825" fill-opacity="0.4"/>
<path d="M250.204 93.2687C250.409 94.0332 251.195 94.4869 251.959 94.2821C252.724 94.0772 253.177 93.2913 252.972 92.5268C252.768 91.7622 251.982 91.3085 251.217 91.5134C250.453 91.7183 249.999 92.5041 250.204 93.2687Z" fill="#043825" fill-opacity="0.4"/>
<path d="M254.913 95.9464C255.118 96.7109 255.904 97.1647 256.668 96.9598C257.433 96.7549 257.886 95.9691 257.681 95.2045C257.477 94.44 256.691 93.9863 255.926 94.1911C255.162 94.396 254.708 95.1818 254.913 95.9464Z" fill="#043825" fill-opacity="0.4"/>
<path d="M259.634 98.672C259.838 99.4365 260.624 99.8902 261.389 99.6854C262.153 99.4805 262.607 98.6946 262.402 97.9301C262.197 97.1655 261.411 96.7118 260.647 96.9167C259.882 97.1216 259.429 97.9074 259.634 98.672Z" fill="#043825" fill-opacity="0.4"/>
<path d="M264.307 101.41C264.512 102.175 265.298 102.629 266.063 102.424C266.827 102.219 267.281 101.433 267.076 100.668C266.871 99.9039 266.085 99.4501 265.321 99.655C264.556 99.8598 264.102 100.646 264.307 101.41Z" fill="#043825" fill-opacity="0.4"/>
<path d="M269.028 104.137C269.233 104.901 270.019 105.355 270.783 105.15C271.548 104.945 272.002 104.16 271.797 103.395C271.592 102.63 270.806 102.177 270.041 102.382C269.277 102.586 268.823 103.372 269.028 104.137Z" fill="#043825" fill-opacity="0.4"/>
<path d="M233.364 89.7999C233.569 90.5645 234.355 91.0182 235.119 90.8133C235.884 90.6084 236.338 89.8226 236.133 89.058C235.928 88.2935 235.142 87.8398 234.377 88.0446C233.613 88.2495 233.159 89.0354 233.364 89.7999Z" fill="#043825" fill-opacity="0.4"/>
<path d="M238.036 92.5382C238.241 93.3027 239.027 93.7565 239.791 93.5516C240.556 93.3467 241.009 92.5609 240.805 91.7963C240.6 91.0318 239.814 90.5781 239.049 90.7829C238.285 90.9878 237.831 91.7736 238.036 92.5382Z" fill="#043825" fill-opacity="0.4"/>
<path d="M242.758 95.2638C242.963 96.0283 243.749 96.482 244.514 96.2772C245.278 96.0723 245.732 95.2865 245.527 94.5219C245.322 93.7574 244.536 93.3036 243.772 93.5085C243.007 93.7134 242.554 94.4992 242.758 95.2638Z" fill="#043825" fill-opacity="0.4"/>
<path d="M247.466 97.9415C247.67 98.7061 248.456 99.1598 249.221 98.9549C249.985 98.7501 250.439 97.9642 250.234 97.1996C250.029 96.4351 249.243 95.9814 248.479 96.1862C247.714 96.3911 247.261 97.177 247.466 97.9415Z" fill="#043825" fill-opacity="0.4"/>
<path d="M252.186 100.668C252.391 101.433 253.177 101.886 253.941 101.681C254.706 101.477 255.16 100.691 254.955 99.9262C254.75 99.1616 253.964 98.7079 253.2 98.9128C252.435 99.1177 251.981 99.9035 252.186 100.668Z" fill="#043825" fill-opacity="0.4"/>
<path d="M256.909 103.394C257.114 104.158 257.9 104.612 258.664 104.407C259.429 104.202 259.882 103.416 259.678 102.652C259.473 101.887 258.687 101.434 257.922 101.638C257.158 101.843 256.704 102.629 256.909 103.394Z" fill="#043825" fill-opacity="0.4"/>
<path d="M261.63 106.119C261.834 106.884 262.62 107.338 263.385 107.133C264.149 106.928 264.603 106.142 264.398 105.377C264.193 104.613 263.408 104.159 262.643 104.364C261.878 104.569 261.425 105.355 261.63 106.119Z" fill="#043825" fill-opacity="0.4"/>
<path d="M266.303 108.858C266.508 109.622 267.294 110.076 268.059 109.871C268.823 109.666 269.277 108.88 269.072 108.116C268.867 107.351 268.081 106.897 267.317 107.102C266.552 107.307 266.099 108.093 266.303 108.858Z" fill="#043825" fill-opacity="0.4"/>
<path d="M243.489 83.0958C243.694 83.8604 244.48 84.3141 245.244 84.1092C246.009 83.9044 246.463 83.1185 246.258 82.354C246.053 81.5894 245.267 81.1357 244.502 81.3405C243.738 81.5454 243.284 82.3313 243.489 83.0958Z" fill="#043825" fill-opacity="0.4"/>
<path d="M248.21 85.8214C248.415 86.5859 249.2 87.0397 249.965 86.8348C250.729 86.6299 251.183 85.8441 250.978 85.0795C250.773 84.315 249.988 83.8613 249.223 84.0661C248.459 84.271 248.005 85.0568 248.21 85.8214Z" fill="#043825" fill-opacity="0.4"/>
<path d="M252.93 88.5479C253.135 89.3125 253.921 89.7662 254.686 89.5614C255.45 89.3565 255.904 88.5706 255.699 87.8061C255.494 87.0415 254.708 86.5878 253.944 86.7927C253.179 86.9975 252.726 87.7834 252.93 88.5479Z" fill="#043825" fill-opacity="0.4"/>
<path d="M257.651 91.2735C257.856 92.0381 258.642 92.4918 259.406 92.2869C260.171 92.0821 260.625 91.2962 260.42 90.5317C260.215 89.7671 259.429 89.3134 258.664 89.5183C257.9 89.7231 257.446 90.509 257.651 91.2735Z" fill="#043825" fill-opacity="0.4"/>
<path d="M262.311 93.964C262.516 94.7285 263.302 95.1822 264.067 94.9774C264.831 94.7725 265.285 93.9867 265.08 93.2221C264.875 92.4576 264.089 92.0038 263.325 92.2087C262.56 92.4136 262.106 93.1994 262.311 93.964Z" fill="#043825" fill-opacity="0.4"/>
<path d="M267.034 96.6895C267.239 97.4541 268.025 97.9078 268.789 97.703C269.554 97.4981 270.007 96.7122 269.803 95.9477C269.598 95.1831 268.812 94.7294 268.047 94.9343C267.283 95.1391 266.829 95.925 267.034 96.6895Z" fill="#043825" fill-opacity="0.4"/>
<path d="M225.173 103.915C225.377 104.68 226.163 105.133 226.928 104.929C227.692 104.724 228.146 103.938 227.941 103.173C227.736 102.409 226.951 101.955 226.186 102.16C225.421 102.365 224.968 103.151 225.173 103.915Z" fill="#043825" fill-opacity="0.4"/>
<path d="M229.895 106.641C230.1 107.405 230.886 107.859 231.65 107.654C232.415 107.449 232.869 106.663 232.664 105.899C232.459 105.134 231.673 104.681 230.909 104.885C230.144 105.09 229.69 105.876 229.895 106.641Z" fill="#043825" fill-opacity="0.4"/>
<path d="M234.616 109.366C234.821 110.131 235.607 110.585 236.371 110.38C237.136 110.175 237.589 109.389 237.385 108.624C237.18 107.86 236.394 107.406 235.629 107.611C234.865 107.816 234.411 108.602 234.616 109.366Z" fill="#043825" fill-opacity="0.4"/>
<path d="M239.337 112.092C239.541 112.856 240.327 113.31 241.092 113.105C241.856 112.9 242.31 112.115 242.105 111.35C241.9 110.585 241.115 110.132 240.35 110.337C239.585 110.541 239.132 111.327 239.337 112.092Z" fill="#043825" fill-opacity="0.4"/>
<path d="M244.01 114.831C244.215 115.596 245.001 116.049 245.766 115.845C246.53 115.64 246.984 114.854 246.779 114.089C246.574 113.325 245.788 112.871 245.024 113.076C244.259 113.281 243.806 114.067 244.01 114.831Z" fill="#043825" fill-opacity="0.4"/>
<path d="M248.731 117.557C248.936 118.321 249.722 118.775 250.486 118.57C251.251 118.365 251.705 117.579 251.5 116.815C251.295 116.05 250.509 115.597 249.745 115.801C248.98 116.006 248.526 116.792 248.731 117.557Z" fill="#043825" fill-opacity="0.4"/>
<path d="M253.44 120.234C253.645 120.999 254.431 121.453 255.195 121.248C255.96 121.043 256.414 120.257 256.209 119.493C256.004 118.728 255.218 118.274 254.454 118.479C253.689 118.684 253.235 119.47 253.44 120.234Z" fill="#043825" fill-opacity="0.4"/>
<path d="M258.161 122.96C258.366 123.725 259.152 124.178 259.916 123.973C260.681 123.769 261.134 122.983 260.93 122.218C260.725 121.454 259.939 121 259.174 121.205C258.41 121.41 257.956 122.195 258.161 122.96Z" fill="#043825" fill-opacity="0.4"/>
<path d="M222.448 108.636C222.653 109.4 223.439 109.854 224.203 109.649C224.968 109.444 225.421 108.659 225.217 107.894C225.012 107.129 224.226 106.676 223.461 106.881C222.697 107.085 222.243 107.871 222.448 108.636Z" fill="#043825" fill-opacity="0.4"/>
<path d="M227.169 111.362C227.374 112.127 228.159 112.581 228.924 112.376C229.688 112.171 230.142 111.385 229.937 110.621C229.732 109.856 228.947 109.402 228.182 109.607C227.418 109.812 226.964 110.598 227.169 111.362Z" fill="#043825" fill-opacity="0.4"/>
<path d="M231.889 114.088C232.094 114.853 232.88 115.306 233.645 115.101C234.409 114.897 234.863 114.111 234.658 113.346C234.453 112.582 233.667 112.128 232.903 112.333C232.138 112.538 231.685 113.323 231.889 114.088Z" fill="#043825" fill-opacity="0.4"/>
<path d="M245.993 122.23C246.198 122.994 246.984 123.448 247.748 123.243C248.513 123.038 248.966 122.252 248.762 121.488C248.557 120.723 247.771 120.269 247.006 120.474C246.242 120.679 245.788 121.465 245.993 122.23Z" fill="#043825" fill-opacity="0.4"/>
<path d="M250.714 124.955C250.918 125.72 251.704 126.173 252.469 125.969C253.233 125.764 253.687 124.978 253.482 124.213C253.277 123.449 252.492 122.995 251.727 123.2C250.962 123.405 250.509 124.191 250.714 124.955Z" fill="#043825" fill-opacity="0.4"/>
<path d="M227.913 99.2423C228.118 100.007 228.904 100.461 229.668 100.256C230.433 100.051 230.886 99.265 230.681 98.5004C230.477 97.7359 229.691 97.2822 228.926 97.487C228.162 97.6919 227.708 98.4777 227.913 99.2423Z" fill="#043825" fill-opacity="0.4"/>
<path d="M232.62 101.92C232.825 102.685 233.611 103.138 234.375 102.933C235.14 102.729 235.593 101.943 235.389 101.178C235.184 100.414 234.398 99.9599 233.633 100.165C232.869 100.37 232.415 101.155 232.62 101.92Z" fill="#043825" fill-opacity="0.4"/>
<path d="M237.341 104.646C237.545 105.41 238.331 105.864 239.096 105.659C239.86 105.454 240.314 104.668 240.109 103.904C239.904 103.139 239.118 102.685 238.354 102.89C237.589 103.095 237.136 103.881 237.341 104.646Z" fill="#043825" fill-opacity="0.4"/>
<path d="M242.014 107.384C242.219 108.148 243.005 108.602 243.77 108.397C244.534 108.192 244.988 107.407 244.783 106.642C244.578 105.877 243.792 105.424 243.028 105.629C242.263 105.833 241.81 106.619 242.014 107.384Z" fill="#043825" fill-opacity="0.4"/>
<path d="M246.735 110.109C246.94 110.874 247.726 111.328 248.49 111.123C249.255 110.918 249.709 110.132 249.504 109.368C249.299 108.603 248.513 108.149 247.748 108.354C246.984 108.559 246.53 109.345 246.735 110.109Z" fill="#043825" fill-opacity="0.4"/>
<path d="M251.456 112.835C251.661 113.6 252.447 114.053 253.211 113.848C253.976 113.644 254.429 112.858 254.224 112.093C254.02 111.329 253.234 110.875 252.469 111.08C251.705 111.285 251.251 112.071 251.456 112.835Z" fill="#043825" fill-opacity="0.4"/>
<path d="M256.178 115.562C256.383 116.326 257.169 116.78 257.934 116.575C258.698 116.37 259.152 115.584 258.947 114.82C258.742 114.055 257.956 113.601 257.192 113.806C256.427 114.011 255.974 114.797 256.178 115.562Z" fill="#043825" fill-opacity="0.4"/>
<path d="M260.885 118.239C261.09 119.004 261.876 119.458 262.641 119.253C263.405 119.048 263.859 118.262 263.654 117.498C263.449 116.733 262.663 116.279 261.899 116.484C261.134 116.689 260.681 117.475 260.885 118.239Z" fill="#043825" fill-opacity="0.4"/>
<path d="M230.637 94.5206C230.842 95.2852 231.628 95.7389 232.393 95.534C233.157 95.3292 233.611 94.5433 233.406 93.7787C233.201 93.0142 232.415 92.5605 231.651 92.7653C230.886 92.9702 230.433 93.7561 230.637 94.5206Z" fill="#043825" fill-opacity="0.4"/>
<path d="M235.358 97.2462C235.563 98.0107 236.349 98.4645 237.113 98.2596C237.878 98.0547 238.332 97.2689 238.127 96.5043C237.922 95.7398 237.136 95.2861 236.372 95.4909C235.607 95.6958 235.153 96.4816 235.358 97.2462Z" fill="#043825" fill-opacity="0.4"/>
<path d="M240.02 99.9376C240.225 100.702 241.011 101.156 241.776 100.951C242.54 100.746 242.994 99.9603 242.789 99.1957C242.584 98.4312 241.798 97.9775 241.034 98.1823C240.269 98.3872 239.815 99.173 240.02 99.9376Z" fill="#043825" fill-opacity="0.4"/>
<path d="M244.741 102.663C244.946 103.428 245.732 103.881 246.496 103.677C247.261 103.472 247.714 102.686 247.51 101.921C247.305 101.157 246.519 100.703 245.754 100.908C244.99 101.113 244.536 101.899 244.741 102.663Z" fill="#043825" fill-opacity="0.4"/>
<path d="M249.462 105.389C249.667 106.153 250.452 106.607 251.217 106.402C251.981 106.197 252.435 105.411 252.23 104.647C252.025 103.882 251.24 103.429 250.475 103.634C249.71 103.838 249.257 104.624 249.462 105.389Z" fill="#043825" fill-opacity="0.4"/>
<path d="M254.182 108.114C254.387 108.879 255.173 109.333 255.938 109.128C256.702 108.923 257.156 108.137 256.951 107.373C256.746 106.608 255.96 106.154 255.196 106.359C254.431 106.564 253.977 107.35 254.182 108.114Z" fill="#043825" fill-opacity="0.4"/>
<path d="M258.903 110.84C259.108 111.605 259.894 112.058 260.658 111.853C261.423 111.649 261.877 110.863 261.672 110.098C261.467 109.334 260.681 108.88 259.916 109.085C259.152 109.29 258.698 110.075 258.903 110.84Z" fill="#043825" fill-opacity="0.4"/>
<path d="M263.624 113.566C263.829 114.33 264.614 114.784 265.379 114.579C266.144 114.374 266.597 113.588 266.392 112.824C266.188 112.059 265.402 111.605 264.637 111.81C263.873 112.015 263.419 112.801 263.624 113.566Z" fill="#043825" fill-opacity="0.4"/>
<path d="M217.044 118.066C217.249 118.83 218.034 119.284 218.799 119.079C219.563 118.874 220.017 118.088 219.812 117.324C219.607 116.559 218.822 116.105 218.057 116.31C217.293 116.515 216.839 117.301 217.044 118.066Z" fill="#043825" fill-opacity="0.4"/>
<path d="M219.721 113.358C219.926 114.122 220.712 114.576 221.477 114.371C222.241 114.166 222.695 113.38 222.49 112.616C222.285 111.851 221.499 111.397 220.735 111.602C219.97 111.807 219.517 112.593 219.721 113.358Z" fill="#043825" fill-opacity="0.4"/>
<path d="M224.444 116.083C224.649 116.848 225.435 117.301 226.199 117.097C226.964 116.892 227.418 116.106 227.213 115.341C227.008 114.577 226.222 114.123 225.457 114.328C224.693 114.533 224.239 115.319 224.444 116.083Z" fill="#043825" fill-opacity="0.4"/>
</svg>
