<svg width="530" height="609" viewBox="0 0 530 609" fill="none" xmlns="http://www.w3.org/2000/svg">
<g filter="url(#filter0_d_298_4399)">
<rect x="9" y="5" width="512" height="591" rx="8" fill="#1D2939"/>
</g>
<path fill-rule="evenodd" clip-rule="evenodd" d="M244 57V85.7879L265.212 96.3939L285.919 85.7879V75.6869L266.727 65.5859L253.091 71.6465V60.5354L244 57ZM256.626 80.2323L266.222 75.1818L275.313 80.2323L266.222 85.7878L256.626 80.2323Z" fill="white"/>
<path d="M244 85.7879H243.364V86.1809L243.716 86.3566L244 85.7879ZM244 57L244.23 56.4073L243.364 56.0704V57H244ZM265.212 96.3939L264.928 96.9627L265.216 97.1066L265.502 96.9599L265.212 96.3939ZM285.919 85.7879L286.209 86.3539L286.555 86.1766V85.7879H285.919ZM285.919 75.6869H286.555V75.3029L286.215 75.1241L285.919 75.6869ZM266.727 65.5859L267.023 65.0231L266.751 64.8795L266.469 65.0047L266.727 65.5859ZM253.091 71.6465H252.455V72.625L253.349 72.2276L253.091 71.6465ZM253.091 60.5354H253.727V60.1003L253.321 59.9427L253.091 60.5354ZM266.222 75.1818L266.531 74.6259L266.231 74.4589L265.926 74.619L266.222 75.1818ZM256.626 80.2323L256.33 79.6695L255.311 80.2058L256.308 80.7826L256.626 80.2323ZM275.313 80.2323L275.645 80.7749L276.576 80.2061L275.622 79.6764L275.313 80.2323ZM266.222 85.7878L265.904 86.3382L266.231 86.5277L266.554 86.3305L266.222 85.7878ZM244.636 85.7879V57H243.364V85.7879H244.636ZM265.497 95.8251L244.284 85.2191L243.716 86.3566L264.928 96.9627L265.497 95.8251ZM285.629 85.2219L264.922 95.8279L265.502 96.9599L286.209 86.3539L285.629 85.2219ZM285.283 75.6869V85.7879H286.555V75.6869H285.283ZM266.431 66.1486L285.623 76.2496L286.215 75.1241L267.023 65.0231L266.431 66.1486ZM253.349 72.2276L266.986 66.167L266.469 65.0047L252.833 71.0653L253.349 72.2276ZM252.455 60.5354V71.6465H253.727V60.5354H252.455ZM243.77 57.5927L252.86 61.128L253.321 59.9427L244.23 56.4073L243.77 57.5927ZM265.926 74.619L256.33 79.6695L256.923 80.795L266.519 75.7445L265.926 74.619ZM275.622 79.6764L266.531 74.6259L265.914 75.7377L275.005 80.7882L275.622 79.6764ZM266.554 86.3305L275.645 80.7749L274.982 79.6897L265.891 85.2452L266.554 86.3305ZM256.308 80.7826L265.904 86.3382L266.541 85.2375L256.945 79.6819L256.308 80.7826Z" fill="white"/>
<path d="M244 96.8989V88.8181L265.212 99.4242L286.424 89.3232L285.919 96.8989L265.212 107L244 96.8989Z" fill="#E18C2F"/>
<path d="M207.593 567.623H208.621V565.191H210.534C212.009 565.191 213.128 564.245 213.128 562.912C213.128 561.579 212.009 560.633 210.534 560.633H207.593V567.623ZM208.621 564.235V561.589H210.391C211.399 561.589 212.08 562.088 212.08 562.912C212.08 563.736 211.399 564.235 210.391 564.235H208.621ZM216.663 567.745C218.159 567.745 219.421 566.483 219.421 564.988C219.421 563.492 218.159 562.241 216.663 562.241C215.157 562.241 213.885 563.492 213.885 564.988C213.885 566.483 215.157 567.745 216.663 567.745ZM216.663 566.87C215.697 566.87 214.893 566.015 214.893 564.988C214.893 563.97 215.697 563.116 216.663 563.116C217.609 563.116 218.413 563.97 218.413 564.988C218.413 566.015 217.609 566.87 216.663 566.87ZM221.713 567.623H222.639L223.911 563.716L225.173 567.623H226.099L227.869 562.363H226.842L225.641 566.28L224.339 562.363H223.484L222.181 566.28L220.971 562.363H219.943L221.713 567.623ZM231.039 566.85C230.134 566.85 229.493 566.219 229.36 565.344H233.501C233.501 563.462 232.575 562.241 230.968 562.241C229.513 562.241 228.343 563.401 228.343 564.978C228.343 566.595 229.584 567.745 231.049 567.745C231.792 567.745 232.708 567.43 233.176 566.931L232.545 566.28C232.23 566.606 231.589 566.85 231.039 566.85ZM231.009 563.136C231.914 563.136 232.413 563.726 232.525 564.54H229.37C229.533 563.685 230.195 563.136 231.009 563.136ZM235.727 563.37V562.363H234.72V567.623H235.727V564.632C235.819 563.716 236.592 563.116 237.681 563.116V562.241C236.775 562.241 236.063 562.678 235.727 563.37ZM241.075 566.85C240.169 566.85 239.528 566.219 239.396 565.344H243.537C243.537 563.462 242.611 562.241 241.004 562.241C239.549 562.241 238.378 563.401 238.378 564.978C238.378 566.595 239.62 567.745 241.085 567.745C241.828 567.745 242.743 567.43 243.211 566.931L242.581 566.28C242.265 566.606 241.624 566.85 241.075 566.85ZM241.044 563.136C241.95 563.136 242.448 563.726 242.56 564.54H239.406C239.569 563.685 240.23 563.136 241.044 563.136ZM248.754 560.511V563.268C248.347 562.627 247.696 562.241 246.882 562.241C245.498 562.241 244.46 563.38 244.46 564.988C244.46 566.606 245.498 567.745 246.882 567.745C247.696 567.745 248.347 567.359 248.754 566.707V567.623H249.751V560.511H248.754ZM247.126 566.87C246.16 566.87 245.478 566.087 245.478 564.988C245.478 563.889 246.16 563.116 247.126 563.116C248.073 563.116 248.754 563.889 248.754 564.988C248.754 566.087 248.073 566.87 247.126 566.87ZM257.094 562.241C256.28 562.241 255.629 562.627 255.222 563.268V560.511H254.225V567.623H255.222V566.707C255.629 567.359 256.28 567.745 257.094 567.745C258.478 567.745 259.516 566.606 259.516 564.988C259.516 563.38 258.478 562.241 257.094 562.241ZM256.85 566.87C255.904 566.87 255.222 566.087 255.222 564.988C255.222 563.889 255.904 563.116 256.85 563.116C257.817 563.116 258.498 563.889 258.498 564.988C258.498 566.087 257.817 566.87 256.85 566.87ZM261.658 569.455C262.411 569.444 262.97 569.048 263.347 568.101L265.667 562.363H264.619L263.021 566.514L261.332 562.363H260.254L262.513 567.654L262.248 568.213C262.075 568.518 261.851 568.62 261.526 568.62C261.322 568.62 261.088 568.569 260.885 568.457L260.661 569.231C260.935 569.373 261.302 569.455 261.658 569.455Z" fill="#C6C6C6"/>
<path d="M269.786 567.623H271.058V562.953L273.357 567.216L275.667 562.953V567.623H276.929V560.633H275.667L273.357 564.896L271.058 560.633H269.786V567.623ZM279.506 569.455C280.299 569.444 280.91 568.986 281.307 567.989L283.535 562.363H282.253L280.808 566.29L279.272 562.363H277.959L280.187 567.664L279.964 568.132C279.811 568.386 279.587 568.478 279.292 568.478C279.099 568.478 278.844 568.407 278.62 568.284L278.356 569.18C278.671 569.353 279.109 569.455 279.506 569.455ZM287.062 567.745C287.896 567.745 288.598 567.399 289.107 566.86L288.273 566.138C287.978 566.473 287.53 566.687 287.072 566.687C286.207 566.687 285.485 565.914 285.485 564.988C285.485 564.072 286.207 563.299 287.072 563.299C287.52 563.299 287.957 563.512 288.242 563.828L289.076 563.095C288.578 562.576 287.876 562.241 287.082 562.241C285.546 562.241 284.254 563.492 284.254 564.988C284.254 566.483 285.546 567.745 287.062 567.745ZM292.517 567.745C294.043 567.745 295.335 566.483 295.335 564.988C295.335 563.492 294.043 562.241 292.517 562.241C290.991 562.241 289.699 563.492 289.699 564.988C289.699 566.483 290.991 567.745 292.517 567.745ZM292.517 566.687C291.642 566.687 290.909 565.914 290.909 564.988C290.909 564.072 291.642 563.299 292.517 563.299C293.382 563.299 294.115 564.072 294.115 564.988C294.115 565.914 293.382 566.687 292.517 566.687ZM297.934 567.623H299.104L301.332 562.363H300.01L298.514 566.188L296.988 562.363H295.675L297.934 567.623ZM304.309 566.646C303.556 566.646 303.007 566.138 302.854 565.415H306.823C306.823 563.472 305.876 562.241 304.248 562.241C302.753 562.241 301.572 563.401 301.572 564.978C301.572 566.595 302.814 567.745 304.32 567.745C305.083 567.745 305.998 567.42 306.456 566.931L305.673 566.117C305.378 566.422 304.798 566.646 304.309 566.646ZM304.299 563.339C305.042 563.339 305.49 563.807 305.632 564.469H302.865C303.048 563.777 303.607 563.339 304.299 563.339ZM309.17 563.38V562.363H307.929V567.623H309.17V564.967C309.17 563.97 309.923 563.299 311.053 563.299V562.241C310.188 562.241 309.506 562.678 309.17 563.38ZM312.725 567.745C313.153 567.745 313.509 567.379 313.509 566.931C313.509 566.514 313.153 566.148 312.725 566.148C312.257 566.148 311.911 566.514 311.911 566.931C311.911 567.379 312.257 567.745 312.725 567.745ZM317.084 562.241C316.422 562.241 315.73 562.424 314.988 562.79L315.415 563.655C315.863 563.431 316.341 563.258 316.839 563.258C317.796 563.258 318.132 563.848 318.132 564.459V564.601C317.653 564.418 317.135 564.316 316.656 564.316C315.476 564.316 314.509 565.028 314.509 566.066C314.509 567.084 315.354 567.745 316.473 567.745C317.084 567.745 317.745 567.481 318.132 566.992V567.623H319.342V564.459C319.342 563.126 318.478 562.241 317.084 562.241ZM316.748 566.84C316.158 566.84 315.72 566.524 315.72 566.026C315.72 565.527 316.219 565.181 316.839 565.181C317.307 565.181 317.745 565.252 318.132 565.385V565.975C317.989 566.534 317.348 566.84 316.748 566.84ZM321.317 561.569C321.704 561.569 322.019 561.233 322.019 560.857C322.019 560.48 321.704 560.155 321.317 560.155C320.921 560.155 320.605 560.48 320.605 560.857C320.605 561.233 320.921 561.569 321.317 561.569ZM320.687 567.623H321.928V562.363H320.687V567.623Z" fill="#FAFBFD"/>
<g filter="url(#filter1_dd_298_4399)">
<rect x="93" y="142" width="344.035" height="397.453" rx="2.5437" fill="white"/>
</g>
<path d="M116.781 254.112H117.808V248.811L121.827 254.112H122.855V247.122H121.827V252.423L117.808 247.122H116.781V254.112ZM126.686 248.73C126.106 248.73 125.444 248.882 124.691 249.259L125.058 250.001C125.516 249.767 126.024 249.564 126.543 249.564C127.591 249.564 127.897 250.266 127.897 250.927V251.09C127.388 250.917 126.828 250.805 126.309 250.805C125.149 250.805 124.203 251.507 124.203 252.555C124.203 253.583 125.027 254.234 126.146 254.234C126.787 254.234 127.51 253.939 127.897 253.39V254.112H128.883V250.927C128.883 249.625 128.1 248.73 126.686 248.73ZM126.34 253.441C125.678 253.441 125.17 253.095 125.17 252.525C125.17 251.955 125.76 251.558 126.462 251.558C126.981 251.558 127.469 251.629 127.897 251.762V252.464C127.724 253.115 126.991 253.441 126.34 253.441ZM136.221 248.73C135.428 248.73 134.756 249.137 134.512 249.788C134.207 249.137 133.586 248.73 132.823 248.73C132.151 248.73 131.602 249.065 131.337 249.584V248.852H130.33V254.112H131.337V250.826C131.337 250.103 131.866 249.605 132.619 249.605C133.281 249.605 133.739 250.144 133.739 250.917V254.112H134.726V250.826C134.726 250.103 135.255 249.605 136.008 249.605C136.669 249.605 137.127 250.144 137.127 250.917V254.112H138.114V250.765C138.114 249.574 137.32 248.73 136.221 248.73ZM141.973 253.339C141.067 253.339 140.426 252.708 140.294 251.833H144.435C144.435 249.951 143.509 248.73 141.901 248.73C140.446 248.73 139.276 249.89 139.276 251.467C139.276 253.084 140.518 254.234 141.983 254.234C142.725 254.234 143.641 253.919 144.109 253.42L143.478 252.769C143.163 253.095 142.522 253.339 141.973 253.339ZM141.942 249.625C142.848 249.625 143.346 250.215 143.458 251.029H140.304C140.467 250.174 141.128 249.625 141.942 249.625ZM151.007 254.234C152.502 254.234 153.764 252.972 153.764 251.477C153.764 249.981 152.502 248.73 151.007 248.73C149.501 248.73 148.229 249.981 148.229 251.477C148.229 252.972 149.501 254.234 151.007 254.234ZM151.007 253.359C150.04 253.359 149.236 252.504 149.236 251.477C149.236 250.459 150.04 249.605 151.007 249.605C151.953 249.605 152.757 250.459 152.757 251.477C152.757 252.504 151.953 253.359 151.007 253.359ZM156.326 248.272C156.326 247.905 156.571 247.641 156.866 247.641C157.089 247.641 157.293 247.722 157.405 247.834L157.771 247.163C157.486 246.929 157.1 246.786 156.723 246.786C155.909 246.786 155.339 247.376 155.339 248.221V248.852H154.546V249.706H155.339V254.112H156.326V249.706H157.568V248.852H156.326V248.272ZM161.551 254.112H162.579V251.68H164.491C165.967 251.68 167.086 250.734 167.086 249.401C167.086 248.068 165.967 247.122 164.491 247.122H161.551V254.112ZM162.579 250.724V248.078H164.349C165.356 248.078 166.038 248.577 166.038 249.401C166.038 250.225 165.356 250.724 164.349 250.724H162.579ZM168.128 254.112H169.125V247H168.128V254.112ZM172.8 248.73C172.22 248.73 171.559 248.882 170.806 249.259L171.172 250.001C171.63 249.767 172.139 249.564 172.658 249.564C173.706 249.564 174.011 250.266 174.011 250.927V251.09C173.502 250.917 172.943 250.805 172.424 250.805C171.264 250.805 170.318 251.507 170.318 252.555C170.318 253.583 171.142 254.234 172.261 254.234C172.902 254.234 173.624 253.939 174.011 253.39V254.112H174.998V250.927C174.998 249.625 174.215 248.73 172.8 248.73ZM172.454 253.441C171.793 253.441 171.284 253.095 171.284 252.525C171.284 251.955 171.874 251.558 172.576 251.558C173.095 251.558 173.584 251.629 174.011 251.762V252.464C173.838 253.115 173.105 253.441 172.454 253.441ZM179.131 248.73C178.418 248.73 177.777 249.096 177.462 249.615V248.852H176.455V254.112H177.462V250.704C177.543 250.083 178.174 249.605 178.907 249.605C179.619 249.605 180.118 250.154 180.118 250.938V254.112H181.105V250.765C181.105 249.574 180.291 248.73 179.131 248.73ZM188.845 254.234C190.809 254.234 192.457 252.576 192.457 250.612C192.457 248.648 190.809 247 188.845 247C186.881 247 185.213 248.648 185.213 250.612C185.213 252.576 186.881 254.234 188.845 254.234ZM188.845 253.288C187.451 253.288 186.271 252.067 186.271 250.612C186.271 249.167 187.451 247.946 188.845 247.946C190.239 247.946 191.409 249.167 191.409 250.612C191.409 252.067 190.239 253.288 188.845 253.288ZM195.017 254.112H195.943L197.215 250.205L198.477 254.112H199.403L201.173 248.852H200.145L198.945 252.769L197.642 248.852H196.788L195.485 252.769L194.274 248.852H193.247L195.017 254.112ZM204.866 248.73C204.154 248.73 203.513 249.096 203.197 249.615V248.852H202.19V254.112H203.197V250.704C203.279 250.083 203.909 249.605 204.642 249.605C205.354 249.605 205.853 250.154 205.853 250.938V254.112H206.84V250.765C206.84 249.574 206.026 248.73 204.866 248.73ZM210.692 253.339C209.787 253.339 209.146 252.708 209.013 251.833H213.154C213.154 249.951 212.229 248.73 210.621 248.73C209.166 248.73 207.996 249.89 207.996 251.467C207.996 253.084 209.237 254.234 210.702 254.234C211.445 254.234 212.361 253.919 212.829 253.42L212.198 252.769C211.883 253.095 211.242 253.339 210.692 253.339ZM210.662 249.625C211.567 249.625 212.066 250.215 212.178 251.029H209.024C209.186 250.174 209.848 249.625 210.662 249.625ZM215.38 249.859V248.852H214.373V254.112H215.38V251.121C215.472 250.205 216.245 249.605 217.334 249.605V248.73C216.428 248.73 215.716 249.167 215.38 249.859Z" fill="#344054"/>
<rect x="116.15" y="264.454" width="295.196" height="30.7535" rx="2.28933" fill="#F9FAFB"/>
<path d="M131.89 276.593V275.84H126.874V282.831H127.678V279.646H131.473V278.893H127.678V276.593H131.89ZM133.42 276.614C133.695 276.614 133.919 276.38 133.919 276.105C133.919 275.84 133.695 275.606 133.42 275.606C133.135 275.606 132.912 275.84 132.912 276.105C132.912 276.38 133.135 276.614 133.42 276.614ZM133.034 282.831H133.797V277.57H133.034V282.831ZM136.164 278.598V277.57H135.4V282.831H136.164V279.89C136.164 278.862 137.008 278.13 138.199 278.13V277.448C137.232 277.448 136.479 277.896 136.164 278.598ZM141.116 282.953C142.205 282.953 143.039 282.332 143.039 281.365C143.039 280.368 142.164 280.083 141.32 279.819C140.343 279.503 139.956 279.361 139.956 278.903C139.956 278.394 140.445 278.13 141.035 278.13C141.503 278.13 142.022 278.293 142.551 278.628L142.917 278.038C142.357 277.672 141.686 277.448 141.035 277.448C139.987 277.448 139.193 278.038 139.193 278.995C139.193 279.748 139.681 280.124 140.953 280.49C141.665 280.694 142.276 280.877 142.276 281.447C142.276 281.945 141.808 282.271 141.116 282.271C140.536 282.271 139.936 282.047 139.335 281.61L138.939 282.169C139.569 282.678 140.383 282.953 141.116 282.953ZM146.611 282.057C146.499 282.179 146.296 282.271 146.062 282.271C145.757 282.271 145.492 281.996 145.492 281.61V278.252H146.784V277.57H145.492V276.125H144.729V277.57H143.905V278.252H144.729V281.61C144.729 282.393 145.258 282.953 146.011 282.953C146.367 282.953 146.713 282.831 146.988 282.617L146.611 282.057ZM151.202 282.831H151.995V277.143L156.33 282.831H157.124V275.84H156.33V281.528L151.995 275.84H151.202V282.831ZM160.985 277.448C160.476 277.448 159.846 277.58 159.093 277.957L159.398 278.578C159.876 278.333 160.405 278.099 160.934 278.099C162.074 278.099 162.359 278.913 162.359 279.626V279.819C161.82 279.646 161.219 279.524 160.649 279.524C159.52 279.524 158.584 280.226 158.584 281.274C158.584 282.312 159.398 282.953 160.507 282.953C161.199 282.953 161.982 282.627 162.359 282.006V282.831H163.122V279.626C163.122 278.354 162.42 277.448 160.985 277.448ZM160.639 282.281C159.897 282.281 159.327 281.894 159.327 281.243C159.327 280.612 159.988 280.165 160.772 280.165C161.341 280.165 161.881 280.246 162.359 280.378V281.182C162.155 281.925 161.331 282.281 160.639 282.281ZM170.369 277.448C169.575 277.448 168.883 277.886 168.67 278.567C168.385 277.886 167.764 277.448 166.97 277.448C166.279 277.448 165.709 277.794 165.444 278.343V277.57H164.681V282.831H165.444V279.483C165.444 278.689 166.034 278.13 166.869 278.13C167.581 278.13 168.08 278.73 168.08 279.585V282.831H168.843V279.483C168.843 278.689 169.433 278.13 170.267 278.13C170.979 278.13 171.478 278.73 171.478 279.585V282.831H172.241V279.483C172.241 278.293 171.468 277.448 170.369 277.448ZM176.154 282.271C175.116 282.271 174.393 281.518 174.281 280.49H178.585C178.585 278.649 177.68 277.448 176.092 277.448C174.678 277.448 173.498 278.618 173.498 280.185C173.498 281.803 174.76 282.953 176.164 282.953C176.896 282.953 177.822 282.637 178.28 282.139L177.812 281.64C177.486 281.996 176.774 282.271 176.154 282.271ZM176.123 278.13C177.171 278.13 177.731 278.862 177.832 279.809H174.292C174.434 278.791 175.187 278.13 176.123 278.13ZM180.241 284.184C180.852 283.421 181.024 283.075 181.024 282.668C181.024 282.2 180.79 281.854 180.404 281.854C180.078 281.854 179.844 282.108 179.844 282.393C179.844 282.698 180.088 282.953 180.394 282.953C180.312 283.268 180.139 283.584 179.865 283.899L180.241 284.184ZM186.18 282.078V275.84H185.387V282.831H189.996V282.078H186.18ZM193.248 277.448C192.74 277.448 192.109 277.58 191.356 277.957L191.661 278.578C192.139 278.333 192.668 278.099 193.198 278.099C194.337 278.099 194.622 278.913 194.622 279.626V279.819C194.083 279.646 193.482 279.524 192.913 279.524C191.783 279.524 190.847 280.226 190.847 281.274C190.847 282.312 191.661 282.953 192.77 282.953C193.462 282.953 194.246 282.627 194.622 282.006V282.831H195.385V279.626C195.385 278.354 194.683 277.448 193.248 277.448ZM192.903 282.281C192.16 282.281 191.59 281.894 191.59 281.243C191.59 280.612 192.251 280.165 193.035 280.165C193.605 280.165 194.144 280.246 194.622 280.378V281.182C194.419 281.925 193.594 282.281 192.903 282.281ZM198.806 282.953C199.895 282.953 200.729 282.332 200.729 281.365C200.729 280.368 199.854 280.083 199.01 279.819C198.033 279.503 197.646 279.361 197.646 278.903C197.646 278.394 198.135 278.13 198.725 278.13C199.193 278.13 199.712 278.293 200.241 278.628L200.607 278.038C200.048 277.672 199.376 277.448 198.725 277.448C197.677 277.448 196.883 278.038 196.883 278.995C196.883 279.748 197.372 280.124 198.644 280.49C199.356 280.694 199.966 280.877 199.966 281.447C199.966 281.945 199.498 282.271 198.806 282.271C198.226 282.271 197.626 282.047 197.026 281.61L196.629 282.169C197.26 282.678 198.074 282.953 198.806 282.953ZM204.302 282.057C204.19 282.179 203.986 282.271 203.752 282.271C203.447 282.271 203.182 281.996 203.182 281.61V278.252H204.475V277.57H203.182V276.125H202.419V277.57H201.595V278.252H202.419V281.61C202.419 282.393 202.948 282.953 203.701 282.953C204.058 282.953 204.403 282.831 204.678 282.617L204.302 282.057ZM208.892 282.831H209.686V277.143L214.02 282.831H214.814V275.84H214.02V281.528L209.686 275.84H208.892V282.831ZM218.676 277.448C218.167 277.448 217.536 277.58 216.783 277.957L217.088 278.578C217.566 278.333 218.096 278.099 218.625 278.099C219.764 278.099 220.049 278.913 220.049 279.626V279.819C219.51 279.646 218.91 279.524 218.34 279.524C217.21 279.524 216.274 280.226 216.274 281.274C216.274 282.312 217.088 282.953 218.197 282.953C218.889 282.953 219.673 282.627 220.049 282.006V282.831H220.812V279.626C220.812 278.354 220.11 277.448 218.676 277.448ZM218.33 282.281C217.587 282.281 217.017 281.894 217.017 281.243C217.017 280.612 217.678 280.165 218.462 280.165C219.032 280.165 219.571 280.246 220.049 280.378V281.182C219.846 281.925 219.021 282.281 218.33 282.281ZM228.059 277.448C227.266 277.448 226.574 277.886 226.36 278.567C226.075 277.886 225.454 277.448 224.661 277.448C223.969 277.448 223.399 277.794 223.135 278.343V277.57H222.371V282.831H223.135V279.483C223.135 278.689 223.725 278.13 224.559 278.13C225.271 278.13 225.77 278.73 225.77 279.585V282.831H226.533V279.483C226.533 278.689 227.123 278.13 227.957 278.13C228.67 278.13 229.168 278.73 229.168 279.585V282.831H229.931V279.483C229.931 278.293 229.158 277.448 228.059 277.448ZM233.844 282.271C232.806 282.271 232.084 281.518 231.972 280.49H236.276C236.276 278.649 235.37 277.448 233.783 277.448C232.368 277.448 231.188 278.618 231.188 280.185C231.188 281.803 232.45 282.953 233.854 282.953C234.587 282.953 235.513 282.637 235.97 282.139L235.502 281.64C235.177 281.996 234.465 282.271 233.844 282.271ZM233.813 278.13C234.861 278.13 235.421 278.862 235.523 279.809H231.982C232.124 278.791 232.877 278.13 233.813 278.13Z" fill="#98A2B3"/>
<rect x="116.15" y="264.454" width="295.196" height="30.7535" rx="2.28933" stroke="#EAECF0" stroke-width="0.50874"/>
<path d="M121.797 310.399V309.443H116.659V316.433H121.797V315.476H117.696V313.35H121.4V312.393H117.696V310.399H121.797ZM128.938 311.05C128.144 311.05 127.473 311.457 127.229 312.108C126.923 311.457 126.303 311.05 125.54 311.05C124.868 311.05 124.319 311.386 124.054 311.905V311.172H123.047V316.433H124.054V313.146C124.054 312.424 124.583 311.925 125.336 311.925C125.997 311.925 126.455 312.464 126.455 313.238V316.433H127.442V313.146C127.442 312.424 127.971 311.925 128.724 311.925C129.386 311.925 129.843 312.464 129.843 313.238V316.433H130.83V313.085C130.83 311.895 130.037 311.05 128.938 311.05ZM134.486 311.05C133.906 311.05 133.244 311.203 132.491 311.579L132.858 312.322C133.316 312.088 133.824 311.884 134.343 311.884C135.391 311.884 135.697 312.587 135.697 313.248V313.411C135.188 313.238 134.628 313.126 134.109 313.126C132.949 313.126 132.003 313.828 132.003 314.876C132.003 315.904 132.827 316.555 133.946 316.555C134.587 316.555 135.31 316.26 135.697 315.71V316.433H136.683V313.248C136.683 311.946 135.9 311.05 134.486 311.05ZM134.14 315.761C133.478 315.761 132.97 315.415 132.97 314.845C132.97 314.276 133.56 313.879 134.262 313.879C134.781 313.879 135.269 313.95 135.697 314.082V314.784C135.524 315.435 134.791 315.761 134.14 315.761ZM138.639 310.297C138.964 310.297 139.239 310.012 139.239 309.687C139.239 309.371 138.964 309.086 138.639 309.086C138.293 309.086 138.028 309.371 138.028 309.687C138.028 310.012 138.293 310.297 138.639 310.297ZM138.13 316.433H139.137V311.172H138.13V316.433ZM140.595 316.433H141.592V309.32H140.595V316.433Z" fill="#344054"/>
<rect x="116.15" y="326.774" width="295.196" height="30.7535" rx="2.28933" fill="#F9FAFB"/>
<path d="M131.89 338.914V338.161H126.874V345.151H131.89V344.398H127.678V341.966H131.473V341.213H127.678V338.914H131.89ZM135.726 339.769C134.983 339.769 134.301 340.176 133.996 340.735V339.891H133.233V345.151H133.996V341.804C133.996 341.071 134.739 340.45 135.624 340.45C136.397 340.45 136.937 341.051 136.937 341.905V345.151H137.7V341.804C137.7 340.613 136.886 339.769 135.726 339.769ZM141.554 344.378C141.442 344.5 141.238 344.592 141.004 344.592C140.699 344.592 140.435 344.317 140.435 343.93V340.572H141.727V339.891H140.435V338.446H139.671V339.891H138.847V340.572H139.671V343.93C139.671 344.714 140.201 345.273 140.953 345.273C141.31 345.273 141.656 345.151 141.93 344.937L141.554 344.378ZM145.381 344.592C144.343 344.592 143.62 343.839 143.509 342.811H147.813C147.813 340.969 146.907 339.769 145.32 339.769C143.905 339.769 142.725 340.939 142.725 342.506C142.725 344.123 143.987 345.273 145.391 345.273C146.123 345.273 147.049 344.958 147.507 344.459L147.039 343.961C146.714 344.317 146.001 344.592 145.381 344.592ZM145.35 340.45C146.398 340.45 146.958 341.183 147.06 342.129H143.519C143.661 341.112 144.414 340.45 145.35 340.45ZM149.896 340.918V339.891H149.132V345.151H149.896V342.211C149.896 341.183 150.74 340.45 151.931 340.45V339.769C150.964 339.769 150.211 340.216 149.896 340.918ZM158.308 344.592C157.27 344.592 156.548 343.839 156.436 342.811H160.74C160.74 340.969 159.834 339.769 158.247 339.769C156.833 339.769 155.652 340.939 155.652 342.506C155.652 344.123 156.914 345.273 158.318 345.273C159.051 345.273 159.977 344.958 160.434 344.459L159.966 343.961C159.641 344.317 158.929 344.592 158.308 344.592ZM158.277 340.45C159.325 340.45 159.885 341.183 159.987 342.129H156.446C156.588 341.112 157.341 340.45 158.277 340.45ZM167.676 339.769C166.882 339.769 166.191 340.206 165.977 340.888C165.692 340.206 165.071 339.769 164.278 339.769C163.586 339.769 163.016 340.115 162.751 340.664V339.891H161.988V345.151H162.751V341.804C162.751 341.01 163.342 340.45 164.176 340.45C164.888 340.45 165.387 341.051 165.387 341.905V345.151H166.15V341.804C166.15 341.01 166.74 340.45 167.574 340.45C168.287 340.45 168.785 341.051 168.785 341.905V345.151H169.548V341.804C169.548 340.613 168.775 339.769 167.676 339.769ZM173.227 339.769C172.718 339.769 172.087 339.901 171.334 340.277L171.639 340.898C172.118 340.654 172.647 340.42 173.176 340.42C174.315 340.42 174.6 341.234 174.6 341.946V342.139C174.061 341.966 173.461 341.844 172.891 341.844C171.762 341.844 170.826 342.546 170.826 343.594C170.826 344.632 171.639 345.273 172.749 345.273C173.44 345.273 174.224 344.948 174.6 344.327V345.151H175.363V341.946C175.363 340.674 174.661 339.769 173.227 339.769ZM172.881 344.602C172.138 344.602 171.568 344.215 171.568 343.564C171.568 342.933 172.23 342.485 173.013 342.485C173.583 342.485 174.122 342.567 174.6 342.699V343.503C174.397 344.246 173.573 344.602 172.881 344.602ZM177.299 338.934C177.574 338.934 177.798 338.7 177.798 338.426C177.798 338.161 177.574 337.927 177.299 337.927C177.014 337.927 176.79 338.161 176.79 338.426C176.79 338.7 177.014 338.934 177.299 338.934ZM176.913 345.151H177.676V339.891H176.913V345.151ZM179.208 345.151H179.971V338.039H179.208V345.151ZM186.601 339.769C186.092 339.769 185.461 339.901 184.709 340.277L185.014 340.898C185.492 340.654 186.021 340.42 186.55 340.42C187.69 340.42 187.975 341.234 187.975 341.946V342.139C187.435 341.966 186.835 341.844 186.265 341.844C185.136 341.844 184.2 342.546 184.2 343.594C184.2 344.632 185.014 345.273 186.123 345.273C186.815 345.273 187.598 344.948 187.975 344.327V345.151H188.738V341.946C188.738 340.674 188.036 339.769 186.601 339.769ZM186.255 344.602C185.512 344.602 184.943 344.215 184.943 343.564C184.943 342.933 185.604 342.485 186.387 342.485C186.957 342.485 187.496 342.567 187.975 342.699V343.503C187.771 344.246 186.947 344.602 186.255 344.602ZM194.408 338.039V340.878C194.011 340.186 193.339 339.769 192.495 339.769C191.111 339.769 190.073 340.908 190.073 342.516C190.073 344.134 191.111 345.273 192.495 345.273C193.339 345.273 194.011 344.856 194.408 344.164V345.151H195.171V338.039H194.408ZM192.637 344.592C191.61 344.592 190.877 343.727 190.877 342.516C190.877 341.305 191.61 340.45 192.637 340.45C193.675 340.45 194.408 341.305 194.408 342.516C194.408 343.727 193.675 344.592 192.637 344.592ZM200.896 338.039V340.878C200.499 340.186 199.828 339.769 198.983 339.769C197.599 339.769 196.562 340.908 196.562 342.516C196.562 344.134 197.599 345.273 198.983 345.273C199.828 345.273 200.499 344.856 200.896 344.164V345.151H201.659V338.039H200.896ZM199.126 344.592C198.098 344.592 197.365 343.727 197.365 342.516C197.365 341.305 198.098 340.45 199.126 340.45C200.163 340.45 200.896 341.305 200.896 342.516C200.896 343.727 200.163 344.592 199.126 344.592ZM204.108 340.918V339.891H203.345V345.151H204.108V342.211C204.108 341.183 204.953 340.45 206.143 340.45V339.769C205.177 339.769 204.424 340.216 204.108 340.918ZM209.569 344.592C208.532 344.592 207.809 343.839 207.697 342.811H212.001C212.001 340.969 211.096 339.769 209.508 339.769C208.094 339.769 206.914 340.939 206.914 342.506C206.914 344.123 208.175 345.273 209.58 345.273C210.312 345.273 211.238 344.958 211.696 344.459L211.228 343.961C210.902 344.317 210.19 344.592 209.569 344.592ZM209.539 340.45C210.587 340.45 211.146 341.183 211.248 342.129H207.707C207.85 341.112 208.603 340.45 209.539 340.45ZM215.112 345.273C216.201 345.273 217.035 344.653 217.035 343.686C217.035 342.689 216.16 342.404 215.315 342.139C214.339 341.824 213.952 341.682 213.952 341.224C213.952 340.715 214.44 340.45 215.03 340.45C215.499 340.45 216.017 340.613 216.547 340.949L216.913 340.359C216.353 339.993 215.682 339.769 215.03 339.769C213.982 339.769 213.189 340.359 213.189 341.315C213.189 342.068 213.677 342.445 214.949 342.811C215.661 343.014 216.272 343.198 216.272 343.767C216.272 344.266 215.804 344.592 215.112 344.592C214.532 344.592 213.932 344.368 213.331 343.93L212.934 344.49C213.565 344.999 214.379 345.273 215.112 345.273ZM220.16 345.273C221.248 345.273 222.083 344.653 222.083 343.686C222.083 342.689 221.208 342.404 220.363 342.139C219.386 341.824 219 341.682 219 341.224C219 340.715 219.488 340.45 220.078 340.45C220.546 340.45 221.065 340.613 221.594 340.949L221.96 340.359C221.401 339.993 220.729 339.769 220.078 339.769C219.03 339.769 218.236 340.359 218.236 341.315C218.236 342.068 218.725 342.445 219.997 342.811C220.709 343.014 221.319 343.198 221.319 343.767C221.319 344.266 220.851 344.592 220.16 344.592C219.58 344.592 218.979 344.368 218.379 343.93L217.982 344.49C218.613 344.999 219.427 345.273 220.16 345.273Z" fill="#98A2B3"/>
<rect x="116.15" y="326.774" width="295.196" height="30.7535" rx="2.28933" stroke="#EAECF0" stroke-width="0.50874"/>
<path d="M115.894 409.088H413.506" stroke="#EAECF0" stroke-width="0.635925"/>
<g filter="url(#filter2_d_298_4399)">
<rect x="115.894" y="458.055" width="298.885" height="32.8933" rx="3.17962" fill="#E18C2F" shape-rendering="crispEdges"/>
<path d="M246.957 477.623C247.954 477.623 248.87 477.196 249.531 476.524L248.809 475.833C248.341 476.341 247.679 476.677 246.957 476.677C245.563 476.677 244.383 475.456 244.383 474.001C244.383 472.556 245.563 471.335 246.957 471.335C247.679 471.335 248.341 471.671 248.809 472.18L249.531 471.488C248.87 470.806 247.954 470.389 246.957 470.389C244.993 470.389 243.324 472.037 243.324 474.001C243.324 475.965 244.993 477.623 246.957 477.623ZM253.027 477.623C254.522 477.623 255.784 476.362 255.784 474.866C255.784 473.37 254.522 472.119 253.027 472.119C251.521 472.119 250.249 473.37 250.249 474.866C250.249 476.362 251.521 477.623 253.027 477.623ZM253.027 476.748C252.06 476.748 251.256 475.894 251.256 474.866C251.256 473.848 252.06 472.994 253.027 472.994C253.973 472.994 254.777 473.848 254.777 474.866C254.777 475.894 253.973 476.748 253.027 476.748ZM259.639 472.119C258.926 472.119 258.285 472.485 257.97 473.004V472.241H256.963V477.501H257.97V474.093C258.051 473.472 258.682 472.994 259.415 472.994C260.127 472.994 260.626 473.543 260.626 474.327V477.501H261.613V474.154C261.613 472.963 260.799 472.119 259.639 472.119ZM265.516 476.555C265.404 476.667 265.201 476.748 264.977 476.748C264.682 476.748 264.437 476.484 264.437 476.117V473.096H265.679V472.241H264.437V470.796H263.45V472.241H262.657V473.096H263.45V476.189C263.45 477.033 264.02 477.623 264.834 477.623C265.211 477.623 265.597 477.481 265.882 477.247L265.516 476.555ZM267.408 471.366C267.733 471.366 268.008 471.081 268.008 470.755C268.008 470.44 267.733 470.155 267.408 470.155C267.062 470.155 266.797 470.44 266.797 470.755C266.797 471.081 267.062 471.366 267.408 471.366ZM266.899 477.501H267.906V472.241H266.899V477.501ZM272.039 472.119C271.327 472.119 270.686 472.485 270.371 473.004V472.241H269.363V477.501H270.371V474.093C270.452 473.472 271.083 472.994 271.815 472.994C272.528 472.994 273.026 473.543 273.026 474.327V477.501H274.013V474.154C274.013 472.963 273.199 472.119 272.039 472.119ZM279.076 472.241V475.649C278.995 476.27 278.364 476.748 277.632 476.748C276.919 476.748 276.421 476.199 276.421 475.415V472.241H275.434V475.588C275.434 476.779 276.248 477.623 277.408 477.623C278.12 477.623 278.761 477.257 279.076 476.738V477.501H280.084V472.241H279.076ZM283.957 476.728C283.051 476.728 282.41 476.097 282.278 475.222H286.419C286.419 473.34 285.493 472.119 283.885 472.119C282.43 472.119 281.26 473.279 281.26 474.856C281.26 476.474 282.502 477.623 283.967 477.623C284.71 477.623 285.625 477.308 286.093 476.809L285.462 476.158C285.147 476.484 284.506 476.728 283.957 476.728ZM283.926 473.014C284.832 473.014 285.33 473.604 285.442 474.418H282.288C282.451 473.564 283.112 473.014 283.926 473.014Z" fill="white"/>
</g>
<rect x="110.17" y="159.17" width="309.695" height="42.607" rx="1.27185" fill="#FFE0BF"/>
<path d="M160.585 170.768V169.811H155.447V176.801H160.585V175.845H156.485V173.718H160.188V172.762H156.485V170.768H160.585ZM164.521 171.419C163.809 171.419 163.168 171.785 162.852 172.304V171.541H161.845V176.801H162.852V173.393C162.934 172.772 163.565 172.294 164.297 172.294C165.009 172.294 165.508 172.843 165.508 173.627V176.801H166.495V173.454C166.495 172.263 165.681 171.419 164.521 171.419ZM170.398 175.855C170.286 175.967 170.083 176.048 169.859 176.048C169.564 176.048 169.32 175.784 169.32 175.417V172.396H170.561V171.541H169.32V170.096H168.333V171.541H167.539V172.396H168.333V175.489C168.333 176.333 168.903 176.923 169.717 176.923C170.093 176.923 170.48 176.781 170.765 176.547L170.398 175.855ZM174.203 176.028C173.297 176.028 172.656 175.397 172.524 174.522H176.665C176.665 172.64 175.739 171.419 174.131 171.419C172.676 171.419 171.506 172.579 171.506 174.156C171.506 175.774 172.748 176.923 174.213 176.923C174.956 176.923 175.871 176.608 176.339 176.109L175.709 175.458C175.393 175.784 174.752 176.028 174.203 176.028ZM174.172 172.314C175.078 172.314 175.576 172.904 175.688 173.718H172.534C172.697 172.864 173.358 172.314 174.172 172.314ZM178.891 172.548V171.541H177.883V176.801H178.891V173.81C178.982 172.894 179.756 172.294 180.844 172.294V171.419C179.939 171.419 179.226 171.856 178.891 172.548ZM185.664 178.633C186.417 178.623 186.977 178.226 187.353 177.279L189.673 171.541H188.625L187.028 175.692L185.339 171.541H184.26L186.519 176.832L186.254 177.391C186.081 177.697 185.858 177.798 185.532 177.798C185.328 177.798 185.094 177.748 184.891 177.636L184.667 178.409C184.942 178.551 185.308 178.633 185.664 178.633ZM193.064 176.923C194.559 176.923 195.821 175.662 195.821 174.166C195.821 172.67 194.559 171.419 193.064 171.419C191.558 171.419 190.286 172.67 190.286 174.166C190.286 175.662 191.558 176.923 193.064 176.923ZM193.064 176.048C192.097 176.048 191.293 175.194 191.293 174.166C191.293 173.149 192.097 172.294 193.064 172.294C194.01 172.294 194.814 173.149 194.814 174.166C194.814 175.194 194.01 176.048 193.064 176.048ZM200.622 171.541V174.949C200.541 175.57 199.91 176.048 199.177 176.048C198.465 176.048 197.966 175.499 197.966 174.715V171.541H196.979V174.888C196.979 176.079 197.793 176.923 198.953 176.923C199.666 176.923 200.307 176.557 200.622 176.038V176.801H201.629V171.541H200.622ZM204.149 172.548V171.541H203.142V176.801H204.149V173.81C204.24 172.894 205.014 172.294 206.102 172.294V171.419C205.197 171.419 204.485 171.856 204.149 172.548ZM214.046 169.689V172.446C213.639 171.805 212.988 171.419 212.174 171.419C210.79 171.419 209.752 172.558 209.752 174.166C209.752 175.784 210.79 176.923 212.174 176.923C212.988 176.923 213.639 176.537 214.046 175.886V176.801H215.043V169.689H214.046ZM212.418 176.048C211.451 176.048 210.77 175.265 210.77 174.166C210.77 173.067 211.451 172.294 212.418 172.294C213.364 172.294 214.046 173.067 214.046 174.166C214.046 175.265 213.364 176.048 212.418 176.048ZM218.966 176.028C218.06 176.028 217.419 175.397 217.287 174.522H221.428C221.428 172.64 220.502 171.419 218.895 171.419C217.44 171.419 216.269 172.579 216.269 174.156C216.269 175.774 217.511 176.923 218.976 176.923C219.719 176.923 220.634 176.608 221.103 176.109L220.472 175.458C220.156 175.784 219.515 176.028 218.966 176.028ZM218.935 172.314C219.841 172.314 220.339 172.904 220.451 173.718H217.297C217.46 172.864 218.121 172.314 218.935 172.314ZM225.058 175.855C224.946 175.967 224.743 176.048 224.519 176.048C224.224 176.048 223.979 175.784 223.979 175.417V172.396H225.221V171.541H223.979V170.096H222.993V171.541H222.199V172.396H222.993V175.489C222.993 176.333 223.562 176.923 224.376 176.923C224.753 176.923 225.139 176.781 225.424 176.547L225.058 175.855ZM228.659 171.419C228.079 171.419 227.418 171.571 226.665 171.948L227.031 172.691C227.489 172.457 227.998 172.253 228.516 172.253C229.564 172.253 229.87 172.955 229.87 173.617V173.779C229.361 173.606 228.801 173.494 228.282 173.494C227.123 173.494 226.176 174.197 226.176 175.245C226.176 176.272 227 176.923 228.12 176.923C228.761 176.923 229.483 176.628 229.87 176.079V176.801H230.857V173.617C230.857 172.314 230.073 171.419 228.659 171.419ZM228.313 176.13C227.652 176.13 227.143 175.784 227.143 175.214C227.143 174.644 227.733 174.247 228.435 174.247C228.954 174.247 229.442 174.319 229.87 174.451V175.153C229.697 175.804 228.964 176.13 228.313 176.13ZM232.812 170.666C233.138 170.666 233.412 170.381 233.412 170.055C233.412 169.74 233.138 169.455 232.812 169.455C232.466 169.455 232.201 169.74 232.201 170.055C232.201 170.381 232.466 170.666 232.812 170.666ZM232.303 176.801H233.311V171.541H232.303V176.801ZM234.768 176.801H235.765V169.689H234.768V176.801ZM239.135 176.923C240.284 176.923 241.129 176.293 241.129 175.295C241.129 174.247 240.203 173.963 239.338 173.708C238.453 173.433 238.127 173.311 238.127 172.904C238.127 172.508 238.534 172.284 239.053 172.284C239.511 172.284 240.04 172.457 240.549 172.772L240.997 172.029C240.427 171.653 239.735 171.419 239.053 171.419C237.934 171.419 237.13 172.05 237.14 173.016C237.14 173.871 237.741 174.217 238.951 174.553C239.603 174.736 240.142 174.888 240.142 175.377C240.142 175.784 239.735 176.059 239.145 176.059C238.524 176.059 237.924 175.824 237.364 175.417L236.886 176.14C237.517 176.649 238.361 176.923 239.135 176.923ZM247.419 171.419C246.839 171.419 246.177 171.571 245.424 171.948L245.791 172.691C246.249 172.457 246.757 172.253 247.276 172.253C248.324 172.253 248.629 172.955 248.629 173.617V173.779C248.121 173.606 247.561 173.494 247.042 173.494C245.882 173.494 244.936 174.197 244.936 175.245C244.936 176.272 245.76 176.923 246.879 176.923C247.52 176.923 248.243 176.628 248.629 176.079V176.801H249.616V173.617C249.616 172.314 248.833 171.419 247.419 171.419ZM247.073 176.13C246.411 176.13 245.903 175.784 245.903 175.214C245.903 174.644 246.493 174.247 247.195 174.247C247.714 174.247 248.202 174.319 248.629 174.451V175.153C248.457 175.804 247.724 176.13 247.073 176.13ZM252.976 176.923C254.126 176.923 254.97 176.293 254.97 175.295C254.97 174.247 254.044 173.963 253.179 173.708C252.294 173.433 251.969 173.311 251.969 172.904C251.969 172.508 252.376 172.284 252.894 172.284C253.352 172.284 253.881 172.457 254.39 172.772L254.838 172.029C254.268 171.653 253.576 171.419 252.894 171.419C251.775 171.419 250.971 172.05 250.982 173.016C250.982 173.871 251.582 174.217 252.793 174.553C253.444 174.736 253.983 174.888 253.983 175.377C253.983 175.784 253.576 176.059 252.986 176.059C252.365 176.059 251.765 175.824 251.205 175.417L250.727 176.14C251.358 176.649 252.203 176.923 252.976 176.923ZM259.551 170.666C259.876 170.666 260.151 170.381 260.151 170.055C260.151 169.74 259.876 169.455 259.551 169.455C259.205 169.455 258.94 169.74 258.94 170.055C258.94 170.381 259.205 170.666 259.551 170.666ZM259.042 176.801H260.049V171.541H259.042V176.801ZM263.969 175.855C263.857 175.967 263.653 176.048 263.429 176.048C263.134 176.048 262.89 175.784 262.89 175.417V172.396H264.131V171.541H262.89V170.096H261.903V171.541H261.11V172.396H261.903V175.489C261.903 176.333 262.473 176.923 263.287 176.923C263.663 176.923 264.05 176.781 264.335 176.547L263.969 175.855ZM270.481 171.419C269.901 171.419 269.24 171.571 268.487 171.948L268.853 172.691C269.311 172.457 269.82 172.253 270.338 172.253C271.386 172.253 271.692 172.955 271.692 173.617V173.779C271.183 173.606 270.623 173.494 270.104 173.494C268.945 173.494 267.998 174.197 267.998 175.245C267.998 176.272 268.822 176.923 269.942 176.923C270.583 176.923 271.305 176.628 271.692 176.079V176.801H272.679V173.617C272.679 172.314 271.895 171.419 270.481 171.419ZM270.135 176.13C269.474 176.13 268.965 175.784 268.965 175.214C268.965 174.644 269.555 174.247 270.257 174.247C270.776 174.247 271.264 174.319 271.692 174.451V175.153C271.519 175.804 270.786 176.13 270.135 176.13ZM277.056 171.419C276.242 171.419 275.59 171.805 275.183 172.446V171.541H274.186V178.551H275.183V175.886C275.59 176.537 276.242 176.923 277.056 176.923C278.439 176.923 279.477 175.784 279.477 174.166C279.477 172.558 278.439 171.419 277.056 171.419ZM276.811 176.048C275.865 176.048 275.183 175.265 275.183 174.166C275.183 173.067 275.865 172.294 276.811 172.294C277.778 172.294 278.46 173.067 278.46 174.166C278.46 175.265 277.778 176.048 276.811 176.048ZM283.614 171.419C282.8 171.419 282.148 171.805 281.741 172.446V171.541H280.744V178.551H281.741V175.886C282.148 176.537 282.8 176.923 283.614 176.923C284.997 176.923 286.035 175.784 286.035 174.166C286.035 172.558 284.997 171.419 283.614 171.419ZM283.369 176.048C282.423 176.048 281.741 175.265 281.741 174.166C281.741 173.067 282.423 172.294 283.369 172.294C284.336 172.294 285.018 173.067 285.018 174.166C285.018 175.265 284.336 176.048 283.369 176.048ZM289.663 176.028C288.757 176.028 288.116 175.397 287.984 174.522H292.125C292.125 172.64 291.199 171.419 289.592 171.419C288.137 171.419 286.966 172.579 286.966 174.156C286.966 175.774 288.208 176.923 289.673 176.923C290.416 176.923 291.331 176.608 291.799 176.109L291.169 175.458C290.853 175.784 290.212 176.028 289.663 176.028ZM289.632 172.314C290.538 172.314 291.036 172.904 291.148 173.718H287.994C288.157 172.864 288.818 172.314 289.632 172.314ZM295.501 171.419C294.921 171.419 294.259 171.571 293.506 171.948L293.873 172.691C294.33 172.457 294.839 172.253 295.358 172.253C296.406 172.253 296.711 172.955 296.711 173.617V173.779C296.203 173.606 295.643 173.494 295.124 173.494C293.964 173.494 293.018 174.197 293.018 175.245C293.018 176.272 293.842 176.923 294.961 176.923C295.602 176.923 296.325 176.628 296.711 176.079V176.801H297.698V173.617C297.698 172.314 296.915 171.419 295.501 171.419ZM295.155 176.13C294.493 176.13 293.985 175.784 293.985 175.214C293.985 174.644 294.575 174.247 295.277 174.247C295.796 174.247 296.284 174.319 296.711 174.451V175.153C296.538 175.804 295.806 176.13 295.155 176.13ZM300.213 172.548V171.541H299.206V176.801H300.213V173.81C300.305 172.894 301.078 172.294 302.167 172.294V171.419C301.261 171.419 300.549 171.856 300.213 172.548ZM308.554 176.923C310.049 176.923 311.311 175.662 311.311 174.166C311.311 172.67 310.049 171.419 308.554 171.419C307.048 171.419 305.776 172.67 305.776 174.166C305.776 175.662 307.048 176.923 308.554 176.923ZM308.554 176.048C307.587 176.048 306.783 175.194 306.783 174.166C306.783 173.149 307.587 172.294 308.554 172.294C309.5 172.294 310.304 173.149 310.304 174.166C310.304 175.194 309.5 176.048 308.554 176.048ZM315.166 171.419C314.453 171.419 313.812 171.785 313.497 172.304V171.541H312.49V176.801H313.497V173.393C313.578 172.772 314.209 172.294 314.942 172.294C315.654 172.294 316.153 172.843 316.153 173.627V176.801H317.14V173.454C317.14 172.263 316.326 171.419 315.166 171.419ZM321.492 176.801H322.489V169.689H321.492V176.801ZM326.368 176.028C325.462 176.028 324.821 175.397 324.689 174.522H328.83C328.83 172.64 327.904 171.419 326.296 171.419C324.841 171.419 323.671 172.579 323.671 174.156C323.671 175.774 324.913 176.923 326.378 176.923C327.121 176.923 328.036 176.608 328.504 176.109L327.873 175.458C327.558 175.784 326.917 176.028 326.368 176.028ZM326.337 172.314C327.243 172.314 327.741 172.904 327.853 173.718H324.699C324.862 172.864 325.523 172.314 326.337 172.314ZM333.996 171.541V172.385C333.599 171.795 332.928 171.419 332.134 171.419C330.75 171.419 329.743 172.446 329.743 173.912C329.743 175.377 330.75 176.415 332.134 176.415C332.928 176.415 333.579 176.059 333.996 175.458V176.221C333.996 177.137 333.314 177.676 332.185 177.676C331.554 177.676 330.923 177.463 330.537 177.096L330.14 177.849C330.638 178.256 331.452 178.551 332.338 178.551C333.894 178.551 335.003 177.595 335.003 176.242V171.541H333.996ZM332.389 175.54C331.452 175.54 330.791 174.868 330.791 173.912C330.791 172.965 331.452 172.294 332.389 172.294C333.325 172.294 333.996 172.965 333.996 173.912C333.996 174.868 333.325 175.54 332.389 175.54ZM338.714 171.419C338.134 171.419 337.472 171.571 336.719 171.948L337.086 172.691C337.544 172.457 338.052 172.253 338.571 172.253C339.619 172.253 339.924 172.955 339.924 173.617V173.779C339.416 173.606 338.856 173.494 338.337 173.494C337.177 173.494 336.231 174.197 336.231 175.245C336.231 176.272 337.055 176.923 338.174 176.923C338.815 176.923 339.538 176.628 339.924 176.079V176.801H340.911V173.617C340.911 172.314 340.128 171.419 338.714 171.419ZM338.368 176.13C337.706 176.13 337.198 175.784 337.198 175.214C337.198 174.644 337.788 174.247 338.49 174.247C339.009 174.247 339.497 174.319 339.924 174.451V175.153C339.751 175.804 339.019 176.13 338.368 176.13ZM342.368 176.801H343.365V169.689H342.368V176.801ZM159.466 183.689V186.446C159.059 185.805 158.408 185.419 157.594 185.419C156.21 185.419 155.172 186.558 155.172 188.166C155.172 189.784 156.21 190.923 157.594 190.923C158.408 190.923 159.059 190.537 159.466 189.886V190.801H160.463V183.689H159.466ZM157.838 190.048C156.871 190.048 156.189 189.265 156.189 188.166C156.189 187.067 156.871 186.294 157.838 186.294C158.784 186.294 159.466 187.067 159.466 188.166C159.466 189.265 158.784 190.048 157.838 190.048ZM164.467 190.923C165.963 190.923 167.224 189.662 167.224 188.166C167.224 186.67 165.963 185.419 164.467 185.419C162.961 185.419 161.689 186.67 161.689 188.166C161.689 189.662 162.961 190.923 164.467 190.923ZM164.467 190.048C163.5 190.048 162.697 189.194 162.697 188.166C162.697 187.149 163.5 186.294 164.467 186.294C165.413 186.294 166.217 187.149 166.217 188.166C166.217 189.194 165.413 190.048 164.467 190.048ZM170.886 190.923C171.669 190.923 172.351 190.598 172.86 190.079L172.178 189.458C171.852 189.824 171.384 190.048 170.896 190.048C169.929 190.048 169.136 189.194 169.136 188.166C169.136 187.149 169.929 186.294 170.886 186.294C171.374 186.294 171.832 186.508 172.147 186.864L172.829 186.233C172.33 185.734 171.649 185.419 170.896 185.419C169.39 185.419 168.118 186.67 168.118 188.166C168.118 189.662 169.39 190.923 170.886 190.923ZM177.56 185.541V188.949C177.478 189.57 176.847 190.048 176.115 190.048C175.403 190.048 174.904 189.499 174.904 188.715V185.541H173.917V188.888C173.917 190.079 174.731 190.923 175.891 190.923C176.603 190.923 177.244 190.557 177.56 190.038V190.801H178.567V185.541H177.56ZM185.909 185.419C185.116 185.419 184.444 185.826 184.2 186.477C183.895 185.826 183.274 185.419 182.511 185.419C181.84 185.419 181.29 185.755 181.026 186.273V185.541H180.018V190.801H181.026V187.515C181.026 186.792 181.555 186.294 182.308 186.294C182.969 186.294 183.427 186.833 183.427 187.606V190.801H184.414V187.515C184.414 186.792 184.943 186.294 185.696 186.294C186.357 186.294 186.815 186.833 186.815 187.606V190.801H187.802V187.454C187.802 186.263 187.008 185.419 185.909 185.419ZM191.661 190.028C190.755 190.028 190.114 189.397 189.982 188.522H194.123C194.123 186.64 193.197 185.419 191.59 185.419C190.135 185.419 188.964 186.579 188.964 188.156C188.964 189.774 190.206 190.923 191.671 190.923C192.414 190.923 193.329 190.608 193.798 190.109L193.167 189.458C192.851 189.784 192.21 190.028 191.661 190.028ZM191.63 186.314C192.536 186.314 193.034 186.904 193.146 187.718H189.992C190.155 186.864 190.816 186.314 191.63 186.314ZM197.967 185.419C197.254 185.419 196.613 185.785 196.298 186.304V185.541H195.291V190.801H196.298V187.393C196.379 186.772 197.01 186.294 197.743 186.294C198.455 186.294 198.954 186.843 198.954 187.627V190.801H199.941V187.454C199.941 186.263 199.127 185.419 197.967 185.419ZM203.844 189.855C203.732 189.967 203.529 190.048 203.305 190.048C203.01 190.048 202.765 189.784 202.765 189.417V186.396H204.007V185.541H202.765V184.096H201.778V185.541H200.985V186.396H201.778V189.489C201.778 190.333 202.348 190.923 203.162 190.923C203.539 190.923 203.925 190.781 204.21 190.547L203.844 189.855ZM207.14 190.923C208.289 190.923 209.134 190.293 209.134 189.295C209.134 188.247 208.208 187.963 207.343 187.708C206.458 187.433 206.132 187.311 206.132 186.904C206.132 186.508 206.539 186.284 207.058 186.284C207.516 186.284 208.045 186.457 208.554 186.772L209.002 186.029C208.432 185.653 207.74 185.419 207.058 185.419C205.939 185.419 205.135 186.05 205.145 187.016C205.145 187.871 205.746 188.217 206.956 188.553C207.608 188.736 208.147 188.888 208.147 189.377C208.147 189.784 207.74 190.059 207.15 190.059C206.529 190.059 205.929 189.824 205.369 189.417L204.891 190.14C205.522 190.649 206.366 190.923 207.14 190.923ZM210.935 190.923C211.302 190.923 211.597 190.608 211.597 190.231C211.597 189.886 211.302 189.57 210.935 189.57C210.549 189.57 210.254 189.886 210.254 190.231C210.254 190.608 210.549 190.923 210.935 190.923Z" fill="#1D2939"/>
<g clip-path="url(#clip0_298_4399)">
<path d="M131.792 178.566C132.418 178.567 133.039 178.444 133.618 178.204C134.196 177.964 134.722 177.612 135.164 177.169C135.608 176.726 135.96 176.201 136.199 175.622C136.439 175.043 136.562 174.423 136.561 173.796C136.562 173.17 136.439 172.549 136.199 171.971C135.96 171.392 135.608 170.866 135.164 170.424C134.722 169.98 134.196 169.629 133.618 169.389C133.039 169.149 132.418 169.026 131.792 169.027C131.165 169.026 130.545 169.149 129.966 169.389C129.388 169.629 128.862 169.98 128.419 170.424C127.976 170.866 127.624 171.392 127.384 171.971C127.145 172.549 127.022 173.17 127.022 173.796C127.022 174.423 127.145 175.043 127.384 175.622C127.624 176.201 127.976 176.726 128.419 177.169C128.862 177.612 129.388 177.964 129.966 178.204C130.545 178.444 131.165 178.567 131.792 178.566Z" fill="black" stroke="black" stroke-width="2.5437" stroke-linejoin="round"/>
<path fill-rule="evenodd" clip-rule="evenodd" d="M131.791 176.896C131.95 176.896 132.101 176.834 132.213 176.722C132.325 176.61 132.388 176.458 132.388 176.3C132.388 176.142 132.325 175.991 132.213 175.879C132.101 175.767 131.95 175.704 131.791 175.704C131.633 175.704 131.482 175.767 131.37 175.879C131.258 175.991 131.195 176.142 131.195 176.3C131.195 176.458 131.258 176.61 131.37 176.722C131.482 176.834 131.633 176.896 131.791 176.896Z" fill="white"/>
<path d="M131.792 170.935V174.75" stroke="white" stroke-width="1.90777" stroke-linecap="round" stroke-linejoin="round"/>
</g>
<path d="M213.158 519.036C214.689 519.036 215.784 517.923 215.784 516.356V512.812H214.876V516.338C214.876 517.433 214.164 518.216 213.158 518.216C212.143 518.216 211.43 517.433 211.43 516.338V512.812H210.531V516.356C210.531 517.923 211.617 519.036 213.158 519.036ZM219.47 514.219C218.847 514.219 218.286 514.54 218.01 514.994V514.326H217.128V518.929H218.01V515.946C218.081 515.403 218.633 514.985 219.274 514.985C219.897 514.985 220.334 515.465 220.334 516.151V518.929H221.197V516C221.197 514.958 220.485 514.219 219.47 514.219ZM226.001 512.706V515.118C225.645 514.557 225.076 514.219 224.363 514.219C223.152 514.219 222.244 515.216 222.244 516.623C222.244 518.038 223.152 519.036 224.363 519.036C225.076 519.036 225.645 518.697 226.001 518.127V518.929H226.874V512.706H226.001ZM224.577 518.27C223.731 518.27 223.135 517.584 223.135 516.623C223.135 515.661 223.731 514.985 224.577 514.985C225.405 514.985 226.001 515.661 226.001 516.623C226.001 517.584 225.405 518.27 224.577 518.27ZM230.306 518.252C229.514 518.252 228.953 517.7 228.837 516.934H232.461C232.461 515.287 231.651 514.219 230.244 514.219C228.971 514.219 227.947 515.234 227.947 516.614C227.947 518.03 229.033 519.036 230.315 519.036C230.965 519.036 231.766 518.76 232.176 518.323L231.624 517.754C231.348 518.038 230.787 518.252 230.306 518.252ZM230.28 515.003C231.072 515.003 231.508 515.519 231.606 516.231H228.846C228.989 515.483 229.567 515.003 230.28 515.003ZM234.408 515.207V514.326H233.527V518.929H234.408V516.311C234.488 515.51 235.165 514.985 236.118 514.985V514.219C235.325 514.219 234.702 514.602 234.408 515.207ZM238.144 518.929H238.954L240.067 515.51L241.171 518.929H241.981L243.53 514.326H242.631L241.58 517.754L240.441 514.326H239.693L238.553 517.754L237.494 514.326H236.595L238.144 518.929ZM245.346 515.207V514.326H244.464V518.929H245.346V516.311C245.426 515.51 246.102 514.985 247.055 514.985V514.219C246.263 514.219 245.64 514.602 245.346 515.207ZM248.351 513.56C248.636 513.56 248.876 513.311 248.876 513.026C248.876 512.75 248.636 512.501 248.351 512.501C248.048 512.501 247.817 512.75 247.817 513.026C247.817 513.311 248.048 513.56 248.351 513.56ZM247.906 518.929H248.787V514.326H247.906V518.929ZM252.217 518.101C252.119 518.199 251.941 518.27 251.745 518.27C251.487 518.27 251.273 518.038 251.273 517.718V515.074H252.359V514.326H251.273V513.062H250.41V514.326H249.715V515.074H250.41V517.78C250.41 518.519 250.908 519.036 251.62 519.036C251.95 519.036 252.288 518.911 252.537 518.706L252.217 518.101ZM255.59 518.101C255.492 518.199 255.314 518.27 255.118 518.27C254.86 518.27 254.647 518.038 254.647 517.718V515.074H255.733V514.326H254.647V513.062H253.783V514.326H253.089V515.074H253.783V517.78C253.783 518.519 254.282 519.036 254.994 519.036C255.323 519.036 255.662 518.911 255.911 518.706L255.59 518.101ZM258.919 518.252C258.127 518.252 257.566 517.7 257.45 516.934H261.074C261.074 515.287 260.264 514.219 258.857 514.219C257.584 514.219 256.56 515.234 256.56 516.614C256.56 518.03 257.646 519.036 258.928 519.036C259.578 519.036 260.379 518.76 260.789 518.323L260.237 517.754C259.961 518.038 259.4 518.252 258.919 518.252ZM258.892 515.003C259.685 515.003 260.121 515.519 260.219 516.231H257.459C257.602 515.483 258.18 515.003 258.892 515.003ZM264.437 514.219C263.814 514.219 263.253 514.54 262.977 514.994V514.326H262.095V518.929H262.977V515.946C263.048 515.403 263.6 514.985 264.241 514.985C264.864 514.985 265.3 515.465 265.3 516.151V518.929H266.164V516C266.164 514.958 265.452 514.219 264.437 514.219ZM272.527 514.219C271.815 514.219 271.245 514.557 270.889 515.118V512.706H270.017V518.929H270.889V518.127C271.245 518.697 271.815 519.036 272.527 519.036C273.738 519.036 274.646 518.038 274.646 516.623C274.646 515.216 273.738 514.219 272.527 514.219ZM272.314 518.27C271.486 518.27 270.889 517.584 270.889 516.623C270.889 515.661 271.486 514.985 272.314 514.985C273.16 514.985 273.756 515.661 273.756 516.623C273.756 517.584 273.16 518.27 272.314 518.27ZM276.521 520.531C277.18 520.522 277.669 520.175 277.999 519.347L280.028 514.326H279.111L277.714 517.958L276.236 514.326H275.292L277.269 518.955L277.037 519.445C276.886 519.712 276.69 519.801 276.405 519.801C276.227 519.801 276.022 519.757 275.844 519.659L275.648 520.335C275.889 520.46 276.209 520.531 276.521 520.531Z" fill="#667085"/>
<g clip-path="url(#clip1_298_4399)">
<path fill-rule="evenodd" clip-rule="evenodd" d="M301.167 514.786L301.04 513.673C299.868 513.282 297.97 513.074 296.963 514.03C295.582 515.29 296.036 518.478 298.797 518.539C300.186 518.591 300.767 518.244 301.485 518.035C301.412 517.966 301.321 517.861 301.303 517.775L301.312 516.558C301.321 516.419 301.394 516.341 301.494 516.237H300.377C300.486 516.35 300.559 516.41 300.568 516.575L300.586 517.957C298.742 518.565 297.371 518.035 297.081 516.654C296.808 514.742 297.516 513.76 299.069 513.682C300.113 513.665 300.749 514.038 301.167 514.786Z" fill="#005291"/>
<path fill-rule="evenodd" clip-rule="evenodd" d="M305.822 513.354L305.839 513.939C305.716 513.834 305.567 513.695 305.373 513.695L303.836 513.703V515.477H305.33C305.4 515.477 305.47 515.407 305.514 515.346V516.194C305.47 516.141 305.373 516.028 305.321 516.028H303.836V518.177H305.532C305.778 518.195 306.024 517.889 306.147 517.793L306.006 518.544H302.975C303.019 518.501 303.133 518.335 303.133 518.186V513.703C303.133 513.502 303.045 513.406 302.975 513.345L305.822 513.354Z" fill="#005291"/>
<path fill-rule="evenodd" clip-rule="evenodd" d="M312.014 513.345L309.807 518.258C309.781 518.353 309.709 518.457 309.53 518.527L310.629 518.536C310.513 518.457 310.486 518.388 310.486 518.31L311.005 517.014H312.827L313.426 518.275C313.453 518.388 313.364 518.457 313.185 518.544L314.606 518.536C314.472 518.466 314.382 518.423 314.275 518.258C314.275 518.258 312.023 513.362 312.014 513.345ZM311.934 514.701L311.166 516.449L312.684 516.458C312.684 516.458 311.943 514.701 311.934 514.701Z" fill="#005291"/>
<path fill-rule="evenodd" clip-rule="evenodd" d="M289.31 518.544C289.355 518.501 289.471 518.335 289.471 518.186V515.932H286.68V518.186C286.68 518.335 286.787 518.501 286.832 518.544H285.749C285.794 518.501 285.901 518.335 285.901 518.186V513.703C285.91 513.502 285.812 513.406 285.749 513.345H286.832C286.769 513.406 286.671 513.502 286.68 513.703V515.468H289.471V513.703C289.471 513.502 289.381 513.406 289.31 513.345H290.401C290.33 513.406 290.24 513.502 290.24 513.703V518.186C290.24 518.335 290.357 518.501 290.401 518.544H289.31Z" fill="#005291"/>
<path fill-rule="evenodd" clip-rule="evenodd" d="M310.508 521.04C310.515 521.022 310.547 520.968 310.547 520.923V520.204H309.782V520.923C309.782 520.968 309.814 521.022 309.83 521.04H309.53C309.546 521.022 309.578 520.968 309.578 520.923V519.493C309.578 519.43 309.546 519.394 309.53 519.376H309.83C309.806 519.394 309.782 519.43 309.782 519.493V520.051H310.547V519.493C310.547 519.43 310.523 519.394 310.508 519.376H310.799C310.783 519.394 310.76 519.43 310.76 519.493V520.923C310.76 520.968 310.791 521.022 310.799 521.04H310.508Z" fill="#005291"/>
<path fill-rule="evenodd" clip-rule="evenodd" d="M313.966 519.376C314.443 519.376 314.817 519.746 314.817 520.208C314.817 520.67 314.443 521.04 313.966 521.04C313.499 521.04 313.125 520.67 313.125 520.208C313.125 519.746 313.499 519.376 313.966 519.376ZM313.966 519.571C314.293 519.571 314.564 519.857 314.564 520.208C314.564 520.569 314.293 520.855 313.966 520.855C313.648 520.855 313.377 520.569 313.377 520.208C313.377 519.857 313.648 519.571 313.966 519.571Z" fill="#005291"/>
<path fill-rule="evenodd" clip-rule="evenodd" d="M311.325 519.376H311.517L312.05 520.51L312.528 519.376H312.83C312.799 519.403 312.775 519.43 312.775 519.475C312.775 519.475 312.878 520.645 312.918 520.905C312.926 520.959 312.966 520.995 313.014 521.04H312.544C312.584 520.995 312.631 520.965 312.631 520.914C312.631 520.72 312.544 519.871 312.544 519.871L312.05 521.022L311.525 519.88C311.525 519.88 311.4 520.722 311.389 520.914C311.387 520.96 311.421 520.995 311.461 521.031H311.11C311.158 521.004 311.182 520.961 311.19 520.914C311.232 520.654 311.365 519.466 311.365 519.466C311.365 519.448 311.357 519.403 311.325 519.376Z" fill="#005291"/>
<path fill-rule="evenodd" clip-rule="evenodd" d="M307.257 518.547C307.313 518.504 307.457 518.338 307.457 518.189V513.706C307.457 513.505 307.346 513.409 307.257 513.348H308.442C308.353 513.409 308.241 513.505 308.241 513.706V518.189C308.241 518.338 308.386 518.504 308.442 518.547H307.257Z" fill="#005291"/>
<path fill-rule="evenodd" clip-rule="evenodd" d="M293.006 516.571C292.316 516.03 291.713 515.302 291.476 513.752C291.45 513.606 291.345 513.467 291.231 513.345L292.501 513.353C292.378 513.475 292.256 513.589 292.256 513.777C292.299 514.306 292.353 515.148 293.381 516.125C293.426 516.168 293.534 516.256 293.534 516.256L293.178 516.685C293.178 516.685 293.074 516.623 293.006 516.571Z" fill="#E33E3C"/>
<path fill-rule="evenodd" clip-rule="evenodd" d="M293.382 516.312C292.561 517.042 292.45 518.01 293.145 518.837C293.298 519.021 293.382 519.1 293.425 519.179C293.522 519.329 293.583 519.513 293.566 519.763C293.778 519.616 293.844 519.194 293.627 518.887C293.143 518.203 292.78 517.529 293.741 516.762C294.452 516.195 295.181 515.462 295.427 513.762C295.453 513.612 295.567 513.47 295.673 513.345L294.4 513.353C294.523 513.478 294.654 513.595 294.654 513.787C294.602 514.328 294.429 515.379 293.382 516.312Z" fill="#18BC2B"/>
<path fill-rule="evenodd" clip-rule="evenodd" d="M293.862 516.666C293.868 516.673 293.874 516.681 293.876 516.685C294.109 517.03 294.234 517.413 294.223 517.755C294.204 518.414 293.613 518.76 293.437 519.208C293.334 519.466 293.362 519.651 293.474 520C293.034 519.69 293.113 519.152 293.208 518.894C293.35 518.513 293.762 518.275 293.764 517.703C293.764 517.422 293.655 517.221 293.485 516.999C293.557 516.921 293.644 516.842 293.742 516.762C293.784 516.731 293.823 516.699 293.862 516.666Z" fill="#E33E3C"/>
</g>
<defs>
<filter id="filter0_d_298_4399" x="0" y="0" width="530" height="609" filterUnits="userSpaceOnUse" color-interpolation-filters="sRGB">
<feFlood flood-opacity="0" result="BackgroundImageFix"/>
<feColorMatrix in="SourceAlpha" type="matrix" values="0 0 0 0 0 0 0 0 0 0 0 0 0 0 0 0 0 0 127 0" result="hardAlpha"/>
<feOffset dy="4"/>
<feGaussianBlur stdDeviation="4.5"/>
<feComposite in2="hardAlpha" operator="out"/>
<feColorMatrix type="matrix" values="0 0 0 0 0 0 0 0 0 0 0 0 0 0 0 0 0 0 0.25 0"/>
<feBlend mode="normal" in2="BackgroundImageFix" result="effect1_dropShadow_298_4399"/>
<feBlend mode="normal" in="SourceGraphic" in2="effect1_dropShadow_298_4399" result="shape"/>
</filter>
<filter id="filter1_dd_298_4399" x="80.2815" y="130.879" width="369.472" height="422.89" filterUnits="userSpaceOnUse" color-interpolation-filters="sRGB">
<feFlood flood-opacity="0" result="BackgroundImageFix"/>
<feColorMatrix in="SourceAlpha" type="matrix" values="0 0 0 0 0 0 0 0 0 0 0 0 0 0 0 0 0 0 127 0" result="hardAlpha"/>
<feOffset/>
<feGaussianBlur stdDeviation="0.25437"/>
<feColorMatrix type="matrix" values="0 0 0 0 1 0 0 0 0 1 0 0 0 0 1 0 0 0 0.2 0"/>
<feBlend mode="normal" in2="BackgroundImageFix" result="effect1_dropShadow_298_4399"/>
<feColorMatrix in="SourceAlpha" type="matrix" values="0 0 0 0 0 0 0 0 0 0 0 0 0 0 0 0 0 0 127 0" result="hardAlpha"/>
<feOffset dy="1.59769"/>
<feGaussianBlur stdDeviation="6.35925"/>
<feColorMatrix type="matrix" values="0 0 0 0 0.620833 0 0 0 0 0.620833 0 0 0 0 0.620833 0 0 0 0.2 0"/>
<feBlend mode="normal" in2="effect1_dropShadow_298_4399" result="effect2_dropShadow_298_4399"/>
<feBlend mode="normal" in="SourceGraphic" in2="effect2_dropShadow_298_4399" result="shape"/>
</filter>
<filter id="filter2_d_298_4399" x="114.622" y="457.419" width="301.428" height="35.437" filterUnits="userSpaceOnUse" color-interpolation-filters="sRGB">
<feFlood flood-opacity="0" result="BackgroundImageFix"/>
<feColorMatrix in="SourceAlpha" type="matrix" values="0 0 0 0 0 0 0 0 0 0 0 0 0 0 0 0 0 0 127 0" result="hardAlpha"/>
<feOffset dy="0.635925"/>
<feGaussianBlur stdDeviation="0.635925"/>
<feComposite in2="hardAlpha" operator="out"/>
<feColorMatrix type="matrix" values="0 0 0 0 0.579167 0 0 0 0 0.579167 0 0 0 0 0.579167 0 0 0 0.42 0"/>
<feBlend mode="normal" in2="BackgroundImageFix" result="effect1_dropShadow_298_4399"/>
<feBlend mode="normal" in="SourceGraphic" in2="effect1_dropShadow_298_4399" result="shape"/>
</filter>
<clipPath id="clip0_298_4399">
<rect width="11.4466" height="11.4466" fill="white" transform="translate(126.068 168.073)"/>
</clipPath>
<clipPath id="clip1_298_4399">
<rect width="33.3861" height="13.3544" fill="white" transform="translate(285.685 510.518)"/>
</clipPath>
</defs>
</svg>
